<svg xmlns="http://www.w3.org/2000/svg" overflow="visible" viewBox="0 0 140.09 300.89"><g fill-rule="evenodd" stroke="#000" stroke-miterlimit="10" stroke-width=".04" clip-rule="evenodd"><path d="M.82 12.22c-1.37-2.63-1-5 .69-6.98C3.3 3.15 6.44 1.46 11.3.02c6.66 4.68 13.64 9.86 21.63 15.7 7.89 5.9 20.13 14.43 25.46 19.18 5.14 4.43 2.48.11 5.61 8.03 3.1 8 7.35 20.95 12.9 39.46 8.7-.36 17.1.46 25.84 2.08 8.68 1.73 19.55 5.08 25.81 7.96 6.12 2.77 9.69 5.76 10.84 8.82l.68 8.71-2.09 1.4c-5.93 26.72-10.08 50.59-12.56 72.58-2.52 21.9-2.23 39.75-2.45 58.29-.28 18.5-.1 35.35.69 51.66-17.46 5.1-33.95 7.34-50.58 6.98a147.98 147.98 0 0 1-48.17-9.43 2918.54 2918.54 0 0 0-8.75-92.49 2588.98 2588.98 0 0 0-11.52-88.63l-2.45-1.08v-7.99c3.82-6.26 10.66-10.8 20.96-14.15 10.3-3.27 23.4-5.18 40.14-5.58L50.72 46.78c-8.5-5.76-16.77-11.27-25.13-17.1A2180.73 2180.73 0 0 1 .83 12.22z"/><path fill="#0FF" d="M9.18 2.1c-3.24 1.34-5.4 2.6-6.63 4.18-1.26 1.44-1.44 4.18-.68 4.9.79.61 3.78.1 5.22-.68 1.11-.83 1.98-2.88 2.45-4.22.54-1.47.72-2.73.68-4.17H9.17zM5 13.27c2.55.14 4.53-.44 5.94-1.73 1.33-1.37 2.2-3.42 2.45-6.3l46.76 33.88 20.95 62.45c-2.48 1.05-4.32 1.34-5.93.72-1.63-.6-2.74-2.01-3.5-4.2L52.48 47.81c5.22.94 7.63 1.33 7.67 1.05-.14-.26-2.66-1.2-8-2.67 4.11-1.3 6.13-1.98 6.06-2.2-.11-.21-2.27.08-6.63.87 2.02-3.78 3.03-5.65 2.88-5.76-.18-.07-1.36 1.48-3.7 5.08C35.53 33.89 20.26 23.59 5 13.26z"/><path fill="silver" d="m77.61 84.83 1.04 3.86c5.51-.65 11.45-.33 18.5.68 7 1.15 22.3 5 23.01 5.58.44.32-12.74-2.48-19.51-3.13-6.84-.65-13.68-.94-20.95-.72l3.13 9.1c1.08-.1 1.66-.64 1.73-1.76-.04-1.15-1.84-4.68-1.37-4.9.5-.35 3.42 2.38 4.18 3.5.72 1.04.5 2.16-.36 3.5-1.08 1.36-2.77 4.02-5.9 4.53-3.28.29-11.27-1.37-13.29-2.45-2.09-1.08-1.7-2.52 1.05-4.18l-1.73-7.34c-4.93-.72-10.01-.72-15.37 0-5.44.72-15.74 4.25-16.74 4.21-1.01-.25 5.65-4 10.8-5.25 5.04-1.26 11.55-2.13 19.54-2.45l-1.72-3.13c-9 .03-17.36.75-25.5 2.44a110.84 110.84 0 0 0-23.03 7.35c-5 2.3-7.38 4.93-6.99 6.62.36 1.55 2.56 1.62 9.08 3.13 6.48 1.48 16.45 4.68 29.34 5.58 12.88.8 33.73.3 47.12-.68 13.21-1.12 25.49-4 32.11-5.58 6.48-1.58 7.7-2.09 6.99-3.85-.98-1.98-6.05-4.93-11.89-7.31-5.9-2.41-15.8-5.47-23.03-6.66a69.14 69.14 0 0 0-20.23-.69z"/><path fill="silver" d="m11.62 111.55-1.04-5.62 6.62 1.4.72 3.86 4.54 1.04 1.04-3.13 6.63 1.05 1.04 4.17 4.9 1.05 1.72-4.18 8.4 1.4 1.04 4.54 6.62.32 1.76-4.53 7.67.36 1.77 4.53h5.9l1.76-4.9 8.4.37 1.36 3.85 5.94-.36 1.4-4.54 7.35-.36 2.09 3.14 6.98-1.05 1.04-3.81 6.27-1.4 3.17 3.48 4.86-1.4 2.44-4.54 4.9-1.4 3.13 3.17 3.85-1.05-.36 3.46c-5.54 1.76-12.27 3.35-20.59 4.9-8.39 1.47-18.65 3.24-28.98 4.17-10.3.94-20.48 2.27-32.8 1.08-12.46-1.43-26.2-4.27-41.54-9.06z"/><path fill="red" d="M7.09 112.74c3.49 2.77 10.37 5.08 20.95 6.98 10.66 1.95 26.6 4.83 42.23 4.54 15.62-.32 39.74-4.57 50.61-6.26 10.73-1.7 13.61-3.86 13.61-3.86s-2.48 5.33-3.85 13.18c-1.33 7.88-2.02 10.87-2.77 20.6-11.7 18.03-26.53 29.47-45.04 34.91-18.61 5.37-40.21 4.43-65.63-2.8-.25-1.09-1.04-7.17-2.77-18.4-1.73-11.35-4.18-27.37-7.35-48.9z"/><path fill="#FFF" d="M17.92 184.23c7.78 3.02 16.92 4.72 28.26 5.22 11.34.4 25.27 2.45 38.74-2.45 13.25-5.04 26.6-13.97 40.5-27.21a661.53 661.53 0 0 0-4.54 49.1c-.79 15.3-1 29.2-.36 42.27-17.53 6.58-34.05 9.79-50.25 9.75-16.24-.03-31.43-3.45-46.4-10.11-.22-3.93-.76-11.2-1.77-22.36-.97-11.3-2.4-25.67-4.17-44.2z"/><path fill="red" d="M23.86 254.29c-.5 1.23 3.17 2.8 11.16 4.9 8.1 2.05 22.21 7.6 36.65 7.3 14.26-.4 30.24-3.49 48.5-9.43l-.7 27.94a146.82 146.82 0 0 1-45.03 6.98c-15.51-.1-30.78-2.55-46.76-7.34-.33-6.7-.8-12.28-1.4-17.43-.6-5.17-1.5-9.34-2.4-12.94z"/></g></svg>