<svg xmlns="http://www.w3.org/2000/svg" version="1.0" viewBox="0 0 756.28 549.67"><path d="m465.83 426.07 57.12 15.3v42.08l-53.31 14.28-3.81-71.66z" style="stroke-width:1px" transform="translate(-88.92 -120.6)"/><path d="M268.11 404.31 232.87 298.6l-16.85 1.53 13.79-19.91H205.3l16.85-24.52-15.32 1.54-21.45-65.88" style="stroke:#000;stroke-width:2.5;fill:none" transform="translate(-136.4 -31.74)"/><path d="M119.5 124.71a11.5 11.5 0 1 1-22.99 0 11.5 11.5 0 0 1 22.99 0z" style="fill:#000" transform="translate(-59.8 34.14)"/><path d="M571.84 424.91c0 40.04-32.5 72.54-72.54 72.54s-72.54-32.5-72.54-72.54 32.5-72.54 72.54-72.54 72.54 32.5 72.54 72.54z" style="fill:#241f1c" transform="rotate(5.52 453.43 4236.73) scale(.45671)"/><path d="M571.84 424.91c0 40.04-32.5 72.54-72.54 72.54s-72.54-32.5-72.54-72.54 32.5-72.54 72.54-72.54 72.54 32.5 72.54 72.54z" style="fill:#ac9d93" transform="matrix(.24624 .02382 -.02382 .24624 503.19 62.08)"/><path d="M571.84 424.91c0 40.04-32.5 72.54-72.54 72.54s-72.54-32.5-72.54-72.54 32.5-72.54 72.54-72.54 72.54 32.5 72.54 72.54z" style="fill:#e3dedb" transform="rotate(5.52 -617.74 5479.61) scale(.19981)"/><path d="m659.74 402.92 44.42-7.58 27.08 55.25-9.2 11.37-21.68-46.58-34.12 5.42-6.5-17.88zM637.23 431.37l-3.22 44.94 57.63 21.57 10.42-10.27-48.47-17.02 2.06-34.5-18.42-4.72z" style="stroke-width:1px;fill:#fc0" transform="rotate(5.53 6391.84 -4749) scale(1.72974)"/><path d="M571.84 424.91c0 40.04-32.5 72.54-72.54 72.54s-72.54-32.5-72.54-72.54 32.5-72.54 72.54-72.54 72.54 32.5 72.54 72.54z" style="fill:#241f1c" transform="scale(.85596) rotate(5.53 1628.7 -1421.7)"/><path d="M571.84 424.91c0 40.04-32.5 72.54-72.54 72.54s-72.54-32.5-72.54-72.54 32.5-72.54 72.54-72.54 72.54 32.5 72.54 72.54z" style="fill:#ac9d93" transform="matrix(.4615 .04465 -.04465 .4615 63.71 21.4)"/><path d="M571.84 424.91c0 40.04-32.5 72.54-72.54 72.54s-72.54-32.5-72.54-72.54 32.5-72.54 72.54-72.54 72.54 32.5 72.54 72.54z" style="fill:#e3dedb" transform="rotate(5.53 -613.4 1112.54) scale(.37448)"/><path d="M571.84 424.91c0 40.04-32.5 72.54-72.54 72.54s-72.54-32.5-72.54-72.54 32.5-72.54 72.54-72.54 72.54 32.5 72.54 72.54z" style="fill:#241f1c" transform="scale(.76397) rotate(5.53 4173.6 747.53)"/><path d="M571.84 424.91c0 40.04-32.5 72.54-72.54 72.54s-72.54-32.5-72.54-72.54 32.5-72.54 72.54-72.54 72.54 32.5 72.54 72.54z" style="fill:#ac9d93" transform="matrix(.4119 .03985 -.03985 .4119 225.5 -160.44)"/><path d="M571.84 424.91c0 40.04-32.5 72.54-72.54 72.54s-72.54-32.5-72.54-72.54 32.5-72.54 72.54-72.54 72.54 32.5 72.54 72.54z" style="fill:#e3dedb" transform="rotate(5.53 1396.95 2650.12) scale(.33424)"/><path d="m441.3 447.83 53.2 32.64 39.3-98.5-41.38-23.88-51.12 89.74zM553.08 332.59l-10.96 48.1 90.42 46.96 17.25-28.26-96.7-66.8z" style="stroke-width:1px;fill:#fc0" transform="rotate(5.53 6391.84 -4749) scale(1.72974)"/><path d="m500.52 362.73-50.36 91.53 9.95 5.86 51.42-91.18-11.01-6.21zM515.52 370.92l-51.27 93.35 9.95 5.86 52.33-93-11.01-6.21zM649.34 400.42l-100.63-56.27-5.86 9.95 100.27 57.33 6.21-11.01zM641.16 415.42l-96.53-53.09-5.86 9.95 96.18 54.15 6.21-11.01z" style="stroke-width:1px;fill:#540" transform="rotate(5.53 6391.84 -4749) scale(1.72974)"/><path d="M245.38 400.48h224.14l43.32 145.65-306.9 1.15 39.43-146.8z" style="stroke-width:1px;fill:#fc0" transform="translate(-88.92 -120.6)"/><path d="m597.02 661.83 20.44-.48 20.79-21.8-.55-22.99-40.68 45.27z" style="stroke-width:1px;fill:#28170b" transform="translate(-88.92 -120.6)"/><path d="m634.39 622.1 9.16-18.28-9.5-28.58-20.57-10.3 20.9 57.16zM606.63 559.34l-3.69-20.1-24.79-17.12-22.62 4.15 51.1 33.07zM135.44 661.83l-20.44-.48-20.79-21.8.55-22.99 40.68 45.27z" style="stroke-width:1px;fill:#28170b" transform="translate(-88.92 -120.6)"/><path d="m98.07 622.1-9.15-18.28 9.5-28.58 20.56-10.3-20.9 57.16zM125.83 559.34l3.69-20.1 24.79-17.12 22.62 4.15-51.1 33.07zM127.3 655.82l14.46 14.46h30.11L188.14 654l-60.84 1.81zM544.12 655.82l14.46 14.46h30.11L604.96 654l-60.84 1.81z" style="stroke-width:1px;fill:#28170b" transform="translate(-88.92 -120.6)"/><path d="m180.3 655.82 14.46 14.46h30.11L241.14 654l-60.84 1.81zM256.6 655.82l14.46 14.46h30.11L317.44 654l-60.84 1.8zM330.49 655.82l14.46 14.46h30.11L391.33 654l-60.84 1.81zM401.97 655.82l14.46 14.46h30.11L462.81 654l-60.84 1.81zM477.46 655.82l14.46 14.46h30.11L538.3 654l-60.84 1.81z" style="stroke-width:1px;fill:#28170b" transform="translate(-88.92 -120.6)"/><path d="M528.66 516.94c-117.8.78-235.61-.23-353.41.56-30.74 19.5-62.72 42.1-77.44 76.5-7.07 19.6 1.44 42.11 17.47 54.44 19.12 16.31 46.23 19.4 70.34 14.92 34.37-1.23 68.78.2 103.16-.36 89.12.18 178.28-.91 267.36.77 24.8 4.56 54.1-.74 69.61-22.11 17.64-23.48 13.5-59.85-8.45-79.13-22.25-22.9-52.2-37.12-82.8-45.31-1.92-.31-3.9-.36-5.84-.28z" style="stroke-width:1px;fill:#28170b" transform="translate(-88.92 -120.6)"/><path d="M178.6 527.22s-91.59 53.58-70.1 96.35c21.74 43.27 75.81 29.36 75.81 29.36h368.57s60.64 15.36 72.76-35.27c14.25-59.48-89.9-90.44-89.9-90.44H178.6z" style="stroke-width:1px;fill:#520" transform="translate(-88.92 -120.6)"/><path d="M324.94 404.88c0 29.02-23.55 52.56-52.56 52.56s-52.57-23.55-52.57-52.56 23.55-52.56 52.57-52.56 52.56 23.55 52.56 52.56z" style="fill:#2b1100" transform="scale(.84822) rotate(-20.65 878.26 -334.48)"/><path d="M324.94 404.88c0 29.02-23.55 52.56-52.56 52.56s-52.57-23.55-52.57-52.56 23.55-52.56 52.57-52.56 52.56 23.55 52.56 52.56z" style="fill:#2b1100" transform="scale(.84822) rotate(-20.65 640.98 1004.52)"/><path d="M324.94 404.88c0 29.02-23.55 52.56-52.56 52.56s-52.57-23.55-52.57-52.56 23.55-52.56 52.57-52.56 52.56 23.55 52.56 52.56z" style="fill:#2b1100" transform="translate(-95.44 127) scale(.84822)"/><path d="m160.38 567.78-9.34.75c-1.62.13-2.72 2.76-2.47 5.88l.53 6.43a26.46 26.46 0 0 0-5.1 2.72l-5-4.25c-2.37-2.02-5.13-2.67-6.18-1.44l-6.07 7.13c-1.05 1.24.02 3.89 2.4 5.91l5.32 4.53a26.4 26.4 0 0 0-1.5 5.13l-7.13.56c-3.11.25-5.5 1.76-5.37 3.37l.75 9.35c.13 1.61 2.73 2.72 5.84 2.47l7.5-.6c.63 1.52 1.4 2.98 2.31 4.38l-4.9 5.78c-2.03 2.38-2.68 5.14-1.44 6.19l7.15 6.06c1.24 1.05 3.86 0 5.88-2.38l5.03-5.9c1.5.64 3 1.11 4.56 1.47l.63 7.72c.25 3.1 1.76 5.53 3.37 5.4l9.35-.75c1.61-.13 2.72-2.76 2.47-5.87l-.6-7.5a26.27 26.27 0 0 0 4.5-2.22l5.66 4.81c2.38 2.02 5.14 2.67 6.19 1.44l6.09-7.13c1.05-1.23-.03-3.88-2.4-5.9l-5.38-4.57c.77-1.64 1.4-3.35 1.81-5.09l6.88-.56c3.11-.25 5.5-1.76 5.37-3.38l-.75-9.34c-.13-1.62-2.76-2.72-5.87-2.47l-6.5.53a26.46 26.46 0 0 0-2.53-5.22l4.15-4.87c2.03-2.38 2.64-5.14 1.4-6.19l-7.12-6.06c-1.23-1.05-3.85 0-5.87 2.37l-4.07 4.78a26.27 26.27 0 0 0-5.68-1.84l-.5-6.22c-.25-3.11-1.76-5.54-3.38-5.4z" style="fill:#d45500" transform="translate(-88.92 -120.6)"/><path d="M324.94 404.88c0 29.02-23.55 52.56-52.56 52.56s-52.57-23.55-52.57-52.56 23.55-52.56 52.57-52.56 52.56 23.55 52.56 52.56z" style="fill:#2b1100" transform="scale(.84822) rotate(-20.65 657.95 545.38)"/><path d="M324.94 404.88c0 29.02-23.55 52.56-52.56 52.56s-52.57-23.55-52.57-52.56 23.55-52.56 52.57-52.56 52.56 23.55 52.56 52.56z" style="fill:#2b1100" transform="scale(.84822) rotate(-20.65 696.94 324.07)"/><path d="M324.94 404.88c0 29.02-23.55 52.56-52.56 52.56s-52.57-23.55-52.57-52.56 23.55-52.56 52.57-52.56 52.56 23.55 52.56 52.56z" style="fill:#2b1100" transform="scale(.84822) rotate(-20.65 743 98.02)"/><path d="M324.94 404.88c0 29.02-23.55 52.56-52.56 52.56s-52.57-23.55-52.57-52.56 23.55-52.56 52.57-52.56 52.56 23.55 52.56 52.56z" style="fill:#2b1100" transform="matrix(.79371 -.29916 .29916 .79371 80.43 227.62)"/><path d="M162.67 587.19v37.88a19.43 19.43 0 0 0 0-37.88zm-9.38.19a19.43 19.43 0 0 0 0 37.5v-37.5z" style="fill:#d4aa00" transform="translate(-88.92 -120.6)"/><path d="m233.82 554.72-9.33-.9c-1.61-.15-3.16 2.24-3.46 5.35l-.6 6.43c-1.87.4-3.72.98-5.5 1.79l-4.18-5.06c-1.98-2.41-4.59-3.53-5.84-2.5l-7.21 5.95c-1.25 1.03-.66 3.83 1.33 6.24l4.44 5.39a26.39 26.39 0 0 0-2.38 4.78l-7.11-.7c-3.11-.3-5.73.77-5.88 2.39l-.9 9.33c-.16 1.61 2.2 3.15 5.32 3.45l7.49.73c.35 1.6.84 3.18 1.5 4.71l-5.84 4.84c-2.4 1.98-3.53 4.59-2.5 5.84l5.99 7.22c1.03 1.25 3.79.68 6.2-1.31l5.98-4.93c1.36.89 2.77 1.62 4.24 2.24l-.74 7.71c-.3 3.11.76 5.76 2.38 5.92l9.33.9c1.61.15 3.16-2.25 3.46-5.36l.73-7.48c1.64-.3 3.24-.78 4.82-1.4l4.72 5.73c1.99 2.4 4.6 3.53 5.84 2.5l7.25-5.95c1.25-1.03.65-3.82-1.33-6.23l-4.5-5.44a26.47 26.47 0 0 0 2.68-4.7l6.87.66c3.1.3 5.73-.77 5.88-2.39l.9-9.33c.16-1.6-2.24-3.16-5.35-3.46l-6.5-.61c-.32-1.9-.83-3.78-1.57-5.58l4.95-4.07c2.4-2 3.5-4.6 2.46-5.85l-5.95-7.22c-1.03-1.25-3.79-.68-6.2 1.31l-4.84 4a26.27 26.27 0 0 0-5.27-2.82l.6-6.2c.3-3.12-.77-5.76-2.38-5.92z" style="fill:#d45500" transform="translate(-88.92 -120.6)"/><path d="m243.85 589.46-35.68 12.7a19.43 19.43 0 0 0 35.68-12.7zm-3.32-8.77a19.43 19.43 0 0 0-35.33 12.58l35.33-12.58z" style="fill:#d4aa00" transform="translate(-88.92 -120.6)"/><path d="m449.78 551.67-9.14-2.08c-1.58-.35-3.42 1.83-4.11 4.87l-1.42 6.3c-1.9.16-3.81.5-5.67 1.08l-3.5-5.55c-1.67-2.65-4.1-4.09-5.48-3.22l-7.91 4.98c-1.37.87-1.14 3.72.53 6.36l3.71 5.91a26.39 26.39 0 0 0-2.96 4.44l-6.97-1.59c-3.04-.69-5.78.04-6.14 1.62l-2.07 9.14c-.36 1.58 1.79 3.4 4.84 4.1l7.33 1.67c.15 1.64.44 3.26.9 4.87l-6.4 4.05c-2.65 1.67-4.1 4.1-3.23 5.48l5.02 7.92c.86 1.37 3.67 1.15 6.31-.51l6.57-4.13a26.07 26.07 0 0 0 3.92 2.76l-1.71 7.55c-.7 3.05.02 5.81 1.6 6.17l9.14 2.08c1.58.36 3.42-1.82 4.11-4.87l1.68-7.34c1.66-.09 3.31-.36 4.96-.77l3.95 6.28c1.67 2.65 4.1 4.09 5.48 3.23l7.94-4.98c1.38-.87 1.14-3.72-.53-6.36l-3.76-5.96a26.47 26.47 0 0 0 3.25-4.32l6.73 1.52c3.04.7 5.78-.03 6.14-1.61l2.07-9.15c.36-1.58-1.82-3.42-4.87-4.1l-6.36-1.44a26.45 26.45 0 0 0-.85-5.74l5.42-3.4c2.64-1.68 4.05-4.12 3.19-5.5l-4.99-7.9c-.86-1.38-3.67-1.16-6.31.5l-5.3 3.35a26.27 26.27 0 0 0-4.89-3.46l1.39-6.08c.69-3.05-.03-5.81-1.61-6.17z" style="fill:#d45500" transform="translate(-88.92 -120.6)"/><path d="m455.3 586.52-35.68 12.7a19.43 19.43 0 0 0 35.68-12.7zm-3.32-8.77a19.43 19.43 0 0 0-35.33 12.58l35.33-12.58z" style="fill:#d4aa00" transform="translate(-88.92 -120.6)"/><path d="m309.67 551.67-9.14-2.08c-1.58-.35-3.42 1.83-4.11 4.87l-1.42 6.3c-1.9.16-3.81.5-5.67 1.08l-3.5-5.55c-1.67-2.65-4.1-4.09-5.48-3.22l-7.91 4.98c-1.37.87-1.14 3.72.53 6.36l3.71 5.91a26.39 26.39 0 0 0-2.96 4.44l-6.97-1.59c-3.04-.69-5.78.04-6.14 1.62l-2.07 9.14c-.36 1.58 1.79 3.4 4.84 4.1l7.33 1.67c.15 1.64.44 3.26.9 4.87l-6.4 4.05c-2.65 1.67-4.1 4.1-3.23 5.48l5.02 7.92c.86 1.37 3.67 1.15 6.31-.51l6.57-4.13a26.07 26.07 0 0 0 3.92 2.76l-1.71 7.55c-.7 3.05.02 5.81 1.6 6.17l9.14 2.08c1.58.36 3.42-1.82 4.11-4.87l1.68-7.34c1.66-.09 3.31-.36 4.96-.77l3.95 6.28c1.67 2.65 4.1 4.09 5.48 3.23l7.94-4.98c1.38-.87 1.14-3.72-.53-6.36l-3.76-5.96a26.47 26.47 0 0 0 3.25-4.32l6.73 1.52c3.04.7 5.78-.03 6.14-1.61l2.07-9.15c.36-1.58-1.82-3.42-4.87-4.1l-6.36-1.44a26.45 26.45 0 0 0-.85-5.74l5.42-3.4c2.64-1.68 4.05-4.12 3.19-5.5l-4.99-7.9c-.86-1.38-3.67-1.16-6.31.5l-5.3 3.35a26.27 26.27 0 0 0-4.89-3.46l1.39-6.08c.69-3.05-.03-5.81-1.61-6.17z" style="fill:#d45500" transform="translate(-88.92 -120.6)"/><path d="m308.84 602.37-28.82-24.57a19.43 19.43 0 0 0 28.82 24.57zm5.94-7.26a19.43 19.43 0 0 0-28.54-24.33l28.54 24.33z" style="fill:#d4aa00" transform="translate(-88.92 -120.6)"/><path d="m379.36 551.67-9.14-2.08c-1.58-.35-3.42 1.83-4.11 4.87l-1.42 6.3c-1.9.16-3.81.5-5.67 1.08l-3.5-5.55c-1.67-2.65-4.1-4.09-5.48-3.22l-7.91 4.98c-1.37.87-1.14 3.72.53 6.36l3.71 5.91a26.39 26.39 0 0 0-2.96 4.44l-6.97-1.59c-3.04-.69-5.78.04-6.14 1.62l-2.07 9.14c-.36 1.58 1.79 3.4 4.84 4.1l7.33 1.67c.15 1.64.44 3.26.9 4.87l-6.4 4.05c-2.65 1.67-4.1 4.1-3.23 5.48l5.02 7.92c.86 1.37 3.67 1.15 6.31-.51l6.57-4.13a26.07 26.07 0 0 0 3.92 2.76l-1.71 7.55c-.7 3.05.02 5.81 1.6 6.17l9.14 2.08c1.58.36 3.42-1.82 4.11-4.87l1.68-7.34c1.66-.09 3.31-.36 4.96-.77l3.95 6.28c1.67 2.65 4.1 4.09 5.48 3.23l7.94-4.98c1.38-.87 1.14-3.72-.53-6.36l-3.76-5.96a26.47 26.47 0 0 0 3.25-4.32l6.73 1.52c3.04.7 5.78-.03 6.14-1.61l2.07-9.15c.36-1.58-1.82-3.42-4.87-4.1l-6.36-1.44a26.45 26.45 0 0 0-.85-5.74l5.42-3.4c2.64-1.68 4.05-4.12 3.19-5.5l-4.99-7.9c-.86-1.38-3.67-1.16-6.31.5l-5.3 3.35a26.27 26.27 0 0 0-4.89-3.46l1.39-6.08c.69-3.05-.03-5.81-1.61-6.17z" style="fill:#d45500" transform="translate(-88.92 -120.6)"/><path d="m361.55 607.64.8-37.87a19.43 19.43 0 0 0-.8 37.87zm9.38.01a19.43 19.43 0 0 0 .79-37.5l-.8 37.5z" style="fill:#d4aa00" transform="translate(-88.92 -120.6)"/><path d="m518.73 551.67-9.14-2.08c-1.58-.35-3.42 1.83-4.11 4.87l-1.42 6.3c-1.9.16-3.81.5-5.67 1.08l-3.5-5.55c-1.67-2.65-4.1-4.09-5.48-3.22l-7.91 4.98c-1.37.87-1.14 3.72.53 6.36l3.71 5.91a26.39 26.39 0 0 0-2.96 4.44l-6.97-1.59c-3.04-.69-5.78.04-6.14 1.62l-2.07 9.14c-.36 1.58 1.79 3.4 4.84 4.1l7.33 1.67c.15 1.64.44 3.26.9 4.87l-6.4 4.05c-2.65 1.67-4.1 4.1-3.23 5.48l5.02 7.92c.86 1.37 3.67 1.15 6.31-.51l6.57-4.13a26.07 26.07 0 0 0 3.92 2.76l-1.71 7.55c-.7 3.05.02 5.81 1.6 6.17l9.14 2.08c1.58.36 3.42-1.82 4.11-4.87l1.68-7.34c1.66-.09 3.31-.36 4.96-.77l3.95 6.28c1.67 2.65 4.1 4.09 5.48 3.23l7.94-4.98c1.38-.87 1.14-3.72-.53-6.36l-3.76-5.96a26.47 26.47 0 0 0 3.25-4.32l6.73 1.52c3.04.7 5.78-.03 6.14-1.61l2.07-9.15c.36-1.58-1.82-3.42-4.87-4.1l-6.36-1.44a26.45 26.45 0 0 0-.85-5.74l5.42-3.4c2.64-1.68 4.05-4.12 3.19-5.5l-4.99-7.9c-.86-1.38-3.67-1.16-6.31.5l-5.3 3.35a26.27 26.27 0 0 0-4.89-3.46l1.39-6.08c.69-3.05-.03-5.81-1.61-6.17z" style="fill:#d45500" transform="translate(-88.92 -120.6)"/><path d="m500.35 606.17.8-37.87a19.43 19.43 0 0 0-.8 37.87zm9.38.01a19.43 19.43 0 0 0 .79-37.5l-.8 37.5z" style="fill:#d4aa00" transform="translate(-88.92 -120.6)"/><path d="m603.08 578.77-7.27-5.91c-1.26-1.03-3.88.11-5.85 2.54l-4.06 5.02a26.46 26.46 0 0 0-5.56-1.56l-.68-6.52c-.32-3.11-1.87-5.48-3.48-5.32l-9.3.97c-1.62.16-2.67 2.82-2.35 5.93l.71 6.94a26.39 26.39 0 0 0-4.62 2.67l-5.54-4.51c-2.43-1.97-5.2-2.54-6.22-1.28l-5.91 7.28c-1.02 1.25.1 3.85 2.52 5.82l5.83 4.75a26.28 26.28 0 0 0-1.35 4.76l-7.54.8c-3.11.31-5.49 1.86-5.32 3.47l.99 9.33c.16 1.6 2.78 2.66 5.88 2.34l7.72-.8c.64 1.5 1.4 2.89 2.29 4.22l-4.89 6.01c-1.97 2.43-2.55 5.22-1.3 6.24l7.28 5.92c1.26 1.02 3.88-.12 5.85-2.55l4.75-5.83c1.53.66 3.13 1.15 4.78 1.5l.77 7.4c.32 3.1 1.87 5.48 3.48 5.3l9.33-.93c1.6-.17 2.66-2.83 2.34-5.93l-.74-7.02c1.7-.65 3.33-1.46 4.83-2.43l5.36 4.35c2.43 1.97 5.2 2.53 6.22 1.27l5.91-7.27c1.03-1.26-.11-3.88-2.54-5.85l-5.06-4.1c.77-1.76 1.4-3.6 1.77-5.52l6.38-.66c3.1-.32 5.45-1.89 5.29-3.5l-.96-9.3c-.17-1.62-2.78-2.67-5.9-2.35l-6.23.65a26.27 26.27 0 0 0-2.84-5.26l3.93-4.84c1.97-2.42 2.56-5.22 1.3-6.24z" style="fill:#d45500" transform="translate(-88.92 -120.6)"/><path d="m594.57 610.3-37.88.13a19.43 19.43 0 0 0 37.88-.13zm-.22-9.37a19.43 19.43 0 0 0-37.5.13l37.5-.13z" style="fill:#d4aa00" transform="translate(-88.92 -120.6)"/><path d="m180.3 522.3 14.46-14.46h30.11l16.27 16.27-60.84-1.81zM256.6 522.3l14.46-14.46h30.11l16.27 16.27-60.84-1.8zM330.49 522.3l14.46-14.46h30.11l16.27 16.27-60.84-1.81zM401.97 522.3l14.46-14.46h30.11l16.27 16.27-60.84-1.81zM477.46 522.3l14.46-14.46h30.11l16.27 16.27-60.84-1.81z" style="stroke-width:1px;fill:#28170b" transform="translate(-88.92 -120.6)"/><path d="m300.6 415.69-6.84 21.67h114.07l-6.85-26.23.67 21.76-101.57-.33.52-16.87zM300.6 446.71l-6.84 21.67h114.07l-6.85-26.23.67 21.76-101.57-.33.52-16.87zM300.6 476.79l-6.84 21.67h114.07l-6.85-26.23.67 21.76-101.57-.33.52-16.87z" style="stroke-width:1px" transform="translate(-73.6 -24.42) scale(.80704)"/></svg>