<?xml version="1.0" encoding="utf-8"?>
<!-- Generator: Adobe Illustrator 26.5.0, SVG Export Plug-In . SVG Version: 6.00 Build 0)  -->
<svg version="1.1" id="Layer_1" xmlns="http://www.w3.org/2000/svg" xmlns:xlink="http://www.w3.org/1999/xlink" x="0px" y="0px"
	 viewBox="0 0 108 162" style="enable-background:new 0 0 108 162;" xml:space="preserve">
<style type="text/css">
	.st0{fill:#FFFFFF;}
	.st1{fill-rule:evenodd;clip-rule:evenodd;fill:#FFFFFF;}
</style>
<g>
	<path class="st0" d="M55.85,30.61c1.97-7.12,3.71-13.78,5.77-21.61c0.56-2.9-2.11-3.5-2.88-1.43c-0.89,2.39-2.89,11.91-3.6,13.8
		c-1.04-1.4-2.9-1.75-4.82-7.67C48.33,7.58,41.04,6.93,25.76,0c-1.14,7.63,0.66,11.74,4.85,17.35c5.46,7.31,12.41,8.65,22.57,9.45
		c-0.42,1.5-2.34,5.24-1.89,3.89C41.92,28.47,10.83,22.85,0,45.37c3.94,0.75,4.79,1.09,10.79,5.09c15.59-7.84,24.5,1.33,32.04,9.84
		c4.8-4.67,21.31-11.06,29.46-7.03C83.1,43.79,96.92,41.57,108,43.5C99.95,26.96,65.72,27.51,55.85,30.61z"/>
	<path class="st0" d="M9.9,137.19c8.78,1.91,15.25,6.18,27.39-0.73c6.57,8.15,21.82,11.66,31.53,3.99
		c10.01,5.46,17.76,4.89,29.45-2.66c-27.26-12.75-24.59-32.98-20.43-44.74c-4.37-4.81-6.47-22.97,12.48-45.02
		c-8.13,1.42-13.9,6.87-17.44,10.65c-6.28-3.89-20.34-1.44-30.16,6.89C26.84,47.35,24,51.1,17.11,51.19
		C45.67,77.12,33.1,94.53,33.1,94.53C47,116.42,27.43,130.58,9.9,137.19z M58.96,94.23c4.37,2.71,9.14,9.94,2.98,11.56
		C56.79,105.99,58.69,98.1,58.96,94.23z M51.03,84.46c3.37-3.35,7.49,6.09,4.59,11.05C52.75,93.57,47.95,87.65,51.03,84.46z
		 M53.2,97.73c1.27,3.55,0.96,12.74-2.54,11.65C44.67,107.58,48.94,100.59,53.2,97.73z"/>
	<path class="st1" d="M105.28,136.42c-11.01,8.35-25.03,16.22-36.75,8.42c-7.05,5.49-25.35,4.94-32.17-3.94
		c-9.26,7.21-25.82,0.03-32.23-1.88C3.49,140.85,12,152,19.68,156.46c8.04,4.67,16.43,6.92,26.3,4.65c7.4-1.69,14.85-1.15,22.4-0.14
		c4.92,0.65,10.45,1.3,15.01,0.14c6.78-1.73,11.07-4.1,14.91-9.49C103.16,145.07,105.65,138.1,105.28,136.42z"/>
</g>
</svg>
