<?xml version="1.0" encoding="utf-8"?>
<!-- Generator: Adobe Illustrator 26.5.0, SVG Export Plug-In . SVG Version: 6.00 Build 0)  -->
<svg version="1.1" id="Layer_1" xmlns="http://www.w3.org/2000/svg" xmlns:xlink="http://www.w3.org/1999/xlink" x="0px" y="0px"
	 viewBox="0 0 3.5 2.7" style="enable-background:new 0 0 3.5 2.7;" xml:space="preserve">
<style type="text/css">
	.st0{fill:#FFFFFF;}
</style>
<path class="st0" d="M3.39,0.5H0.11C0.05,0.5,0,0.45,0,0.39V0.11C0,0.05,0.05,0,0.11,0h3.28C3.45,0,3.5,0.05,3.5,0.11v0.28
	C3.5,0.45,3.45,0.5,3.39,0.5z"/>
<path class="st0" d="M3.39,1.6H0.11C0.05,1.6,0,1.55,0,1.49V1.21C0,1.15,0.05,1.1,0.11,1.1h3.28c0.06,0,0.11,0.05,0.11,0.11v0.28
	C3.5,1.55,3.45,1.6,3.39,1.6z"/>
<path class="st0" d="M3.39,2.7H0.11C0.05,2.7,0,2.65,0,2.59V2.31C0,2.25,0.05,2.2,0.11,2.2h3.28c0.06,0,0.11,0.05,0.11,0.11v0.28
	C3.5,2.65,3.45,2.7,3.39,2.7z"/>
</svg>
