<?xml version="1.0" encoding="utf-8"?>
<!-- Generator: Adobe Illustrator 26.5.0, SVG Export Plug-In . SVG Version: 6.00 Build 0)  -->
<svg version="1.1" id="Layer_1" xmlns="http://www.w3.org/2000/svg" xmlns:xlink="http://www.w3.org/1999/xlink" x="0px" y="0px"
	 viewBox="0 0 148.5 144.83" style="enable-background:new 0 0 148.5 144.83;" xml:space="preserve">
<style type="text/css">
	.st0{fill:#FFFFFF;}
</style>
<g>
	<g>
		<path class="st0" d="M95.92,84.9l-17.11,30.12l17.39,29.81l-0.05-13.11l14.48-0.25c9.05-0.24,13.99-7.21,13.99-7.21l21.89-37.47
			c4.68-10.53-0.33-17.68-0.33-17.68l-15.21-26.05l-30.1,17.41L120.2,93.9c0.7,1.76-0.42,3.19-2.53,3.16l-21.65,0.16L95.92,84.9z"/>
		<path class="st0" d="M52.1,80.4L34.51,50.56L0,50.79l11.4,6.48L4.4,69.95c-4.3,7.97-0.72,15.72-0.72,15.72l21.58,37.65
			c6.8,9.31,15.49,8.52,15.49,8.52l30.17-0.21l-0.1-34.77l-38.62,0.12c-1.88-0.27-2.55-1.96-1.48-3.76l10.65-18.85L52.1,80.4z"/>
		<path class="st0" d="M77.93,44.73l34.64-0.26l17.1-29.98l-11.32,6.61L110.89,8.7C106.15,1,97.64,0,97.64,0L54.25,0
			C42.78,1.22,39.11,9.13,39.11,9.13L24.17,35.34L54.3,52.68l19.26-33.47c1.17-1.49,2.97-1.23,4,0.6l10.97,18.66L77.93,44.73z"/>
	</g>
</g>
</svg>
