<?xml version="1.0" encoding="utf-8"?>
<!-- Generator: Adobe Illustrator 26.5.0, SVG Export Plug-In . SVG Version: 6.00 Build 0)  -->
<svg version="1.1" id="Layer_1" xmlns="http://www.w3.org/2000/svg" xmlns:xlink="http://www.w3.org/1999/xlink" x="0px" y="0px"
	 viewBox="0 0 108 148.5" style="enable-background:new 0 0 108 148.5;" xml:space="preserve">
<style type="text/css">
	.st0{fill:#FFFFFF;}
</style>
<g>
	<path class="st0" d="M100.98,7.76c-0.42-0.61-1.88-0.79-2.87-0.81C96,6.92,82.93,6.9,68.41,6.89c0-0.92-0.05-1.84-0.05-2.58
		c0-2.38-2.05-4.31-4.57-4.31H44.46c-2.52,0-4.57,1.93-4.57,4.31c0,0.73-0.06,1.65-0.06,2.57c-8.51,0-14.56,0-14.85,0
		C19.94,6.95,14.9,6.85,9.86,6.96C8.8,6.99,7.28,7.34,6.8,8.04c-3.05,4.42-2.3,3.71-5.47,8.65c37.67,0,67.84,0,105.58,0
		C103.67,11.64,104.09,12.27,100.98,7.76z M43.04,4c0-1.06,1.59-1.91,3.56-1.91h15.06c1.97,0,3.56,0.85,3.56,1.91
		c0,0.92,0.33,2.5-0.9,2.89c-7.02,0-14.17-0.01-20.41-0.01C42.69,6.48,43.04,4.91,43.04,4z"/>
	<g>
		<path class="st0" d="M107.99,41.25c0-2.03,0.26-3.68-2.19-3.68h-5.29c0.26-6.56,0.42-11.88,0.45-15.64c-31.33,0-62.79,0-93.93,0
			C7.06,25.66,7.22,31,7.47,37.57H2.2c-2.48,0-2.19,1.65-2.19,3.68c0,2.03-0.25,3.68,2.19,3.68h5.57
			c1.06,24.89,3.1,62.51,4.94,99.78c0,3.7,30.34,3.78,41.17,3.78c10.82,0,41.08,0.04,41.06-3.87c2.03-37.63,4.15-74.96,5.25-99.7
			h5.6C108.31,44.93,107.99,43.28,107.99,41.25z M25.66,133.43c-0.52,0.67-2.21,0.83-3.03,0.39c-0.76-0.4-1.42-1.88-1.49-2.92
			c-0.52-7.45-0.89-14.92-1.3-22.38c-0.45-8.03-0.89-16.06-1.34-24.09c-0.84-15.15-1.67-30.31-2.53-45.46
			c-0.11-1.91-0.19-3.78,2.06-4.1c1.71-0.25,3.08,0.24,3.19,2.57c0.03,0.56,0.07,1.12,0.1,1.69c1.73,31.17,3.31,59.45,5,90.58
			C26.38,130.98,26.31,132.6,25.66,133.43z M40.72,133.57c-0.54,0.65-2.23,0.77-3.04,0.32c-0.75-0.42-1.37-1.91-1.42-2.96
			c-0.32-7.46-0.48-14.94-0.68-22.41c-0.22-8.04-0.45-16.07-0.67-24.11c-0.42-15.17-0.83-30.34-1.27-45.51
			c-0.06-1.92-0.08-3.78,2.18-4.05c1.72-0.21,3.07,0.32,3.12,2.65c0.01,0.57,0.04,1.13,0.06,1.7c0.87,31.2,1.66,59.51,2.48,90.67
			C41.51,131.13,41.4,132.75,40.72,133.57z M56.63,129.96c0,1.27-0.16,2.88-0.86,3.68c-0.56,0.64-2.25,0.72-3.05,0.24
			c-0.73-0.44-1.31-1.94-1.33-2.99c-0.11-7.47-0.06-14.95-0.06-22.42c0-8.04,0-16.08,0-24.12c0-15.17,0.01-30.35-0.01-45.52
			c0-1.92,0.03-3.78,2.29-3.99c1.73-0.17,3.06,0.39,3.04,2.72c0,0.57,0.01,1.13,0.01,1.7C56.66,70.47,56.67,98.79,56.63,129.96z
			 M74.31,39.32c-0.87,31.2-1.64,59.51-2.55,90.67c-0.04,1.26-0.24,2.88-0.96,3.66c-0.57,0.62-2.27,0.66-3.05,0.17
			c-0.72-0.46-1.25-1.98-1.24-3.02c0.09-7.47,0.35-14.94,0.56-22.41c0.22-8.04,0.45-16.07,0.67-24.11
			c0.42-15.17,0.85-30.34,1.25-45.51c0.05-1.92,0.13-3.78,2.4-3.94c1.73-0.12,3.05,0.47,2.97,2.8
			C74.33,38.19,74.33,38.75,74.31,39.32z M91.99,39.38c-1.73,31.17-3.29,59.45-5.07,90.58c-0.07,1.26-0.32,2.87-1.06,3.63
			c-0.59,0.61-2.29,0.6-3.06,0.09c-0.71-0.47-1.2-2-1.16-3.05c0.3-7.46,0.76-14.92,1.18-22.39c0.44-8.03,0.89-16.06,1.34-24.09
			c0.84-15.15,1.69-30.3,2.52-45.46c0.1-1.92,0.24-3.77,2.51-3.88c1.73-0.08,3.04,0.54,2.88,2.87
			C92.04,38.25,92.02,38.82,91.99,39.38z"/>
	</g>
</g>
</svg>
