<svg xmlns="http://www.w3.org/2000/svg" xmlns:xlink="http://www.w3.org/1999/xlink" version="1.0" viewBox="0 0 545.84 227.87"><defs><linearGradient id="a"><stop offset="0" style="stop-color:#909090"/><stop offset=".5" style="stop-color:#ddd"/><stop offset="1" style="stop-color:#000"/></linearGradient><linearGradient xlink:href="#a" id="c" x1="210.05" x2="421.3" y1="359.4" y2="359.4" gradientTransform="rotate(46.99 531.77 -62.25)" gradientUnits="userSpaceOnUse"/><linearGradient xlink:href="#a" id="d" x1="210.05" x2="421.3" y1="359.4" y2="359.4" gradientTransform="rotate(46.99 569.44 49.84)" gradientUnits="userSpaceOnUse"/><linearGradient xlink:href="#a" id="e" x1="210.05" x2="421.3" y1="359.4" y2="359.4" gradientTransform="rotate(46.99 611.47 165.59)" gradientUnits="userSpaceOnUse"/><linearGradient xlink:href="#a" id="f" x1="210.05" x2="421.3" y1="359.4" y2="359.4" gradientTransform="rotate(46.99 652.98 280.16)" gradientUnits="userSpaceOnUse"/><linearGradient xlink:href="#a" id="g" x1="210.05" x2="421.3" y1="359.4" y2="359.4" gradientTransform="rotate(46.99 688.95 390.72)" gradientUnits="userSpaceOnUse"/><clipPath id="b" clipPathUnits="userSpaceOnUse"><path d="M-23.8-15.01h551v269h-551z" style="stroke:#000;stroke-miterlimit:10;stroke-width:.2;fill:#fff"/></clipPath></defs><g clip-path="url(#b)" transform="translate(23.8 -2.12)"><path d="m404.27 372.67 25.19 1.82.04 6.68-25.19-1.81-.04-6.69z" style="stroke:#000;stroke-miterlimit:10;stroke-width:.2;fill:#283644" transform="translate(-510.11 -185.92)"/><path d="m490.91 288.57 25.19 1.81-86.57 83.98-25.19-1.81 86.57-83.98z" style="stroke:#000;stroke-miterlimit:10;stroke-width:.2;fill:#3e546a" transform="translate(-510.11 -185.92)"/><path d="m404.27 372.67 25.19 1.82.04 6.68-25.19-1.81-.04-6.69z" style="stroke:#000;stroke-miterlimit:10;stroke-width:.2;fill:#283644" transform="translate(-484.91 -184.11)"/><path d="m490.91 288.57 25.19 1.81-86.57 83.98-25.19-1.81 86.57-83.98z" style="stroke:#000;stroke-miterlimit:10;stroke-width:.2;fill:#3e546a" transform="translate(-484.91 -184.11)"/><path d="m404.27 372.67 25.19 1.82.04 6.68-25.19-1.81-.04-6.69z" style="stroke:#000;stroke-miterlimit:10;stroke-width:.2;fill:#283644" transform="translate(-459.73 -182.27)"/><path d="m490.91 288.57 25.19 1.81-86.57 83.98-25.19-1.81 86.57-83.98z" style="stroke:#000;stroke-miterlimit:10;stroke-width:.2;fill:#3e546a" transform="translate(-459.73 -182.27)"/><path d="m404.27 372.67 25.19 1.82.04 6.68-25.19-1.81-.04-6.69z" style="stroke:#000;stroke-miterlimit:10;stroke-width:.2;fill:#283644" transform="translate(-434.54 -180.46)"/><path d="m490.91 288.57 25.19 1.81-86.57 83.98-25.19-1.81 86.57-83.98z" style="stroke:#000;stroke-miterlimit:10;stroke-width:.2;fill:#3e546a" transform="translate(-434.54 -180.46)"/><path d="m404.27 372.67 25.19 1.82.04 6.68-25.19-1.81-.04-6.69z" style="stroke:#000;stroke-miterlimit:10;stroke-width:.2;fill:#283644" transform="translate(-409.36 -178.62)"/><path d="m490.91 288.57 25.19 1.81-86.57 83.98-25.19-1.81 86.57-83.98z" style="stroke:#000;stroke-miterlimit:10;stroke-width:.2;fill:#3e546a" transform="translate(-409.36 -178.62)"/><path d="m404.27 372.67 25.19 1.82.04 6.68-25.19-1.81-.04-6.69z" style="stroke:#000;stroke-miterlimit:10;stroke-width:.2;fill:#283644" transform="translate(-384.16 -176.81)"/><path d="m490.91 288.57 25.19 1.81-86.57 83.98-25.19-1.81 86.57-83.98z" style="stroke:#000;stroke-miterlimit:10;stroke-width:.2;fill:#3e546a" transform="translate(-384.16 -176.81)"/><path d="m404.27 372.67 25.19 1.82.04 6.68-25.19-1.81-.04-6.69z" style="stroke:#000;stroke-miterlimit:10;stroke-width:.2;fill:#283644" transform="translate(-358.98 -174.98)"/><path d="m490.91 288.57 25.19 1.81-86.57 83.98-25.19-1.81 86.57-83.98z" style="stroke:#000;stroke-miterlimit:10;stroke-width:.2;fill:#3e546a" transform="translate(-358.98 -174.98)"/><path d="m404.27 372.67 25.19 1.82.04 6.68-25.19-1.81-.04-6.69z" style="stroke:#000;stroke-miterlimit:10;stroke-width:.2;fill:#283644" transform="translate(-333.79 -173.17)"/><path d="m490.91 288.57 25.19 1.81-86.57 83.98-25.19-1.81 86.57-83.98z" style="stroke:#000;stroke-miterlimit:10;stroke-width:.2;fill:#3e546a" transform="translate(-333.79 -173.17)"/><path d="m404.27 372.67 25.19 1.82.04 6.68-25.19-1.81-.04-6.69z" style="stroke:#000;stroke-miterlimit:10;stroke-width:.2;fill:#283644" transform="translate(-308.61 -171.33)"/><path d="m490.91 288.57 25.19 1.81-86.57 83.98-25.19-1.81 86.57-83.98z" style="stroke:#000;stroke-miterlimit:10;stroke-width:.2;fill:#3e546a" transform="translate(-308.61 -171.33)"/><path d="m404.27 372.67 25.19 1.82.04 6.68-25.19-1.81-.04-6.69z" style="stroke:#000;stroke-miterlimit:10;stroke-width:.2;fill:#283644" transform="translate(-283.4 -169.52)"/><path d="m490.91 288.57 25.19 1.81-86.57 83.98-25.19-1.81 86.57-83.98z" style="stroke:#000;stroke-miterlimit:10;stroke-width:.2;fill:#3e546a" transform="translate(-283.4 -169.52)"/><path d="m404.27 372.67 25.19 1.82.04 6.68-25.19-1.81-.04-6.69z" style="stroke:#000;stroke-miterlimit:10;stroke-width:.2;fill:#283644" transform="translate(-258.22 -167.69)"/><path d="m490.91 288.57 25.19 1.81-86.57 83.98-25.19-1.81 86.57-83.98z" style="stroke:#000;stroke-miterlimit:10;stroke-width:.2;fill:#3e546a" transform="translate(-258.22 -167.69)"/><path d="m404.27 372.67 25.19 1.82.04 6.68-25.19-1.81-.04-6.69z" style="stroke:#000;stroke-miterlimit:10;stroke-width:.2;fill:#283644" transform="translate(-233.03 -165.87)"/><path d="m490.91 288.57 25.19 1.81-86.57 83.98-25.19-1.81 86.57-83.98z" style="stroke:#000;stroke-miterlimit:10;stroke-width:.2;fill:#3e546a" transform="translate(-233.03 -165.87)"/><path d="m404.27 372.67 25.19 1.82.04 6.68-25.19-1.81-.04-6.69z" style="stroke:#000;stroke-miterlimit:10;stroke-width:.2;fill:#283644" transform="translate(-207.85 -164.04)"/><path d="m490.91 288.57 25.19 1.81-86.57 83.98-25.19-1.81 86.57-83.98z" style="stroke:#000;stroke-miterlimit:10;stroke-width:.2;fill:#3e546a" transform="translate(-207.85 -164.04)"/><path d="m404.27 372.67 25.19 1.82.04 6.68-25.19-1.81-.04-6.69z" style="stroke:#000;stroke-miterlimit:10;stroke-width:.2;fill:#283644" transform="translate(-182.65 -162.22)"/><path d="m490.91 288.57 25.19 1.81-86.57 83.98-25.19-1.81 86.57-83.98z" style="stroke:#000;stroke-miterlimit:10;stroke-width:.2;fill:#3e546a" transform="translate(-182.65 -162.22)"/><path d="m404.27 372.67 25.19 1.82.04 6.68-25.19-1.81-.04-6.69z" style="stroke:#000;stroke-miterlimit:10;stroke-width:.2;fill:#283644" transform="translate(-157.47 -160.39)"/><path d="m490.91 288.57 25.19 1.81-86.57 83.98-25.19-1.81 86.57-83.98z" style="stroke:#000;stroke-miterlimit:10;stroke-width:.2;fill:#3e546a" transform="translate(-157.47 -160.39)"/><path d="m404.27 372.67 25.19 1.82.04 6.68-25.19-1.81-.04-6.69z" style="stroke:#000;stroke-miterlimit:10;stroke-width:.2;fill:#283644" transform="translate(-132.28 -158.58)"/><path d="m490.91 288.57 25.19 1.81-86.57 83.98-25.19-1.81 86.57-83.98z" style="stroke:#000;stroke-miterlimit:10;stroke-width:.2;fill:#3e546a" transform="translate(-132.28 -158.58)"/><path d="m404.27 372.67 25.19 1.82.04 6.68-25.19-1.81-.04-6.69z" style="stroke:#000;stroke-miterlimit:10;stroke-width:.2;fill:#283644" transform="translate(-107.1 -156.75)"/><path d="m490.91 288.57 25.19 1.81-86.57 83.98-25.19-1.81 86.57-83.98z" style="stroke:#000;stroke-miterlimit:10;stroke-width:.2;fill:#3e546a" transform="translate(-107.1 -156.75)"/><path d="m404.27 372.67 25.19 1.82.04 6.68-25.19-1.81-.04-6.69z" style="stroke:#000;stroke-miterlimit:10;stroke-width:.2;fill:#283644" transform="translate(-81.9 -154.93)"/><path d="m490.91 288.57 25.19 1.81-86.57 83.98-25.19-1.81 86.57-83.98z" style="stroke:#000;stroke-miterlimit:10;stroke-width:.2;fill:#3e546a" transform="translate(-81.9 -154.93)"/><path d="m33.6 176.61-68.92-64.79L73.42 11.21l124.18 8.82-164 156.58z" style="stroke:#000;stroke-miterlimit:10;stroke-width:.036;fill:url(#c)"/><path d="m128.6 185.4-70.33-64.08L167.36 19.29l124.18 8.82-162.94 157.3z" style="stroke:#000;stroke-miterlimit:10;stroke-width:.036;fill:url(#d)"/><path d="m225.17 192.87-70.68-64.08L265.35 25.35l124.18 8.83-164.36 158.7z" style="stroke:#000;stroke-miterlimit:10;stroke-width:.036;fill:url(#e)"/><path d="m323.21 198.23-74.22-59.84L362.32 31.41l124.18 8.82-163.29 158z" style="stroke:#000;stroke-miterlimit:10;stroke-width:.036;fill:url(#f)"/><path d="m404.27 372.67 25.19 1.82.04 6.68-25.19-1.81-.04-6.69z" style="stroke:#000;stroke-miterlimit:10;stroke-width:.2;fill:#283644" transform="translate(-56.72 -153.1)"/><path d="m490.91 288.57 25.19 1.81-86.57 83.98-25.19-1.81 86.57-83.98z" style="stroke:#000;stroke-miterlimit:10;stroke-width:.2;fill:#3e546a" transform="translate(-56.72 -153.1)"/><path d="M-147.14 237.36a79.29 79.29 0 1 1 0-.45" style="stroke:#000;stroke-miterlimit:10;stroke-width:.036;fill:#e6e6e6" transform="matrix(.58015 .03817 0 .58015 321.36 31.74)"/><path d="M-147.14 237.36a79.29 79.29 0 1 1 0-.45" style="stroke:#000;stroke-miterlimit:10;stroke-width:.036;fill:#999" transform="matrix(.46526 .03061 0 .46526 295.34 56.89)"/><path d="M-147.14 237.36a79.29 79.29 0 1 1 0-.45" style="stroke:#000;stroke-miterlimit:10;stroke-width:.036;fill:#1a1a1a" transform="matrix(.33994 .02237 0 .33994 266.97 84.76)"/><path d="M-147.14 237.36a79.29 79.29 0 1 1 0-.45" style="stroke:#000;stroke-miterlimit:10;stroke-width:.036;fill:#e6e6e6" transform="matrix(.58015 .03817 0 .58015 417.86 38.7)"/><path d="M-147.14 237.36a79.29 79.29 0 1 1 0-.45" style="stroke:#000;stroke-miterlimit:10;stroke-width:.036;fill:#999" transform="matrix(.46526 .03061 0 .46526 391.84 63.85)"/><path d="M-147.14 237.36a79.29 79.29 0 1 1 0-.45" style="stroke:#000;stroke-miterlimit:10;stroke-width:.036;fill:#1a1a1a" transform="matrix(.33994 .02237 0 .33994 363.47 91.73)"/><path d="m404.27 372.67 25.19 1.82.04 6.68-25.19-1.81-.04-6.69z" style="stroke:#000;stroke-miterlimit:10;stroke-width:.2;fill:#283644" transform="translate(-31.53 -151.29)"/><path d="m490.91 288.57 25.19 1.81-86.57 83.98-25.19-1.81 86.57-83.98z" style="stroke:#000;stroke-miterlimit:10;stroke-width:.2;fill:#3e546a" transform="translate(-31.53 -151.29)"/><path d="m429.47 374.4 86.72-83.88-.18 4.93-86.55 85.58.01-6.63z" style="stroke:#000;stroke-miterlimit:10;stroke-width:.2;fill:#19222b" transform="translate(-31.53 -151.29)"/><path d="m420.79 201.76-73.87-58.42L454.6 40.25l58.42 69.64-92.23 91.87z" style="stroke:#000;stroke-miterlimit:10;stroke-width:.036;fill:url(#g)"/><path d="M-147.14 237.36a79.29 79.29 0 1 1 0-.45" style="stroke:#000;stroke-miterlimit:10;stroke-width:.036;fill:#e6e6e6" transform="matrix(.58015 .03817 0 .58015 513.65 45.6)"/><path d="M-147.14 237.36a79.29 79.29 0 1 1 0-.45" style="stroke:#000;stroke-miterlimit:10;stroke-width:.036;fill:#999" transform="matrix(.46526 .03061 0 .46526 487.63 70.74)"/><path d="M-147.14 237.36a79.29 79.29 0 1 1 0-.45" style="stroke:#000;stroke-miterlimit:10;stroke-width:.036;fill:#1a1a1a" transform="matrix(.33994 .02237 0 .33994 459.26 98.62)"/><path d="M-147.14 237.36a79.29 79.29 0 1 1 0-.45" style="stroke:#000;stroke-miterlimit:10;stroke-width:.036;fill:#e6e6e6" transform="matrix(.58015 .03817 0 .58015 224.74 24.82)"/><path d="M-147.14 237.36a79.29 79.29 0 1 1 0-.45" style="stroke:#000;stroke-miterlimit:10;stroke-width:.036;fill:#999" transform="matrix(.46526 .03061 0 .46526 198.72 49.96)"/><path d="M-147.14 237.36a79.29 79.29 0 1 1 0-.45" style="stroke:#000;stroke-miterlimit:10;stroke-width:.036;fill:#1a1a1a" transform="matrix(.33994 .02237 0 .33994 170.35 77.84)"/><path d="M-147.14 237.36a79.29 79.29 0 1 1 0-.45" style="stroke:#000;stroke-miterlimit:10;stroke-width:.036;fill:#e6e6e6" transform="matrix(.58015 .03817 0 .58015 127.94 17.82)"/><path d="M-147.14 237.36a79.29 79.29 0 1 1 0-.45" style="stroke:#000;stroke-miterlimit:10;stroke-width:.036;fill:#999" transform="matrix(.46525 .03061 0 .46525 101.93 42.96)"/><path d="M23.53 148.24c0 14.87-12.07 26.15-26.95 25.17-14.88-.97-26.95-13.84-26.95-28.72s12.07-26.16 26.95-25.18c14.82.98 26.87 13.74 26.95 28.57" style="stroke:#000;stroke-miterlimit:10;stroke-width:.012238;fill:#1a1a1a"/><path d="M482.58 40.34C106.3 15.59 87.61 13.57 87.61 13.57l3.54-1" style="stroke:#000;stroke-width:1px;fill:none"/><path d="m404.27 372.67 25.19 1.82.04 6.68-25.19-1.81-.04-6.69z" style="stroke:#000;stroke-miterlimit:10;stroke-width:.2;fill:#283644" transform="translate(-59.6 -253.72)"/><path d="m490.91 288.57 25.19 1.81-86.57 83.98-25.19-1.81 86.57-83.98z" style="stroke:#000;stroke-miterlimit:10;stroke-width:.2;fill:#3e546a" transform="translate(-59.6 -253.72)"/><path d="m404.27 372.67 25.19 1.82.04 6.68-25.19-1.81-.04-6.69z" style="stroke:#000;stroke-miterlimit:10;stroke-width:.2;fill:#283644" transform="translate(-84.78 -255.54)"/><path d="m490.91 288.57 25.19 1.81-86.57 83.98-25.19-1.81 86.57-83.98z" style="stroke:#000;stroke-miterlimit:10;stroke-width:.2;fill:#3e546a" transform="translate(-84.78 -255.54)"/><path d="m404.27 372.67 25.19 1.82.04 6.68-25.19-1.81-.04-6.69z" style="stroke:#000;stroke-miterlimit:10;stroke-width:.2;fill:#283644" transform="translate(-109.97 -257.35)"/><path d="m490.91 288.57 25.19 1.81-86.57 83.98-25.19-1.81 86.57-83.98z" style="stroke:#000;stroke-miterlimit:10;stroke-width:.2;fill:#3e546a" transform="translate(-109.97 -257.35)"/><path d="m404.27 372.67 25.19 1.82.04 6.68-25.19-1.81-.04-6.69z" style="stroke:#000;stroke-miterlimit:10;stroke-width:.2;fill:#283644" transform="translate(-135.15 -259.15)"/><path d="m490.91 288.57 25.19 1.81-86.57 83.98-25.19-1.81 86.57-83.98z" style="stroke:#000;stroke-miterlimit:10;stroke-width:.2;fill:#3e546a" transform="translate(-135.15 -259.15)"/><path d="m404.27 372.67 25.19 1.82.04 6.68-25.19-1.81-.04-6.69z" style="stroke:#000;stroke-miterlimit:10;stroke-width:.2;fill:#283644" transform="translate(-160.34 -260.96)"/><path d="m490.91 288.57 25.19 1.81-86.57 83.98-25.19-1.81 86.57-83.98z" style="stroke:#000;stroke-miterlimit:10;stroke-width:.2;fill:#3e546a" transform="translate(-160.34 -260.96)"/><path d="m404.27 372.67 25.19 1.82.04 6.68-25.19-1.81-.04-6.69z" style="stroke:#000;stroke-miterlimit:10;stroke-width:.2;fill:#283644" transform="translate(-185.53 -262.78)"/><path d="m490.91 288.57 25.19 1.81-86.57 83.98-25.19-1.81 86.57-83.98z" style="stroke:#000;stroke-miterlimit:10;stroke-width:.2;fill:#3e546a" transform="translate(-185.53 -262.78)"/><path d="m404.27 372.67 25.19 1.82.04 6.68-25.19-1.81-.04-6.69z" style="stroke:#000;stroke-miterlimit:10;stroke-width:.2;fill:#283644" transform="translate(-210.72 -264.59)"/><path d="m490.91 288.57 25.19 1.81-86.57 83.98-25.19-1.81 86.57-83.98z" style="stroke:#000;stroke-miterlimit:10;stroke-width:.2;fill:#3e546a" transform="translate(-210.72 -264.59)"/><path d="m404.27 372.67 25.19 1.82.04 6.68-25.19-1.81-.04-6.69z" style="stroke:#000;stroke-miterlimit:10;stroke-width:.2;fill:#283644" transform="translate(-235.91 -266.41)"/><path d="m490.91 288.57 25.19 1.81-86.57 83.98-25.19-1.81 86.57-83.98z" style="stroke:#000;stroke-miterlimit:10;stroke-width:.2;fill:#3e546a" transform="translate(-235.91 -266.41)"/><path d="m404.27 372.67 25.19 1.82.04 6.68-25.19-1.81-.04-6.69z" style="stroke:#000;stroke-miterlimit:10;stroke-width:.2;fill:#283644" transform="translate(-261.1 -268.22)"/><path d="m490.91 288.57 25.19 1.81-86.57 83.98-25.19-1.81 86.57-83.98z" style="stroke:#000;stroke-miterlimit:10;stroke-width:.2;fill:#3e546a" transform="translate(-261.1 -268.22)"/><path d="m404.27 372.67 25.19 1.82.04 6.68-25.19-1.81-.04-6.69z" style="stroke:#000;stroke-miterlimit:10;stroke-width:.2;fill:#283644" transform="translate(-286.28 -270.03)"/><path d="m490.91 288.57 25.19 1.81-86.57 83.98-25.19-1.81 86.57-83.98z" style="stroke:#000;stroke-miterlimit:10;stroke-width:.2;fill:#3e546a" transform="translate(-286.28 -270.03)"/><path d="m404.27 372.67 25.19 1.82.04 6.68-25.19-1.81-.04-6.69z" style="stroke:#000;stroke-miterlimit:10;stroke-width:.2;fill:#283644" transform="translate(-311.47 -271.84)"/><path d="m490.91 288.57 25.19 1.81-86.57 83.98-25.19-1.81 86.57-83.98z" style="stroke:#000;stroke-miterlimit:10;stroke-width:.2;fill:#3e546a" transform="translate(-311.47 -271.84)"/><path d="m404.27 372.67 25.19 1.82.04 6.68-25.19-1.81-.04-6.69z" style="stroke:#000;stroke-miterlimit:10;stroke-width:.2;fill:#283644" transform="translate(-336.66 -273.65)"/><path d="m490.91 288.57 25.19 1.81-86.57 83.98-25.19-1.81 86.57-83.98z" style="stroke:#000;stroke-miterlimit:10;stroke-width:.2;fill:#3e546a" transform="translate(-336.66 -273.65)"/><path d="m404.27 372.67 25.19 1.82.04 6.68-25.19-1.81-.04-6.69z" style="stroke:#000;stroke-miterlimit:10;stroke-width:.2;fill:#283644" transform="translate(-361.84 -275.46)"/><path d="m490.91 288.57 25.19 1.81-86.57 83.98-25.19-1.81 86.57-83.98z" style="stroke:#000;stroke-miterlimit:10;stroke-width:.2;fill:#3e546a" transform="translate(-361.84 -275.46)"/><path d="m404.27 372.67 25.19 1.82.04 6.68-25.19-1.81-.04-6.69z" style="stroke:#000;stroke-miterlimit:10;stroke-width:.2;fill:#283644" transform="translate(-387.03 -277.27)"/><path d="m490.91 288.57 25.19 1.81-86.57 83.98-25.19-1.81 86.57-83.98z" style="stroke:#000;stroke-miterlimit:10;stroke-width:.2;fill:#3e546a" transform="translate(-387.03 -277.27)"/><path d="m404.27 372.67 25.19 1.82.04 6.68-25.19-1.81-.04-6.69z" style="stroke:#000;stroke-miterlimit:10;stroke-width:.2;fill:#283644" transform="translate(-412.22 -279.09)"/><path d="m490.91 288.57 25.19 1.81-86.57 83.98-25.19-1.81 86.57-83.98z" style="stroke:#000;stroke-miterlimit:10;stroke-width:.2;fill:#3e546a" transform="translate(-412.22 -279.09)"/><path d="m404.27 372.67 25.19 1.82.04 6.68-25.19-1.81-.04-6.69z" style="stroke:#000;stroke-miterlimit:10;stroke-width:.2;fill:#283644" transform="translate(-437.41 -280.9)"/><path d="m490.91 288.57 25.19 1.81-86.57 83.98-25.19-1.81 86.57-83.98z" style="stroke:#000;stroke-miterlimit:10;stroke-width:.2;fill:#3e546a" transform="translate(-437.41 -280.9)"/><path d="m404.27 372.67 25.19 1.82.04 6.68-25.19-1.81-.04-6.69z" style="stroke:#000;stroke-miterlimit:10;stroke-width:.2;fill:#283644" transform="translate(-462.6 -282.72)"/><path d="m490.91 288.57 25.19 1.81-86.57 83.98-25.19-1.81 86.57-83.98z" style="stroke:#000;stroke-miterlimit:10;stroke-width:.2;fill:#3e546a" transform="translate(-462.6 -282.72)"/><path d="m404.27 372.67 25.19 1.82.04 6.68-25.19-1.81-.04-6.69z" style="stroke:#000;stroke-miterlimit:10;stroke-width:.2;fill:#283644" transform="translate(-487.79 -284.53)"/><path d="m490.91 288.57 25.19 1.81-86.57 83.98-25.19-1.81 86.57-83.98z" style="stroke:#000;stroke-miterlimit:10;stroke-width:.2;fill:#3e546a" transform="translate(-487.79 -284.53)"/><path d="m404.27 372.67 25.19 1.82.04 6.68-25.19-1.81-.04-6.69z" style="stroke:#000;stroke-miterlimit:10;stroke-width:.2;fill:#283644" transform="translate(-512.97 -286.34)"/><path d="m490.91 288.57 25.19 1.81-86.57 83.98-25.19-1.81 86.57-83.98z" style="stroke:#000;stroke-miterlimit:10;stroke-width:.2;fill:#3e546a" transform="translate(-512.97 -286.34)"/><path d="m404.27 372.67 25.19 1.82.04 6.68-25.19-1.81-.04-6.69z" style="stroke:#000;stroke-miterlimit:10;stroke-width:.2;fill:#283644" transform="translate(-34.4 -251.91)"/><path d="m490.91 288.57 25.19 1.81-86.57 83.98-25.19-1.81 86.57-83.98z" style="stroke:#000;stroke-miterlimit:10;stroke-width:.2;fill:#3e546a" transform="translate(-34.4 -251.91)"/><path d="m429.47 374.4 86.72-83.88-.18 4.93-86.55 85.58.01-6.63z" style="stroke:#000;stroke-miterlimit:10;stroke-width:.2;fill:#19222b" transform="translate(-34.4 -251.91)"/><path d="m432.82 376.03 20.02 13.95-3.52 5.23-19.82-14.17 3.32-5.01z" style="stroke:#000;stroke-miterlimit:10;stroke-width:.2;fill:#283644" transform="translate(-34.4 -251.91)"/><path d="m518.31 292.63 21.48 13.83-87.02 83.55-19.97-13.92 55.88-54.54 29.63-28.92z" style="stroke:#000;stroke-miterlimit:10;stroke-width:.2;fill:#2e445a" transform="translate(-34.4 -251.91)"/><path d="m452.79 389.93 86.94-83.21-.68 2.69-89.33 85.35 3.07-4.83z" style="stroke:#000;stroke-miterlimit:10;stroke-width:.2;fill:#0d1216" transform="translate(-34.4 -251.91)"/><path d="m434.67 166.64 87.02-84.05-3.98-.2-89.56 84.23 6.52.02z" style="stroke:#000;stroke-miterlimit:10;stroke-width:.2;fill:#3e546a"/><path d="m455.95 392.22 13.01 23.01-6.45 3.23-13.2-23.3 6.64-2.94z" style="stroke:#000;stroke-miterlimit:10;stroke-width:.2;fill:#283644" transform="translate(-34.4 -251.91)"/><path d="m542.31 309.63 12.98 21.58-86.33 84.05-13.01-23.02 86.36-82.61z" style="stroke:#000;stroke-miterlimit:10;stroke-width:.2;fill:#1f3448" transform="translate(-34.4 -251.91)"/><path d="m456.01 392.24 86.11-82.67-3.07-.11-89.49 85.45 6.45-2.67z" style="stroke:#000;stroke-miterlimit:10;stroke-width:.2;fill:#304966" transform="translate(-34.4 -251.91)"/><path d="m432.82 376.03 20.02 13.95-3.52 5.23-19.82-14.17 3.32-5.01z" style="stroke:#000;stroke-miterlimit:10;stroke-width:.2;fill:#283644" transform="translate(-34.4 -251.91)"/><path d="m518.31 292.63 21.48 13.83-87.02 83.55-19.97-13.92 55.88-54.54 29.63-28.92z" style="stroke:#000;stroke-miterlimit:10;stroke-width:.2;fill:#2e445a" transform="translate(-34.4 -251.91)"/><path d="m452.79 389.93 86.94-83.21-.68 2.69-89.33 85.35 3.07-4.83z" style="stroke:#000;stroke-miterlimit:10;stroke-width:.2;fill:#0d1216" transform="translate(-34.4 -251.91)"/><path d="m426.14 394.81 86.76-82.31-3.72-3.01-88.87 82.42 5.83 2.9z" style="stroke:#000;stroke-miterlimit:10;stroke-width:.2;fill:#2e445a" transform="translate(7.6 -202.16)"/><path d="m426.26 394.91-10.92 20.57-5.14-4.33 9.98-19.24 6.08 3z" style="stroke:#000;stroke-miterlimit:10;stroke-width:.2;fill:#283644" transform="translate(7.6 -202.16)"/><path d="m512.62 312.76-8.96 18.02-88.01 84.35 10.52-20.23 86.45-82.14z" style="stroke:#000;stroke-miterlimit:10;stroke-width:.2;fill:#0d1216" transform="translate(7.6 -202.16)"/><path d="m521.91 82.6.03 24.64-87.26 82.6.03-23.23 54.89-52.89 22.91-22.08 9.4-9.05z" style="stroke:#000;stroke-miterlimit:10;stroke-width:.2;fill:#19222b"/><path d="m434.73 166.56-.04 23.39-6.9-.15.24-23.24h6.7zM401.25 228.17l20.02-13.95-3.52-5.23-19.83 14.18 3.33 5z" style="stroke:#000;stroke-miterlimit:10;stroke-width:.2;fill:#283644"/><path d="m421.22 214.17 1.2-1.27-4.53-3.92-.03.04 3.36 5.15z" style="stroke:#000;stroke-miterlimit:10;stroke-width:.2;fill:#2e445a"/></g></svg>