<svg xmlns="http://www.w3.org/2000/svg" xml:space="preserve" overflow="visible" viewBox="0 0 372.32 419.53"><g fill-rule="evenodd" clip-rule="evenodd"><path d="M176.51 35c-4.93 7.75-15.1 8.35-23.4 3.53-2.6.47-3.52 2.62-4.96 4.26 21.63 5.16 42.29 14.8 62.38 24.1 17.22 7.96 32.42 18.32 46.8 29.06a394.74 394.74 0 0 1 59.54 54.59c6.15 6.87 10.19 14.26 15.6 21.97 1.5 2.15 4.16 3.53 5.66 5.67 2.69 3.83 4.93 9.81 7.8 14.89 7.34 12.95 16.4 31.31 20.56 46.79 8.56 31.82 9.4 65.98-9.22 92.86-1.67 2.41-4.34 5.2-6.38 7.8a215.88 215.88 0 0 1-33.31 34.02c-3.3 2.66-6.28 6.33-9.22 8.5-2.62 1.96-5.83 2.62-8.5 4.26-8.25 5.09-15.64 11.57-24.82 16.3-2.87 1.49-6.7 2.07-9.92 3.55-7.6 3.5-18.2 8.29-28.36 9.93-8.85 1.42-18.39 1.08-29.06 2.12-32.74 3.2-75.31-17.34-94.99-41.11-2.13-2.58-4.2-6.2-6.38-9.22-13.4-18.66-27.97-39.17-39.7-60.96-10.33-19.17-20.54-40.02-26.24-58.14-9.59-30.48-13.42-59.56-13.47-96.4-7.58 2.58-14.61 11.84-23.4 15.59-1.19-8.37 6.55-17.47 5.68-25.52-1.6-1.94-7.56.46-9.22-1.42.85-6.71 6.5-8.63 7.8-14.89 9.6-8.8 21.53-13.16 31.19-22.68 4.39-4.32 7.39-12.17 11.34-17.02.89-1.08 3.1-1.53 4.26-2.83 3.76-4.29 7-10.55 11.34-16.3 4.1-5.46 11.18-12.75 11.34-15.6.25-4.51-5.38-7.73-5.67-12.05-.31-4.56 3.73-10.52 9.21-11.34 11.54-1.72 17.28 9.39 24.1 17.01 3.84-1.76 8.83-4.36 13.47-1.42 8.16-6.26 15.91-12.92 22.69-20.55-2.24-5.65-6.2-12.27-3.55-20.56 16.88-13.63 37.58 12.36 39 31.19zM146.74 2.37a3.57 3.57 0 0 1-2.13 2.13c3.87 13.18 11.93 25.82 27.65 24.81-3.05-14.44-10.54-24.43-25.52-26.94zM168 35c-13.5-5.88-20.3-18.45-28.36-29.77-.1 19.35 10.26 30.86 28.36 29.77zm-45.36 12.05a10.05 10.05 0 0 1 4.25 4.96c7.58-3.05 11-10.26 17.73-14.17-.9-3.6-3.32-5.66-4.97-8.51-4.76 6.82-12.63 10.53-17 17.72zM80.1 33.57c2.5 12.1 12.07 24.62 25.52 22.69-2.7-13-11.56-23.28-25.51-22.69zm-5.67 6.38c3.42 7.95 12.9 23.93 22.69 24.1 2.14.04 6.25 1.14 5.67-3.54-14.22-2.57-19.2-14.37-26.94-23.4-.37 1.06-1.05 1.8-1.42 2.84zm36.15 7.1c-1.57 14.4 4.25 30.33 21.27 30.47 3-11.28-4.24-30.48-21.27-30.48zm37.58 24.1c15.2 5.12 29.6 8.3 43.24 12.75 16.9 5.53 31.62 14.59 47.5 19.85.98-4.13-1.52-9.02-1.42-12.76-15.54-14.17-38.06-20.92-58.13-30.48-10.86-5.17-21.96-9.83-33.32-11.34-1.25 5.86.35 12.83 2.13 21.98zm-12.76-8.51c-.44 2.6 1.38 5.53 1.42 7.8.17 12.05-6.41 18.59-20.56 14.88.13 7.36 1.25 9.51 2.13 15.6 7.5-2.47 14.51-16.3 20.55-23.4 2.2-2.57 5-3.47 5.68-6.38 1.06-4.65-.29-14-3.55-17.72-.39 3.36-4.92 4.72-5.68 9.21zm-8.51 18.43c-.16-2.91-3.46-2.69-6.38-2.84-5.4-4.75-10.2-10.11-11.34-19.14h-2.13c-6.13 12.13 9.2 24.26 19.85 21.98zM76.56 83.9c7.28-5 15.72-8.85 21.97-14.88-10.34-7.32-17 6.63-21.97 14.88zm21.26-10.63c-14.5 11.26-33.12 18.4-41.11 36.15 15.4-10.36 31.23-20.27 46.08-31.19V74.7c-2.83.7-2.14-2.12-4.97-1.41zm48.21 1.42c-8.1 9.14-16.62 17.88-22.68 29.06 29.02 13.27 52.82 31.77 79.4 47.5 6.95-6.04 11.62-14.36 19.13-19.85 3.9-9.81 13.9-13.51 17.72-23.4-28.19-14.1-58.46-26.12-93.57-33.3zm-54.59 26.93c-4.7 4.8-10.45 8.66-10.63 12.76-.1 2.57 1.35 5.47 2.15 8.33 2.4 8.65 6 15.95 9.2 24.28 13.83 28.35 36.52 78.89 40.4 87.19 7.71 13.21 13.1 24.03 20.38 36.71 4.62 8.05 10.24 16.49 15.06 24.25 1.2 1.93 6.45 10.1 7.8 12.06 7.37 10.67 25.71 24.34 43.24 26.22 13.07 1.41 28.21-5.2 35.45-10.63 12.78-9.59 22.6-23.25 30.48-36.86 10.29-17.8 2.84-37.29-6.38-53.17-17.47-21.75-36.49-41.96-58.84-58.83-10.53-9.44-23.16-15.96-34.73-24.1-11.64-8.2-23.15-16.9-36.16-23.4-.3-2.3-2.94-2.25-3.54-4.25-9.06-3.24-16.53-8.05-24.81-12.05-2.97-1.66-2.2-.55-5.67 0-5.75-5.36-5.75-13.01-7.1-23.4-.9-.04-.97-.9-2.12-.7-4.55 5.02-8.26 9.58-14.15 15.59zm151 4.97c23.65 10.61 41.5 27.03 60.26 42.53-5.33-10.18-14.74-17.13-22.69-24.8-8.07-7.82-16.33-16.17-26.93-21.28-2.25-4.36-8.1-5.14-10.64-9.21h-2.12c.9 5.87 1.9 9.27 2.13 12.76zm-36.87 47.49c4.06 6.09 6.88 5.2 12.06 8.5 6.22 3.98 12.5 10.07 19.14 15.6 21.94 18.31 48.69 43 58.83 69.47 8.96 23.39 2.47 56.06-10.63 73.73-5.42 7.3-13.64 13.82-20.56 18.43-11.2 7.46-23.34 11.75-37.57 13.47-34.26 4.12-59.23-15.22-80.1-39-20.53-23.36-31.66-54.77-43.24-80.1-16.96 7.39-34.26 14.43-51.04 21.98a309.94 309.94 0 0 0 21.97 48.2c8.46 15.01 16.47 30.6 26.23 43.95 15.58 21.34 29.45 40.3 53.17 52.46 7.27 3.73 16.3 7.98 24.8 10.64 14.23 4.44 32.1 2.66 47.5 1.41 3.3-.26 8.39-.9 12.76-2.12 15.83-4.47 34.07-14.75 48.92-25.52 20.9-15.17 39.04-33.11 53.16-52.46 5.87-19.1 18.85-36.72 16.3-60.26-1.1-10.25-5.76-19.3-7.8-29.06-.56-2.74-.12-5.7-.7-8.5-2.72-13.05-9.17-25.47-14.89-37.58-12.34-26.11-27.5-41.26-48.2-58.83-13.64-11.58-26.26-20.84-41.12-27.65h-1.41c-13.86 13.1-25.8 28.1-37.57 43.25zM5.67 138.49c15.12-1.43 19.07-14.02 26.23-23.4-.08-.86-.2-1.67-1.41-1.41-7.93 8.62-21.53 11.55-24.82 24.8zm45.37-3.55c-3.36 4.67-7.78 8.28-14.88 9.22-2.56 10.16-.76 15.24-.71 21.26 12.18-5.53 22.83-12.6 33.31-19.85-.09-8.6 3.78-13.24 4.26-21.26-8.81 2.06-13.56 8.18-21.98 10.63zm19.85 10.64c.15 3.4 3.06 9.27 4.96 14.18 8.98 23.19 18.26 47.85 28.36 67.34 1.45-6.34 8.05-11.53 7.8-18.43-.17-4.6-5.8-13.62-8.51-20.56-2.85-7.32-6.35-13.8-9.22-20.56-6.73-15.82-13.63-33.58-17.72-43.24-.82 7.18-6 13.9-5.66 21.27zm-2.83 4.25c-9.98 7.27-21.56 12.94-31.9 19.85.07 28.33 4.23 54.77 14.88 82.23 18.31-5.8 36.12-12.1 50.33-21.98-11.49-26.32-20.33-55.28-33.31-80.1zm37.56 82.94c.14 3.47 4.78 10.98 7.8 17.72 4.13 9.23 8.71 17.41 12.05 24.1 3.94 7.9 5.97 16.4 9.93 22.69 6.28 9.98 17.17 21.46 26.93 29.77 10.9 9.27 22.71 18.88 35.45 21.98 21.07 5.13 43.05-.2 56.7-7.1 17.67-8.9 33.23-24.14 39-41.81 1.33-4.1 1.52-9.47 2.12-14.9-10.04 11.44-20.12 32.42-37.57 42.54-7.87 4.56-19.7 10.74-29.77 11.34-20.7 1.23-37.58-9.93-51.75-19.14-23.03-32.97-42.6-69.4-61.67-106.33h-2.13c-.32 6.4-7.35 12.4-7.09 19.15z"/><path fill="#B0B6BB" d="M172.26 29.32c-15.72 1-23.77-11.63-27.65-24.81a3.58 3.58 0 0 0 2.13-2.13c14.98 2.5 22.47 12.5 25.52 26.94z"/><path fill="#E4E5E6" d="M139.65 5.22c8.05 11.32 14.86 23.89 28.36 29.77-18.1 1.09-28.46-10.42-28.35-29.77zM139.65 29.32c1.64 2.85 4.07 4.91 4.96 8.5-6.72 3.92-10.15 11.12-17.72 14.18-.88-2.19-2.34-3.8-4.25-4.96 4.38-7.19 12.25-10.9 17-17.72z"/><path fill="#B0B6BB" d="M105.62 56.26C92.17 58.19 82.6 45.67 80.1 33.57c13.96-.6 22.82 9.7 25.52 22.69z"/><path fill="#E4E5E6" d="M75.85 37.12c7.75 9.02 12.73 20.82 26.94 23.4.58 4.67-3.53 3.57-5.67 3.53-9.8-.17-19.27-16.15-22.69-24.1.37-1.05 1.05-1.78 1.42-2.83z"/><path fill="#B0B6BB" d="M131.85 77.52c-17.02-.14-22.84-16.08-21.27-30.48 17.03 0 24.27 19.2 21.27 30.48zM146.03 49.17c11.36 1.5 22.46 6.17 33.32 11.34 20.07 9.56 42.58 16.3 58.13 30.48-.1 3.74 2.4 8.63 1.41 12.76-15.87-5.26-30.58-14.32-47.5-19.85-13.62-4.45-28.02-7.64-43.23-12.76-1.78-9.14-3.38-16.12-2.13-21.97z"/><path fill="#E4E5E6" d="M141.07 53.42c3.26 3.72 4.61 13.07 3.54 17.72-.66 2.9-3.48 3.8-5.67 6.38-6.04 7.1-13.05 20.93-20.55 23.4-.88-6.09-2-8.24-2.13-15.6 14.15 3.71 20.73-2.83 20.56-14.88-.04-2.27-1.86-5.2-1.42-7.8.76-4.5 5.29-5.86 5.67-9.22z"/><path fill="#E4E5E6" d="M107.04 59.1h2.13c1.13 9.02 5.93 14.38 11.34 19.13 2.92.15 6.22-.07 6.38 2.84-10.65 2.28-25.98-9.85-19.85-21.98zM48.91 113.68c-10.35 13.5-24.58 29.29-29.06 38.28-5.42 1.2-6.5 6.73-11.34 8.5 3.96-19.62 18.15-32 28.35-47.49 7.99-12.12 16.85-23.38 24.81-33.32 4.89-6.1 7.82-13.52 13.47-18.43 12.84 5.29-5.55 23.38-9.92 29.07-7.22 9.36-12.36 16.75-16.3 23.38zM102.79 74.69v3.54c-14.85 10.92-30.68 20.83-46.08 31.19 8-17.76 26.62-24.9 41.12-36.15 2.82-.7 2.13 2.12 4.96 1.42zM239.6 108c-3.82 9.88-13.83 13.58-17.72 23.4-7.51 5.48-12.18 13.8-19.14 19.84-26.57-15.72-50.37-34.22-79.4-47.5 6.07-11.17 14.58-19.91 22.69-29.06 35.12 7.2 65.39 19.23 93.58 33.33zM45.82 124.76c6.62-9.9 34.86-23.64 43.5-31.64 1.2-.27 1.34.55 1.42 1.41-12.13 9.61-41.27 36.4-54.74 44.67.3-3.82 7.98-11.7 9.82-14.44z"/><path fill="#B32317" d="M240.31 93.83h2.13c2.54 4.07 8.38 4.85 10.63 9.21 10.6 5.1 18.86 13.46 26.94 21.27 7.94 7.68 17.35 14.63 22.68 24.81-18.76-15.5-36.6-31.92-60.25-42.53-.22-3.5-1.23-6.9-2.13-12.76z"/><path fill="#EE3224" d="M243.14 110.84h1.42c14.86 6.8 27.48 16.07 41.11 27.65 20.7 17.57 35.87 32.71 48.2 58.83 5.73 12.1 12.17 24.53 14.9 37.57.58 2.8 2.7 6.32 3.26 9.06 2.03 9.76 4.13 18.25 5.24 28.51 2.54 23.54-10.44 41.16-16.3 60.26-14.12 19.35-32.26 37.28-53.17 52.46-14.85 10.77-33.09 21.05-48.91 25.52a71.62 71.62 0 0 1-12.76 2.12c-15.4 1.25-33.27 3.03-47.5-1.42-8.5-2.65-17.54-6.9-24.8-10.63-23.73-12.16-37.6-31.12-53.18-52.46-9.76-13.36-17.77-28.94-26.22-43.95a309.94 309.94 0 0 1-21.98-48.2c16.79-7.55 34.09-14.59 51.04-21.98 11.58 25.32 22.72 56.74 43.24 80.1 20.87 23.78 45.84 43.12 80.1 39 14.23-1.72 26.38-6.02 37.57-13.47 6.92-4.6 15.14-11.13 20.56-18.43 13.1-17.67 19.6-50.34 10.64-73.73-10.15-26.46-36.9-51.16-58.84-69.47-6.63-5.53-12.92-11.62-19.14-15.6-5.18-3.3-8-2.41-12.05-8.5 11.78-15.18 23.7-30.18 37.57-43.26z"/><path fill="#E4E5E6" d="M30.48 113.68c1.2-.26 1.34.55 1.42 1.42-7.16 9.37-11.12 21.96-26.23 23.4 3.29-13.27 16.89-16.2 24.81-24.82zM73.01 124.31c-.48 8.03-4.34 12.67-4.25 21.27-10.48 7.23-21.13 14.3-33.32 19.85-.04-6.02-1.85-11.1.71-21.27 7.1-.93 11.53-4.54 14.89-9.22 8.41-2.45 13.16-8.57 21.97-10.63z"/><path fill="#B0B6BB" d="M76.56 124.31c4.09 9.66 10.99 27.42 17.72 43.24 2.87 6.75 6.36 13.23 9.22 20.56 2.7 6.94 8.34 15.96 8.5 20.56.25 6.9-6.34 12.1-7.8 18.43-10.1-19.5-19.37-44.15-28.35-67.35-1.9-4.9-4.8-10.77-4.96-14.17-.34-7.37 4.84-14.1 5.66-21.27z"/><path fill="#E4E5E6" d="M101.37 229.93c-14.22 9.88-32.02 16.18-50.33 21.98-10.65-27.46-14.8-53.9-14.89-82.23 10.35-6.9 21.93-12.58 31.9-19.85 12.98 24.84 21.83 53.8 33.32 80.1z"/><path fill="#B32317" d="M112.71 213.63h2.13c19.06 36.94 38.64 73.36 61.67 106.33 14.16 9.2 31.05 20.37 51.75 19.14 10.06-.6 21.9-6.78 29.77-11.34 17.45-10.12 27.52-31.1 37.57-42.54-.6 5.43-.8 10.8-2.13 14.9-5.76 17.67-21.32 32.9-38.99 41.81-13.65 6.9-35.63 12.22-56.7 7.1-12.74-3.1-24.56-12.7-35.45-21.98-9.76-8.32-20.65-19.8-26.94-29.77-3.95-6.28-5.99-14.8-9.92-22.69-3.34-6.7-7.92-14.88-12.05-24.1-3.02-6.74-7.66-14.26-7.8-17.72-.26-6.77 6.77-12.77 7.09-19.16z"/></g></svg>