<?xml version="1.0" encoding="utf-8"?>
<!-- Generator: Adobe Illustrator 26.5.0, SVG Export Plug-In . SVG Version: 6.00 Build 0)  -->
<svg version="1.1" id="Layer_1" xmlns="http://www.w3.org/2000/svg" xmlns:xlink="http://www.w3.org/1999/xlink" x="0px" y="0px"
	 viewBox="0 0 216 216" style="enable-background:new 0 0 216 216;" xml:space="preserve">
<style type="text/css">
	.st0{fill-rule:evenodd;clip-rule:evenodd;fill:#0083BF;}
	.st1{fill:#FFFFFF;}
</style>
<g>
	<path class="st0" d="M107.88,216C48.27,216,0.33,167.89,0,108.18C-0.31,50.97,45.42,0.06,107.91,0
		C168.19-0.06,216.22,47.87,216,108.39C215.78,170.02,165.92,216.11,107.88,216z"/>
	<g>
		<path class="st1" d="M129.67,121.99l-17.11,30.12l17.39,29.81l-0.05-13.11l14.48-0.25c9.05-0.24,13.99-7.21,13.99-7.21
			l21.89-37.47c4.68-10.53-0.34-17.68-0.34-17.68L164.7,80.15l-30.1,17.41l19.34,33.42c0.7,1.76-0.42,3.19-2.53,3.16l-21.65,0.16
			L129.67,121.99z"/>
		<path class="st1" d="M85.85,117.49L68.26,87.65l-34.51,0.23l11.4,6.48l-6.99,12.68c-4.3,7.97-0.72,15.72-0.72,15.72l21.58,37.65
			c6.8,9.31,15.49,8.52,15.49,8.52l30.17-0.21l-0.1-34.77l-38.62,0.12c-1.88-0.27-2.55-1.96-1.48-3.76l10.65-18.85L85.85,117.49z"/>
		<path class="st1" d="M111.68,81.82l34.64-0.26l17.1-29.98L152.1,58.2l-7.46-12.41c-4.74-7.71-13.24-8.7-13.24-8.7l-43.39,0
			c-11.47,1.22-15.14,9.13-15.14,9.13L57.92,72.43l30.13,17.34l19.26-33.47c1.17-1.49,2.97-1.23,4,0.6l10.97,18.67L111.68,81.82z"/>
	</g>
</g>
</svg>
