<?xml version="1.0" encoding="utf-8"?>
<!-- Generator: Adobe Illustrator 26.5.0, SVG Export Plug-In . SVG Version: 6.00 Build 0)  -->
<svg version="1.1" id="Laag_1" xmlns="http://www.w3.org/2000/svg" xmlns:xlink="http://www.w3.org/1999/xlink" x="0px" y="0px"
	 viewBox="0 0 154.14 149.09" style="enable-background:new 0 0 154.14 149.09;" xml:space="preserve">
<style type="text/css">
	.st0{fill-rule:evenodd;clip-rule:evenodd;fill:#FF0099;}
</style>
<g>
	<path class="st0" d="M153.8,78.99c0.9,4.67,0,8.95-2.7,12.85c-0.43,0.8-1.02,1.62-1.75,2.45c-0.07,0.07-0.12,0.13-0.15,0.2
		l-22.2,35.2c-0.57,0.87-1.4,1.73-2.5,2.6c-2.23,1.73-4.67,2.58-7.3,2.55l-18.7-0.25l-0.25,14.5l-18.35-31.9l18.45-34.15l-0.4,16.65
		l25.85,0.2l-20.2-35.15l32.4-18.7l16.45,28.75C153.08,76.16,153.53,77.56,153.8,78.99z M25.95,36.64l16.1-29
		c0.83-1.2,1.8-2.3,2.9-3.3c3.53-3.17,7.67-4.6,12.4-4.3l2.9,0.5l41.95,0.45l3.55,0.8c2.63,1,4.6,2.63,5.9,4.9l9.5,16.15l12.55-7.3
		l-17.8,32.2l-38.8,1.9l14.5-8.25L78.5,19.14L58.75,54.69L25.95,36.64z M0,51.94h36.85l20.4,33L43,76.29l-12.9,22.3h40.45
		l0.05,37.45H39.2c-1.83,0.1-3.87-0.25-6.1-1.05c-4.43-1.53-7.67-4.43-9.7-8.7c-0.47-0.8-0.87-1.72-1.2-2.75L2.5,86.49
		c-0.47-0.93-0.8-2.08-1-3.45c-0.4-2.77,0.08-5.28,1.45-7.55l9.55-16.1L0,51.94z"/>
</g>
</svg>
