<svg xmlns="http://www.w3.org/2000/svg" viewBox="0 0 300 300"><defs><radialGradient id="b" cx="760.39" cy="634.88" r="6.59" gradientTransform="matrix(-1.6558 .39273 -1.6338 -1.2538 2424.6 1270.8)" gradientUnits="userSpaceOnUse"><stop offset="0" stop-color="#28170b"/><stop offset="1" stop-color="#28170b" stop-opacity="0"/></radialGradient><radialGradient id="a" cx="1562.6" cy="863.26" r="108.52" gradientTransform="matrix(-1.9412 .83603 -.77233 -1.5779 3898.5 926.05)" gradientUnits="userSpaceOnUse"><stop offset="0" stop-color="red"/><stop offset="1" stop-color="#333" stop-opacity="0"/></radialGradient></defs><path d="M130.04 836.74c-.42-5.32-.73-10.61-.1-15.75 4.22-10.89 14-17.42 19.53-20.29 7.75-4.33 19.7-10.14 29.07-22.14 10.79-14.78 9.15-20.99 9.78-26.31 3.33 8.85 7.16 14.78 7.14 28.75.33 12.96-8.35 33.7-22.73 38.33l-31.59 18.35-10.84 5-.26-5.94z" style="fill:green" transform="translate(-4.05 -750.13)"/><path d="m124.81 836.64 5.7 1.14c-.85-21.31-1.87-39.26 7.36-57.6-4.4 1.05-9.75-.87-13.84-4.57-5.04 13.87-4.33 40.1.78 61.03z" style="fill:#28170b" transform="translate(-4.05 -750.13)"/><path d="M131.77 837.78c-32.25-3.8-64.02-3-79.04 9.8-29.03 26.56-24.7 51.22-17.56 75.72 14.02 40.63 40.61 77.58 75.7 101.6 17.2 13.76 34.78 19.78 53.1 10.59 16.72-10.9 27.08-8.71 38.47-8.63 24 3.8 36.97-6.97 48.93-21.97 25.39-61.77 16.24-102.2 9.4-99.65-27.38 10.21-55-12.74-57.57-26.82-3.06-13.14-4.26-47 38.75-52.93 3.08-.43-11.33-17.7-38.67-17.13-29.75 2.04-52.9 12.75-71.5 29.42z" style="stroke:maroon;stroke-width:3.4022;fill:maroon" transform="translate(-4.05 -750.13)"/><path d="M138.46 778.57c-.1 2.18-3.33 3.17-7.2 2.2-3.88-.98-6.94-3.54-6.83-5.72.1-2.19 3.33-3.17 7.2-2.2 3.88.98 6.93 3.54 6.83 5.72z" style="stroke:#28170b;stroke-width:1.1341;fill:#502d16" transform="translate(-4.05 -750.13)"/><path d="M131.77 837.78c-32.25-3.8-62.45-2.31-79.04 9.8-29.03 26.56-24.7 51.22-17.56 75.72 14.02 40.63 40.61 77.58 75.7 101.6 17.2 13.76 34.78 19.78 53.1 10.59 16.72-10.9 27.08-8.71 38.47-8.63 24 3.8 36.97-6.97 48.93-21.97 24.19-34.22 18.9-101.08 11.75-99.91-36.06 5.88-56.63-14.45-58.67-25.58-3.68-15.81 1.44-48.11 37.73-52.6 8.92-1.1-14.4-18.96-38.9-18.44-29.75 2.04-52.9 12.75-71.5 29.42z" style="fill:url(#a)" transform="translate(-4.05 -750.13)"/><path d="M138.46 778.57c-.1 2.18-3.33 3.17-7.2 2.2-3.88-.98-6.94-3.54-6.83-5.72.1-2.19 3.33-3.17 7.2-2.2 3.88.98 6.93 3.54 6.83 5.72z" style="stroke:#28170b;stroke-width:1.1341;fill:url(#b)" transform="translate(-4.05 -750.13)"/></svg>