<svg xmlns="http://www.w3.org/2000/svg" width="312.08" height="568.65" viewBox="0 0 292.58 533.11"><defs><filter id="c" width="1.03" height="1.2" x="-.01" y="-.1" style="color-interpolation-filters:sRGB"><feGaussianBlur stdDeviation="1.23"/></filter><filter id="b" width="1.04" height="1.08" x="-.02" y="-.04" style="color-interpolation-filters:sRGB"><feGaussianBlur stdDeviation=".74"/></filter><filter id="a" width="1.1" height="1.06" x="-.05" y="-.03" style="color-interpolation-filters:sRGB"><feGaussianBlur stdDeviation="5.59"/></filter><filter id="d" width="3.44" height="1.13" x="-1.22" y="-.06" style="color-interpolation-filters:sRGB"><feGaussianBlur stdDeviation="9.02"/></filter><filter id="f" width="1.06" height="1.28" x="-.03" y="-.14" style="color-interpolation-filters:sRGB"><feGaussianBlur stdDeviation="2.89"/></filter><filter id="e" width="1.06" height="1.28" x="-.03" y="-.14" style="color-interpolation-filters:sRGB"><feGaussianBlur stdDeviation="2.89"/></filter></defs><g transform="translate(-129.55 -242.7)"><path d="M160.68 309.5c17.71-35.44 212.6-35.44 230.31 0 7.92 15.84 17.72 22.22 17.72 35.43v372.04c0 8.36-17.72 17.72-17.72 17.72-41.5 37.83-185.6 36.02-230.6 0 0 0-17.43-10.73-17.43-19.43V344.93c0-13.2 11.81-23.62 17.72-35.44z" style="fill:#000;fill-rule:evenodd;stroke:#000;stroke-width:1px;stroke-linecap:butt;stroke-linejoin:miter;stroke-opacity:1;filter:url(#a)"/><path d="M159.45 308.27c17.72-35.44 212.6-35.44 230.31 0 7.93 15.84 17.72 22.23 17.72 35.43v372.05c0 8.35-17.72 17.71-17.72 17.71-41.5 37.83-185.6 36.02-230.6 0 0 0-17.43-10.73-17.43-19.43V343.7c0-13.2 11.81-23.62 17.72-35.43z" style="fill:#0ff;fill-rule:evenodd;stroke:#000;stroke-width:1px;stroke-linecap:butt;stroke-linejoin:miter;stroke-opacity:1"/><ellipse cx="274.93" cy="297.59" rx="119.27" ry="34.98" style="opacity:1;fill:#999;fill-opacity:1;stroke:#000;stroke-width:1.07568479;stroke-linecap:round;stroke-linejoin:bevel;stroke-miterlimit:4;stroke-dasharray:none;stroke-dashoffset:0;stroke-opacity:1"/><ellipse cx="274.29" cy="294.35" rx="113.48" ry="31.77" style="opacity:1;fill:#fff;fill-opacity:1;stroke:#000;stroke-width:.25;stroke-linecap:round;stroke-linejoin:bevel;stroke-miterlimit:4;stroke-dasharray:none;stroke-dashoffset:0;stroke-opacity:1"/><ellipse cx="272.99" cy="298.4" rx="108.34" ry="26.8" style="opacity:1;fill:#f2f2f2;fill-opacity:1;stroke:#000;stroke-width:.89737141;stroke-linecap:round;stroke-linejoin:bevel;stroke-miterlimit:4;stroke-dasharray:none;stroke-dashoffset:0;stroke-opacity:1"/><path d="M262.85 277.27c-14.13-.17-24.81 2.96-24.46 7.17 1.16 9.27 1.7 15.4 8.95 26.55 6.17 15.54 32.48 12.7 46.9 12.51 25.38.84 45.45-4.64 44.82-12.22-1.04-4.28-2.61-7.06-5.22-9.61-9.8-9.6-36.58-18.83-36.58-18.83-4.61-3.01-21.89-5.17-32.5-5.53a91.2 91.2 0 0 0-1.91-.04z" style="opacity:1;fill:#f2f2f2;fill-opacity:1;stroke:#000;stroke-width:.5;stroke-linecap:round;stroke-linejoin:bevel;stroke-miterlimit:4;stroke-dasharray:none;stroke-dashoffset:0;stroke-opacity:1;filter:url(#b)"/><ellipse cx="284.04" cy="313.33" rx="35.66" ry="12.97" style="opacity:1;fill:#1a1a1a;fill-opacity:1;stroke:#000;stroke-width:1;stroke-linecap:round;stroke-linejoin:bevel;stroke-miterlimit:4;stroke-dasharray:none;stroke-dashoffset:0;stroke-opacity:1" transform="rotate(-1.44)"/><path d="M272.99 271.6a108.34 26.64 0 0 0-108.34 26.64 108.34 26.64 0 0 0 .38 2.11A108.34 26.64 0 0 1 273 275.6a108.34 26.64 0 0 1 107.96 24.52 108.34 26.64 0 0 0 .38-1.88 108.34 26.64 0 0 0-108.34-26.64z" style="opacity:1;fill:#333;fill-opacity:1;stroke:#000;stroke-width:.89468133;stroke-linecap:round;stroke-linejoin:bevel;stroke-miterlimit:4;stroke-dasharray:none;stroke-dashoffset:0;stroke-opacity:1;filter:url(#c)" transform="matrix(1 -.00583 0 1 0 1.6)"/><ellipse cx="109.78" cy="370.44" rx="6.29" ry="7.93" style="opacity:1;fill:#f2f2f2;fill-opacity:1;stroke:#000;stroke-width:.61732566;stroke-linecap:round;stroke-linejoin:bevel;stroke-miterlimit:4;stroke-dasharray:none;stroke-dashoffset:0;stroke-opacity:1" transform="matrix(.95418 -.29924 .4813 .87656 0 0)"/><path d="M272.99 271.6c-59.84 0-104.74 13.22-114.4 26.6.01.7.14 1.41.38 2.12 20.6-15.97 57.55-25.13 114.36-25.14 56.49 0 92.78 11.04 112.45 24.97.22-.62.35-1.25.38-1.88-16.22-16.08-53.34-26.67-113.17-26.67z" style="opacity:1;fill:#fff;fill-opacity:1;stroke:#000;stroke-width:.89468133;stroke-linecap:round;stroke-linejoin:bevel;stroke-miterlimit:4;stroke-dasharray:none;stroke-dashoffset:0;stroke-opacity:1;filter:url(#c)" transform="matrix(.88853 -.0042 0 .72208 30.89 75.87)"/><path d="M266.68 243.77c-9.92 0-15.7 7.68-12.97 17.22l7.98 27.81c2.74 9.54 12.93 17.22 22.85 17.22h.48c9.92 0 15.71-7.68 12.97-17.22l-7.98-27.81c-2.73-9.54-12.92-17.22-22.85-17.22zm-1.99 6.63h8.27a9.65 9.65 0 0 1 8.78 6.62c1.05 3.67-1.17 8.62-4.99 8.62h-8.26c-3.82 0-7.74-4.95-8.79-8.62-1.05-3.67 1.18-6.62 5-6.62zm7.38 21.19h5.67a9.65 9.65 0 0 1 8.79 6.62l3.42 11.91c1.05 3.67-1.18 6.63-5 6.63h-5.66a9.65 9.65 0 0 1-8.8-6.63l-3.41-11.91c-1.05-3.67 1.17-6.62 4.99-6.62z" style="opacity:1;fill:#f2f2f2;fill-opacity:1;stroke:#000;stroke-width:1.01042068;stroke-linecap:round;stroke-linejoin:bevel;stroke-miterlimit:4;stroke-dasharray:none;stroke-dashoffset:0;stroke-opacity:1" transform="matrix(1.30308 0 .18511 .99774 -139.66 .62)"/><path d="M267.7 243.12c-9.91 0-15.7 7.68-12.96 17.22l7.98 27.81c2.73 9.54 12.93 17.22 22.85 17.22h.48c9.92 0 15.7-7.68 12.97-17.22l-7.98-27.8c-2.74-9.55-12.93-17.23-22.85-17.23zm-1.98 6.63h8.26a9.65 9.65 0 0 1 8.79 6.62c1.05 3.67-1.17 8.62-4.99 8.62h-8.26c-3.82 0-7.74-4.95-8.8-8.62-1.04-3.67 1.18-6.62 5-6.62zm7.37 21.19h5.68a9.65 9.65 0 0 1 8.78 6.62l3.42 11.92c1.06 3.66-1.17 6.62-4.99 6.62h-5.67a9.65 9.65 0 0 1-8.78-6.62l-3.42-11.92c-1.06-3.67 1.17-6.62 4.98-6.62z" style="opacity:1;fill:#f2f2f2;fill-opacity:1;stroke:#000;stroke-width:1.01042068;stroke-linecap:round;stroke-linejoin:bevel;stroke-miterlimit:4;stroke-dasharray:none;stroke-dashoffset:0;stroke-opacity:1" transform="matrix(1.30308 0 .18511 .99774 -139.66 .62)"/><ellipse cx="282.88" cy="291.05" rx="4.31" ry="2.53" style="opacity:1;fill:#f2f2f2;fill-opacity:1;stroke:#000;stroke-width:.63148612;stroke-linecap:round;stroke-linejoin:bevel;stroke-miterlimit:4;stroke-dasharray:none;stroke-dashoffset:0;stroke-opacity:1"/><path d="m209.53 504.67-28.27-4.62-3.4 27.03 27.05 5.85-2.2 24.56-28.26-3.39M262.34 509.49l-31.93-2.13-.69 52.31 33.15 2.12zM288.1 510l1.76 51.51 30.63-4-.53-51.97zM345 554.81l12.5-54.1 23.83 51.28M374.23 533.66l-26.95 3.95" style="fill:none;fill-rule:evenodd;stroke:#000;stroke-width:1px;stroke-linecap:butt;stroke-linejoin:miter;stroke-opacity:1"/><path d="M170.57 384.73h17.72v343.14h-17.72z" style="opacity:.33200001;fill:navy;fill-rule:evenodd;stroke:none;stroke-width:1px;stroke-linecap:butt;stroke-linejoin:miter;stroke-opacity:1;filter:url(#d)" transform="matrix(1.90839 0 0 1.18706 -159.31 -124.3)"/><path d="M170.57 384.73h17.72v343.14h-17.72z" style="opacity:.33200001;fill:navy;fill-rule:evenodd;stroke:none;stroke-width:1px;stroke-linecap:butt;stroke-linejoin:miter;stroke-opacity:1;filter:url(#d)" transform="matrix(3.00965 0 0 1.18707 -174.98 -127.99)"/><path d="M170.57 384.73h17.72v343.14h-17.72z" style="opacity:.33200001;fill:navy;fill-rule:evenodd;stroke:none;stroke-width:1px;stroke-linecap:butt;stroke-linejoin:miter;stroke-opacity:1;filter:url(#d)" transform="matrix(3.21654 0 0 1.1796 -255.04 -109.11)"/><path d="M272.99 251.61c-59.84 0-104.74 33.21-114.4 46.6.01.7.14 1.4.38 2.1 20.6-15.96 57.55-42.25 114.36-42.27 56.49 0 92.78 28.18 112.45 42.11.22-.62.35-1.25.38-1.88-16.22-16.08-53.34-46.66-113.17-46.66z" style="opacity:1;fill:#fff;fill-opacity:1;stroke:none;stroke-width:.89468133;stroke-linecap:round;stroke-linejoin:bevel;stroke-miterlimit:4;stroke-dasharray:none;stroke-dashoffset:0;stroke-opacity:1;filter:url(#e)" transform="matrix(1.1519 .00408 0 -.70041 -39.98 921.98)"/><path d="M218.57 384.73h17.72v343.14h-17.72z" style="opacity:.374;fill:#fff;fill-rule:evenodd;stroke:none;stroke-width:1px;stroke-linecap:butt;stroke-linejoin:miter;stroke-opacity:1;filter:url(#d)"/><g style="font-style:normal;font-variant:normal;font-weight:400;font-stretch:normal;font-size:90px;line-height:125%;font-family:&quot;Academic M54&quot;;-inkscape-font-specification:&quot;Academic M54&quot;;text-align:center;letter-spacing:0;word-spacing:0;text-anchor:middle;fill:#d40000;fill-opacity:1;stroke:#000;stroke-width:1px;stroke-linecap:butt;stroke-linejoin:miter;stroke-opacity:1"><path d="m220.85 558.18-8.77 6.42-21.92-3.27-7.51-7.94 1.03-11.07 12.69 1.18-.52 5.56 12.82 2.42 1.43-15.31-17.33-1.62-7.5-7.98 2.44-27.52 8.86-6.46 13.25 2.46 3.74 3.97.33-3.6 12.7 1.2-1.7 18.24-12.7-1.19.52-5.55-12.82-2.42-1.43 16.54 17.42 1.62 7.42 7.97zM311.74 499.03l8.27 7.28.04 53.27-8.26 7.26-35.03 1.25v-12.75h3.64l-.03-42.32h-3.64l-.01-12.74 16.43-.02v3.6l4.09-3.6zm-4.44 55.07-.03-42.33-14.1 1.24.02 42.32zM353.23 562.3l-1.45-12.66 3.58-.41-1.73-5.42-12.14 2.62-.45 5.67 3.67-.42 1.45 12.66-19.95 2.3-1.46-12.66 3.37-.39 4.74-57.21 17.81-3.28 17.61 54.64 3.45-.4 1.46 12.67zm-10.62-28.82 7.03-.81-5.56-17.19zM270.57 560.87l-8.22 7.2-23.73-1.23-8.13-7.22.03-53.35 8.14-7.25 23.73 1.24 8.21 7.26zm-12.78-5.54.02-42.32-14.55-1.24-.02 42.32z" style="fill:#d40000;stroke:#000" transform="matrix(1.18871 -.01214 .01021 .99995 -56.22 3.4)"/></g><path d="M218.57 384.73h17.72v343.14h-17.72z" style="opacity:.332;fill:#fff;fill-rule:evenodd;stroke:none;stroke-width:1px;stroke-linecap:butt;stroke-linejoin:miter;stroke-opacity:1;filter:url(#d)"/><path d="M272.99 251.61c-59.84 0-104.74 33.21-114.4 46.6.01.7.14 1.4.38 2.1 20.6-15.96 57.55-42.25 114.36-42.27 56.49 0 92.78 28.18 112.45 42.11.22-.62.35-1.25.38-1.88-16.22-16.08-53.34-46.66-113.17-46.66z" style="opacity:1;fill:#fff;fill-opacity:1;stroke:none;stroke-width:.89468133;stroke-linecap:round;stroke-linejoin:bevel;stroke-miterlimit:4;stroke-dasharray:none;stroke-dashoffset:0;stroke-opacity:1;filter:url(#f)" transform="matrix(1.1519 .00408 0 -.70041 -39.98 545.98)"/></g></svg>