<svg xmlns="http://www.w3.org/2000/svg" xmlns:xlink="http://www.w3.org/1999/xlink" version="1.0" viewBox="0 0 306.94 235.48"><defs><linearGradient id="a"><stop offset="0" style="stop-color:#b9793f"/><stop offset="1" style="stop-color:#704b27"/></linearGradient><linearGradient xlink:href="#a" id="b" x1="226.34" x2="261.12" y1="402.39" y2="469.15" gradientTransform="translate(311.3 -227.78)" gradientUnits="userSpaceOnUse"/><linearGradient xlink:href="#a" id="c" x1="444.11" x2="217.97" y1="617.2" y2="452.26" gradientTransform="translate(292.32 -183.18)" gradientUnits="userSpaceOnUse"/><linearGradient xlink:href="#a" id="d" x1="637.95" x2="630.61" y1="393.08" y2="567.3" gradientTransform="translate(266.7 -205.01)" gradientUnits="userSpaceOnUse"/><linearGradient xlink:href="#a" id="e" x1="608.62" x2="445.34" y1="503.91" y2="612.57" gradientTransform="translate(292.32 -183.18)" gradientUnits="userSpaceOnUse"/><linearGradient xlink:href="#a" id="f" x1="380.83" x2="440.25" y1="432.99" y2="644.77" gradientTransform="translate(292.32 -183.18)" gradientUnits="userSpaceOnUse"/><linearGradient xlink:href="#a" id="g" x1="582.69" x2="472.53" y1="569.84" y2="674.25" gradientTransform="translate(297.07 -238.22)" gradientUnits="userSpaceOnUse"/><linearGradient xlink:href="#a" id="h" x1="352.16" x2="345.65" y1="603.48" y2="712.58" gradientTransform="translate(297.79 -238.87)" gradientUnits="userSpaceOnUse"/></defs><path d="m685.56 139.7-43.93-50.44-177.4 98.4 62.28 61.82c4.17-.19 160.06-110.65 159.05-109.78z" style="stroke-linejoin:round;fill-rule:evenodd;stroke:#000;stroke-width:5.5637;fill:url(#b)" transform="translate(-255.65 -31.94) scale(.57812)"/><path d="m736.44 405.23-1.8 54.73L510.3 294.92l2.4-52.96 223.74 163.27z" style="fill-rule:evenodd;fill:url(#c)" transform="translate(-255.65 -31.94) scale(.57812)"/><path d="M687.66 137.62c5.7-4.07 63.5-79.59 63.5-79.59l219.18 155.02-94.78 113.3" style="stroke-linejoin:round;fill-rule:evenodd;stroke:#000;stroke-linecap:round;stroke-width:5.5637;fill:url(#d)" transform="translate(-255.65 -31.94) scale(.57812)"/><path d="m736.13 403.95-2.35 56.1L903.03 346.9l-.8-52.74-166.1 109.78z" style="fill-rule:evenodd;fill:url(#e)" transform="translate(-255.65 -31.94) scale(.57812)"/><path d="m862.07 355.24-2.74 25.1-56.23 34.93.62-21.7z" style="fill-rule:evenodd;fill:#fff;fill-opacity:.2" transform="translate(-255.65 -31.94) scale(.57812)"/><path d="m512.03 241.21 174.81-101.68L902.4 293.27 736.52 405.03 512.03 241.21z" style="stroke-linejoin:round;fill-rule:evenodd;stroke:#000;stroke-width:5.5637;fill:url(#f)" transform="translate(-255.65 -31.94) scale(.57812)"/><path d="m511.95 241.41-3.07 53.63" style="stroke:#000;stroke-linecap:round;stroke-width:5.5121;fill:none" transform="translate(-255.65 -31.94) scale(.57812)"/><path d="m737.95 404.17 46.47 1.9L952.86 295.9l-50.36-3.33z" style="stroke-linejoin:round;fill-rule:evenodd;stroke:#000;stroke-linecap:round;stroke-width:5.5637;fill:url(#g)" transform="translate(-255.65 -31.94) scale(.57812)"/><path d="m514.88 239.9-69.9 36.41 220.93 164.3 74-37.14z" style="stroke-linejoin:round;fill-rule:evenodd;stroke:#000;stroke-width:5.564;fill:url(#h)" transform="translate(-255.65 -31.94) scale(.57812)"/><path d="m625.27 224.32 179.79 132.45" style="stroke:#000;stroke-width:5.5637;fill:none" transform="translate(-255.65 -31.94) scale(.57812)"/><path d="m771.85 426.41-1.2-12.44 10.65-4.45-20.65-6.04-18.38 23.23 9.9-3.61-.63 11.96 20.31-8.65z" style="fill-rule:evenodd;stroke:#000;stroke-width:1px;fill:#000" transform="translate(-255.65 -31.94) scale(.57812)"/><path d="m684 142.41 1.94 52.67-.4.67" style="stroke:#000;stroke-width:5.5637;fill:none" transform="translate(-255.65 -31.94) scale(.57812)"/><path d="m683.18 190.16 179.4 130.2" style="stroke:#000;stroke-width:5.08;fill:none" transform="translate(-255.65 -31.94) scale(.57812)"/><path d="m683.07 192.31-129.04 73.26" style="stroke:#000;stroke-width:5.5637;fill:none" transform="translate(-255.65 -31.94) scale(.57812)"/><path d="m690.83 428.68 43.04 31.57" style="stroke:#000;stroke-width:5.7731;fill:none" transform="translate(-255.65 -31.94) scale(.57812)"/><path d="M902.92 347.74 731.79 460.4" style="stroke:#000;stroke-linecap:round;stroke-width:4.1825;fill:none" transform="translate(-255.65 -31.94) scale(.57812)"/><path d="m903.49 347.96-.35-21.06" style="stroke:#000;stroke-width:4.2708;fill:none" transform="translate(-255.65 -31.94) scale(.57812)"/></svg>