<svg xmlns="http://www.w3.org/2000/svg" xml:space="preserve" id="Layer_1" x="0" y="0" style="enable-background:new 0 0 854.2 1694.71" version="1.1" viewBox="0 0 854.2 1694.71"><style>.st0{fill:#036284}.st1{fill:#0a607e}.st2{fill:#066180}.st3{fill:#bbe0e9}.st4{fill:#046282}.st5{fill:#016386}.st6{fill:#fff}.st7{fill:#687065}.st8{fill:#c9eaf1}.st9{fill:#026385}.st11{fill:#026384}.st20{fill:#f4faf8}.st22{fill:#abb0a5}</style><g id="_x23_036284ff"><path d="M727.5 448.94c18.7-3.09 37.28-6.85 55.95-10.06-10.18 12.08-26.15 16.64-41.07 19.57-23.77 4.32-47.99 4.75-72.01 6.78-38.5 2.74-76.33 12.63-115.08 12.35-12.64.77-25.31.05-37.95-.45-10.7-.16-21.64-.2-31.96 2.98-2.46 1.08-4.7-.88-7.08-1.25-5.74-1.06-11.15 2.11-16.87 1.92-25.03-.04-50.08.14-75.11-.1-35.56-3.93-71.37-4.5-107.09-6.22-31.81-1.65-63.87-3.66-94.9-11.32-5.51-1.31-10.84-3.28-16.37-4.53 2.11-.23 4.23-.49 6.38-.49 44.7.59 89.34 3.45 134.01 5.13 26.18 1.02 52.38 1.51 78.58 1.43-7.36 5.14-16.64 6.05-25.35 5.35-10.52-.87-20.99-2.51-31.56-2.37 26.24 4.07 52.82 5.77 79.34 7.06 106.63 4.4 213.19-7.72 318.14-25.78z" class="st0"/><path d="M417.85 480.85c-12.61 0-22.34-.04-31.53-.13-26.49-2.93-53.57-4.01-79.75-5.05-8.96-.36-18.23-.73-27.34-1.17-33.97-1.76-64.56-3.83-94.91-11.32-2.63-.63-5.27-1.42-7.82-2.18-2.79-.83-5.66-1.7-8.55-2.35l.01-.09.62-.07c1.88-.21 3.82-.42 5.76-.42 29.42.39 59.3 1.78 88.19 3.13 15.02.7 30.54 1.42 45.82 2 24.5.95 49.08 1.44 73.07 1.44l5.51-.01h.15l-.12.09c-5.29 3.69-12.15 5.56-20.41 5.56a61 61 0 0 1-4.97-.21c-3.18-.26-6.41-.6-9.53-.93-6.79-.71-13.8-1.45-20.74-1.45h-.71c24.76 3.81 49.42 5.54 78.77 6.97 14.56.6 29.56.91 44.58.91h.02c80.82 0 167.73-8.48 273.53-26.69 10.28-1.7 20.7-3.63 30.78-5.5 8.25-1.53 16.77-3.11 25.17-4.56l.13-.02-.08.1c-4.66 5.53-10.8 9.86-18.78 13.23-7.71 3.26-15.98 5.11-22.32 6.36-16.84 3.06-34.19 4.19-50.97 5.28-6.9.45-14.04.91-21.05 1.5-15.9 1.13-31.94 3.52-47.46 5.83-21.54 3.21-43.81 6.52-66 6.52l-1.62-.01c-3.73.23-7.64.34-11.97.34-7.04 0-14.2-.3-21.12-.59l-4.87-.2c-1.98-.03-4.09-.06-6.17-.06-7.87 0-17.09.36-25.77 3.04-.49.22-1 .32-1.55.32a8.74 8.74 0 0 1-3.13-.81c-.79-.31-1.6-.63-2.42-.76-.79-.15-1.59-.22-2.45-.22-2.33 0-4.66.54-6.92 1.07-2.27.53-4.62 1.08-6.99 1.08l-.5-.01-8.09-.01a10373.14 10373.14 0 0 0-35.5.05zm-249.61-22.23c2.8.65 5.59 1.48 8.29 2.29 2.55.76 5.18 1.55 7.81 2.18 30.34 7.49 60.93 9.56 94.89 11.32 9.11.44 18.38.81 27.34 1.17 26.18 1.05 53.26 2.13 79.75 5.05 9.19.09 18.91.13 31.53.13l17.75-.02a10384.9 10384.9 0 0 1 25.84-.01l.5.01c2.36 0 4.7-.55 6.97-1.07 2.26-.53 4.6-1.07 6.94-1.07a11.99 11.99 0 0 1 4.9.98c1.01.4 2.05.81 3.1.81.54 0 1.03-.1 1.52-.32 8.7-2.68 17.92-3.04 25.8-3.04 2.08 0 4.2.03 6.18.06l4.87.2c6.92.29 14.08.59 21.11.59 4.33 0 8.24-.11 11.97-.34l1.62.01c22.19 0 44.46-3.32 65.99-6.52 15.52-2.31 31.57-4.7 47.47-5.83 7-.59 14.14-1.06 21.05-1.5 16.78-1.09 34.12-2.22 50.96-5.28 14.52-2.85 30.73-7.39 40.96-19.46-8.36 1.44-16.84 3.01-25.04 4.54-10.08 1.87-20.49 3.8-30.78 5.5-105.79 18.21-192.72 26.69-273.54 26.69h-.02c-15.03 0-30.03-.31-44.59-.91-29.58-1.44-54.39-3.19-79.34-7.06l.01-.09 1.29-.01c6.94 0 13.96.74 20.75 1.45 3.12.33 6.35.67 9.53.93 1.71.14 3.38.21 4.97.21 8.17 0 14.98-1.84 20.23-5.46l-5.36.01c-23.99 0-48.57-.48-73.07-1.44-15.28-.57-30.8-1.3-45.82-2-28.9-1.35-58.78-2.74-88.19-3.13-1.93 0-3.87.21-5.75.42l-.39.01zM535.22 1519.94c7.78-7.19 19.19-6.4 29.03-6.22-.36 2.93-.93 6.11-3.28 8.17-4.25 3.9-10.39 4.08-15.8 4.69-.17-1.56-.3-3.06-.44-4.58-2.83-1.87-6.27-1.83-9.51-2.06z" class="st0"/><path d="M545.13 1526.63v-.05c-.14-1.27-.25-2.52-.36-3.73l-.08-.83c-2.46-1.62-5.39-1.79-8.23-1.96l-1.24-.08-.11-.01.08-.07c6.04-5.58 14.15-6.35 22.02-6.35 1.69 0 3.38.04 5.02.07l2.02.04h.05l-.01.05c-.35 2.88-.93 6.12-3.29 8.2-3.78 3.46-8.95 3.99-13.95 4.5l-1.88.2-.04.02zm-9.79-6.73 1.13.07c2.86.17 5.81.35 8.3 1.99l.02.01.08.88c.11 1.19.22 2.43.36 3.68l1.83-.19c4.99-.51 10.14-1.04 13.89-4.48 2.33-2.04 2.91-5.24 3.26-8.09l-1.97-.04c-1.64-.04-3.33-.07-5.02-.07-7.82-.01-15.88.75-21.88 6.24z" class="st0"/></g><g id="_x23_0a607eff"><path d="M401.49 466.96c7.51-1.9 15.3-.45 22.88.2a159.1 159.1 0 0 1 20.77 3.72c-12.27.44-24.56.13-36.83.23-2.86.21-5.8-1.4-6.82-4.15z" class="st1"/><path d="M407.81 471.17a6.71 6.71 0 0 1-6.36-4.2l-.02-.05.05-.01c2.51-.64 5.25-.94 8.37-.94a96 96 0 0 1 10.19.72 157.88 157.88 0 0 1 25.11 4.15l-.01.09c-6.03.22-12.02.24-16.57.24l-7.25-.02a1728.22 1728.22 0 0 0-13.02 0l-.49.02zm-6.25-4.18a6.7 6.7 0 0 0 6.26 4.09l.5-.02a984.97 984.97 0 0 1 13.03 0l7.25.02c4.46 0 10.32-.03 16.24-.23a158.29 158.29 0 0 0-20.45-3.64c-1.44-.12-2.91-.28-4.33-.43-3.34-.35-6.8-.72-10.18-.72-3.12 0-5.83.3-8.32.93z" class="st1"/></g><g id="_x23_066180ff"><path d="M10.37 649.8c1.46 4.15.61 8.96 3.31 12.67-1.15 4.51-.4 9.11.08 13.65.6 5.78-1.97 11.99 1.23 17.34.8-7.23-.64-15.07 3.02-21.69-1.16 33.5-.56 67.02.03 100.53.52 33.43.92 66.94-1.81 100.3-1.98-30.72-2.11-61.52-3.04-92.28-.9-43.51-1.94-87.01-2.82-130.52z" class="st2"/><path d="M16.28 872.6h-.09c-1.38-21.45-1.87-43.3-2.34-64.42-.2-9.13-.42-18.58-.7-27.86-.42-20.27-.88-40.88-1.32-60.8-.51-22.85-1.03-46.48-1.5-69.72l.09-.02c.58 1.64.8 3.4 1.01 5.11.33 2.61.66 5.31 2.29 7.55l.01.02v.02c-1.01 3.95-.55 8.03-.1 11.97l.18 1.66c.21 2.06.02 4.2-.16 6.27-.33 3.7-.67 7.52 1.31 10.93.23-2.16.27-4.41.3-6.59.08-5.09.16-10.36 2.71-14.97l.09.02c-1.15 33.32-.56 67.21.02 99.98l.01.54c.58 37.22.81 68.24-1.81 100.31zm-5.85-222.5c.47 23.14.99 46.66 1.5 69.41.44 19.93.9 40.54 1.32 60.8.28 9.28.49 18.73.7 27.86.47 20.91.95 42.54 2.3 63.78 2.57-31.84 2.33-62.69 1.76-99.65l-.01-.55c-.58-32.71-1.17-66.53-.03-99.79-2.44 4.55-2.53 9.74-2.6 14.76-.04 2.23-.07 4.53-.32 6.74l-.02.14-.07-.12c-2.07-3.46-1.73-7.35-1.4-11.11.18-2.07.37-4.2.16-6.25l-.18-1.66c-.45-3.94-.91-8.02.1-11.98-1.63-2.26-1.97-4.96-2.3-7.58-.21-1.6-.41-3.25-.91-4.8z" class="st2"/></g><g id="_x23_bbe0e9ff"><path d="M309.4 1475.99c16.28-1.28 32.64-.3 48.95-.76 11.49.15 23.13-1.02 34.43 1.62 36.71 4.72 73.73 6.07 110.59 9.09 26.45 1.9 52.93 3.44 79.34 5.88 10.29 1.01 20.87 1.01 30.79 4.28 18.12 6.74 35.6 15.13 52.6 24.34 2.94 1.33 4.9 3.91 6.49 6.64 3.23 5.48 9.12 8.42 14.43 11.52 6.62 3.91 14.06 5.99 21.19 8.77 19.8 6.91 40.49 11.64 59.34 21.01-3.22 7.29-8.17 13.68-13.65 19.41-2.42 2.65-5.51 5.2-5.77 9.07 4.28.45 8.37 1.84 12.56 2.79 14.7.7 27.52-8.91 42.17-8.56-4.09 8.33-11.19 14.61-17.64 21.09-13.11 11.78-27.17 22.57-42.43 31.44a137.07 137.07 0 0 1-32.38 14.58c-4.88 1.34-8.93 4.49-13.49 6.53-3.17.41-6.41-.07-9.55.58-3.34.55-6.1 2.72-9.34 3.54-16.28 3.46-32.65 6.62-48.61 11.37-3.87 1.24-7.95 1.14-11.94 1.46-76.66 12.73-154.64 13.06-232.14 12.98-17.65-.28-35.31.05-52.95-.53-4.92.16-9.53-1.83-14.33-2.54-23.74-4.16-47.73-6.69-71.69-9.19-5.98-.74-12.09-.45-17.95-1.97-17.75-4.28-35.81-7.19-53.46-11.86-7.27-2.73-14.48-5.61-21.91-7.89-9.73-3.9-20.11-5.9-29.69-10.21-16.86-7.53-34.32-14.11-49.74-24.44-7.88-5.05-15.37-11.27-20.05-19.5-.61-3.11-1.11-6.22-1.72-9.3 3.56-.1 7.26-.4 10.68.88 3.97 1.45 7.49 3.9 11.49 5.31 2.81 1.02 5.85.7 8.79.7.83-2.37.66-5.85 3.57-6.71 2.37-1.58 6.65-1.66 7.08-5.1-1.37-4.22-5.42-6.74-8.18-9.99-5.41-6.01-11.4-11.41-17.19-17.02 3.82-4.69 9.04-7.85 13.39-11.98 14.74-11.92 30.95-23 49.68-27.37 9.41-1.44 19.36-1.59 28.3 2.13 1.03-4.96 1.39-10.25 4.19-14.62 5.39-8.06 13.53-13.82 22.27-17.77 9.95-5.21 21.11-7.06 31.83-10.03a170.92 170.92 0 0 1 20.21-3.81c23.65-3.53 47.55-5.25 71.44-5.86m225.82 43.95c3.24.23 6.68.19 9.51 2.06.14 1.52.27 3.02.44 4.58 5.41-.61 11.55-.79 15.8-4.69 2.35-2.06 2.92-5.24 3.28-8.17-9.84-.18-21.25-.97-29.03 6.22m59.81 15.07c3.8.18 7.57-.49 11.37-.59 1.51.07 3.66-.17 4.32 1.64 1.24 2.23-1.95 3.14-3.31 4.18-6.75 4.22-14.76.72-22.08.75-16.81 12.17-37.36 18.31-57.95 19.52-3.1 7.43-11.88 8.2-18.07 11.83-3.15 1.89-8.61-1.27-10.43 2.85 1.48 2.09 4.26 1.85 6.52 1.75 5.68-.43 11.39.22 17.08-.29 23.57-1.34 45.38-12.6 69.11-12.96 1.39-1.97 2.86-4 5.04-5.16 3.11-2.05 7.73-2.86 8.48-7.14 6.32 2.56 13.44 2.36 19.88.29 6.07-1.99 12.35-5.49 15.04-11.6 1.36-2.8.79-5.98.15-8.86-3.12 4.28-5.38 9.23-9.35 12.84-1.88-3.17-5.57-3.93-8.51-5.67-2.48-1.4-1.8-4.49-1.75-6.81 2.84-.25 5.87-.04 8.51-1.32 1.85-1.09 1.42-3.51 1.72-5.28-12.6-3.99-26.86.59-35.77 10.03m-408.9-4.62c-.48 2.55 1.15 5.19 1.21 7.84.31 2.47.1 6.41-3.04 6.87-5.36.46-10.09-2.72-14.84-4.73-.05 3.24-.19 6.61 1.1 9.67 1.89 5.03 6.41 8.29 10.32 11.69 1.68 1.52 4.16 2.69 6.4 1.61 2.31-1.87 1.16-6.05 4.07-7.4 1.22.02 2.45.11 3.68.3.04 2.09-.61 4.63 1.1 6.31 2.27 2.06 5.37 3.57 5.97 6.9 11.05-1.7 22.41-.66 33.17 2.27 12.54 3.25 24.39 8.78 37.1 11.44a57.25 57.25 0 0 0 25.12-.37c-.78-3.04-4.46-3.49-6.83-4.84-19.72-7.79-41.35-8.55-61.28-15.61-5.65-2.11-11.7-4.83-14.84-10.27-2.04-3.58-1.36-7.84.11-11.47-2.64.14-5.48.7-7.9-.65-4.7-2.39-5.67-8.31-9.72-11.37-3.51-2.17-7.81-.2-10.9 1.81m201.33 46.21c.72 1.37.77 3.68 2.65 4.01 9.36 2.33 19.15 1.55 28.7 1.3 7.35-.85 15.17-.76 21.98-3.94-9.26-2.41-18.88-3.01-28.4-3.49-8.32-.21-16.96-.71-24.93 2.12m170.94 13.48c-99 11.08-199.04 10.34-298.25 2.54.15 2.05-.47 4.81 1.43 6.31 2.17 1.78 4.77 3.32 5.67 6.18-5.35-.21-10.38-3.74-15.8-2.2-2.46.79-3.19 3.55-4.13 5.66 8.44 5.16 18.76 4.79 27.94 7.91a18.51 18.51 0 0 1 11.08 8.21c-9.2 1.17-19.43 2.57-26.01 9.83 7.02.41 14.39-.97 21.14 1.57 3.41 1.24 5.1 4.94 4.66 8.42-5.59.33-11.16-1.38-16.71-.47-3.26.51-2.85 4.13-2.8 6.61 17.25-1.66 34.53.52 51.75 1.63 7.7.27 15.82 1.21 23.16-1.73-3.24-4.32-10.8-6.07-9.98-12.64 1.72.44 3.51.53 5.26.06 1.25-2.72 1.18-8.32 5.55-7.23 4 1.01 5.5 5.6 8.49 8.12 3.23 3.71 8.13 5.45 12.98 5.42-.02-4.14-.32-8.39 1.2-12.32 18.97-4.36 38.4-.38 57.41 1.57 10.64 1.13 21.34.09 31.79-2-.89 2.79-3.3 4.43-5.49 6.16-2.41 1.82-2.65 6.58.57 7.72 6.67 3.6 14.11 5.45 21.03 8.54 2.6-2.33 5.23-4.96 6.09-8.46 1.03-4.68 1.09-9.57 3.02-14.02 4.34-.11 8.7-.11 13.05-.28-.75 3.24-3.55 5.18-5.53 7.63-2.03 2.3-1.23 5.54-1.21 8.33 7.21.36 14.47.22 21.64 1.3 14.98 1.76 29.96 6.58 45.15 4.03 6.21-1.38 12.72-3.74 17.09-8.54-14.22-4.57-28.21 3.78-42.46 3.25-4.93.09-8.11-4.42-8.87-8.84 7.96 4.49 17.39 2.23 26.06 2.56-.66-2.77-2.3-5.41-5.08-6.4-7.75-3.04-16.55-.66-24.24-3.91-1.27-.61-3.82-2.13-1.87-3.51 4.86-4.02 10.87-6.35 16.81-8.3 14.18-4.51 29.1-6.1 43.31-10.52 6.71-2.01 13.21-5.15 18.12-10.26-5.36-.57-6.34-7.2-5.62-11.5-9.1 1.44-18.26 2.46-27.4 3.57z" class="st3"/><path d="m397.99 1694.71-12.65-.01c-7.09-.11-14.29-.13-21.26-.14-10.39-.02-21.13-.04-31.69-.39l-.56.01c-2.89 0-5.72-.71-8.45-1.4a52.98 52.98 0 0 0-5.32-1.15c-24.11-4.23-48.3-6.75-71.69-9.19-2.17-.27-4.39-.4-6.53-.53-3.78-.23-7.68-.47-11.42-1.44a712 712 0 0 0-23.4-5.09c-9.9-2.04-20.13-4.14-30.06-6.77l-4.39-1.66a283.37 283.37 0 0 0-17.52-6.23c-4.39-1.76-8.98-3.15-13.42-4.5-5.41-1.64-11.01-3.34-16.27-5.71-3.49-1.56-7.06-3.1-10.52-4.59-13.27-5.73-27-11.66-39.23-19.85a78.54 78.54 0 0 1-11.23-8.56 46.6 46.6 0 0 1-8.83-10.95v-.01c-.3-1.53-.58-3.07-.84-4.57-.28-1.55-.57-3.16-.88-4.73l-.01-.05h.06l1.19-.04c.93-.03 1.9-.06 2.85-.06 1.87 0 4.33.11 6.66.99 1.94.71 3.81 1.67 5.62 2.61 1.88.97 3.83 1.98 5.87 2.7 1.81.66 3.72.75 5.35.75l1.72-.02 1.67-.02c.2-.59.34-1.24.49-1.92.44-2.03.9-4.13 3.09-4.79.75-.5 1.71-.86 2.64-1.2 2.03-.75 4.12-1.53 4.41-3.85-.94-2.87-3.15-4.98-5.29-7.03-.99-.94-2-1.91-2.88-2.94-4.02-4.47-8.44-8.67-12.72-12.74-1.47-1.4-2.99-2.84-4.47-4.28l-.03-.03.03-.03c2.35-2.88 5.27-5.23 8.1-7.49a79.96 79.96 0 0 0 5.29-4.49c8.78-7.1 16.19-12.35 23.35-16.52 9.05-5.28 17.67-8.83 26.35-10.86 4.16-.64 7.89-.94 11.43-.94 6.37 0 11.88 1 16.84 3.05.22-1.07.41-2.17.6-3.23.68-3.9 1.39-7.93 3.59-11.35 4.91-7.34 12.4-13.32 22.29-17.79 7.45-3.9 15.71-5.95 23.7-7.93a278.3 278.3 0 0 0 8.14-2.1 168.24 168.24 0 0 1 20.22-3.81c21.96-3.28 45.33-5.19 71.45-5.86 7.76-.61 15.39-.69 21.82-.69 2.69 0 5.42.02 8.06.03 2.64.02 5.37.03 8.06.03 4.26 0 7.76-.04 11-.13l2.25.01c2.21 0 4.46-.04 6.64-.07 2.18-.04 4.44-.07 6.65-.07 5.63 0 12.29.21 18.9 1.75 24.54 3.16 49.63 4.83 73.89 6.45 12.03.8 24.47 1.64 36.69 2.64 7.55.54 15.22 1.06 22.65 1.57 18.59 1.26 37.82 2.57 56.69 4.31 2.44.24 4.94.43 7.35.61 7.8.58 15.87 1.18 23.45 3.68 16.48 6.13 33.69 14.09 52.61 24.34 3.17 1.43 5.14 4.31 6.51 6.66 2.88 4.88 7.86 7.74 12.68 10.5l1.74 1c4.79 2.83 10.09 4.73 15.22 6.57 1.96.7 3.99 1.43 5.96 2.2a555.6 555.6 0 0 0 19.21 6.19c13.43 4.15 27.32 8.45 40.13 14.82l.04.02-.02.04c-2.84 6.43-7.31 12.78-13.66 19.42-.38.42-.79.84-1.18 1.25-2.13 2.22-4.34 4.52-4.57 7.74 2.9.31 5.75 1.06 8.52 1.78 1.31.34 2.66.7 4 1 .5.02 1.02.04 1.53.04 6.89 0 13.5-2.19 19.9-4.3 6.41-2.12 13.03-4.31 19.95-4.31l.79.01h.07l-.03.07c-3.51 7.14-9.27 12.82-14.84 18.32l-2.81 2.79c-14.38 12.92-28.26 23.21-42.44 31.45a137.23 137.23 0 0 1-32.39 14.58c-3.02.83-5.77 2.38-8.42 3.88-1.63.92-3.32 1.88-5.06 2.65h-.01c-1.4.18-2.83.19-4.22.2-1.76.01-3.57.02-5.32.38-1.82.3-3.49 1.09-5.11 1.86a23.9 23.9 0 0 1-4.23 1.68l-7.81 1.64c-13.47 2.82-27.39 5.74-40.8 9.73-2.95.95-6.07 1.12-9.08 1.28-.94.05-1.92.1-2.87.18-72.26 11.96-145.07 12.95-219.53 12.95zm-65.6-.63c10.56.35 21.3.37 31.69.39 6.97.01 14.17.03 21.26.14l12.65.01c74.45 0 147.26-.99 219.48-12.99.96-.08 1.93-.13 2.88-.18 3.01-.17 6.12-.33 9.06-1.28 13.41-3.99 27.34-6.91 40.81-9.73l7.81-1.64c1.47-.37 2.86-1.03 4.21-1.67 1.62-.77 3.3-1.57 5.13-1.87 1.76-.36 3.58-.37 5.34-.38 1.38-.01 2.81-.02 4.2-.2a60.42 60.42 0 0 0 5.05-2.64c2.66-1.5 5.42-3.05 8.44-3.88a136.87 136.87 0 0 0 32.37-14.58c14.18-8.24 28.05-18.52 42.42-31.44.92-.93 1.88-1.87 2.81-2.78 5.55-5.47 11.29-11.13 14.79-18.23l-.71-.01c-6.9 0-13.52 2.19-19.92 4.3-6.4 2.12-13.02 4.3-19.93 4.3-.52 0-1.04-.01-1.54-.04-1.35-.31-2.7-.66-4.01-1a57.92 57.92 0 0 0-8.55-1.79h-.04v-.04c.22-3.28 2.45-5.6 4.6-7.85.39-.41.8-.83 1.18-1.25 6.33-6.62 10.79-12.95 13.62-19.36-12.8-6.36-26.67-10.65-40.08-14.79-6.33-1.96-12.87-3.98-19.21-6.19-1.97-.77-4-1.5-5.96-2.2-5.13-1.84-10.44-3.74-15.24-6.58l-1.73-1c-4.83-2.77-9.83-5.64-12.71-10.54-1.36-2.34-3.32-5.2-6.47-6.62-18.92-10.25-36.12-18.21-52.6-24.34-7.56-2.49-15.62-3.09-23.42-3.67-2.42-.18-4.92-.37-7.36-.6-18.87-1.74-38.1-3.05-56.69-4.31-7.42-.5-15.1-1.03-22.65-1.57-12.22-1-24.66-1.83-36.69-2.64-24.27-1.62-49.36-3.3-73.9-6.45-6.61-1.54-13.25-1.75-18.88-1.75-2.22 0-4.47.04-6.65.07-2.18.04-4.43.07-6.64.07l-2.25-.01c-3.24.09-6.74.13-11 .13-2.69 0-5.42-.02-8.06-.03-2.64-.02-5.37-.03-8.06-.03-6.44 0-14.06.08-21.82.69-26.12.67-49.48 2.58-71.44 5.86a168.05 168.05 0 0 0-20.21 3.81c-2.69.75-5.46 1.43-8.14 2.1-7.98 1.98-16.23 4.03-23.68 7.93-9.87 4.46-17.36 10.43-22.25 17.75-2.18 3.41-2.89 7.43-3.57 11.31-.19 1.08-.39 2.2-.61 3.29l-.01.06-.05-.02c-4.96-2.07-10.48-3.07-16.86-3.07-3.53 0-7.27.31-11.41.94-19.6 4.57-36.1 16.4-49.66 27.36a82.79 82.79 0 0 1-5.3 4.49c-2.81 2.25-5.72 4.59-8.06 7.45 1.47 1.43 2.98 2.86 4.44 4.25 4.27 4.07 8.7 8.27 12.72 12.75.87 1.02 1.89 1.99 2.87 2.93 2.15 2.05 4.38 4.18 5.32 7.08v.02c-.3 2.38-2.42 3.17-4.48 3.94-.92.34-1.88.7-2.62 1.2l-.01.01c-2.15.63-2.6 2.71-3.03 4.72-.15.7-.3 1.36-.51 1.96l-.01.03h-.03l-1.7.02-1.72.02c-1.64 0-3.56-.09-5.38-.75-2.05-.72-4-1.73-5.88-2.71-1.8-.93-3.67-1.9-5.61-2.6a18.91 18.91 0 0 0-6.63-.98c-.95 0-1.91.03-2.85.06l-1.13.04c.31 1.55.59 3.14.87 4.68.27 1.5.54 3.04.84 4.56 4 7.03 10.55 13.4 20.03 19.48 12.23 8.19 25.95 14.11 39.21 19.84 3.46 1.49 7.03 3.04 10.52 4.59 5.26 2.37 10.85 4.06 16.26 5.71 4.44 1.35 9.04 2.74 13.43 4.5a283.67 283.67 0 0 1 17.53 6.23l4.38 1.66c9.93 2.63 20.16 4.73 30.05 6.77a712 712 0 0 1 23.4 5.09c3.73.97 7.63 1.21 11.41 1.44 2.15.13 4.37.27 6.54.53 23.39 2.44 47.58 4.96 71.69 9.19 1.79.26 3.59.72 5.33 1.15 2.73.69 5.55 1.4 8.43 1.4l.54-.02zM470.35 1654l-.03-.01a123.36 123.36 0 0 0-8.75-3.4c-4.11-1.49-8.37-3.02-12.28-5.14a3.59 3.59 0 0 1-2.36-3.01 5.2 5.2 0 0 1 1.79-4.79l.67-.52c1.95-1.52 3.97-3.09 4.78-5.54a115.55 115.55 0 0 1-22.75 2.45c-3.06 0-6.08-.16-8.97-.46-3.67-.38-7.41-.84-11.04-1.28-9.04-1.11-18.38-2.25-27.56-2.25-6.89 0-13.04.64-18.78 1.96-1.31 3.39-1.25 7.07-1.21 10.62l.02 1.66v.05h-.17c-5.19 0-9.89-1.98-12.89-5.44-1.1-.93-2.02-2.17-2.91-3.36-1.5-2.02-3.05-4.11-5.56-4.74a4.38 4.38 0 0 0-1.03-.14c-2.37 0-3.04 2.49-3.68 4.89-.24.91-.47 1.76-.79 2.45l-.01.02-.02.01c-.78.21-1.6.32-2.44.32-.9 0-1.84-.12-2.79-.36-.5 4.25 2.61 6.51 5.61 8.7 1.6 1.16 3.25 2.36 4.36 3.85l.04.05-.06.02c-3.61 1.45-7.64 2.09-13.06 2.09-2.25 0-4.54-.11-6.75-.21l-3.37-.15c-3.74-.24-7.55-.54-11.23-.82-8.88-.69-18.07-1.41-27.11-1.41-4.81 0-9.2.2-13.41.6h-.05v-.05l-.02-.64c-.08-2.47-.17-5.54 2.86-6.02 1.11-.18 2.28-.27 3.58-.27 1.93 0 3.9.2 5.8.39 1.91.19 3.88.39 5.82.39.51 0 1-.01 1.47-.04.38-3.17-1.08-7.04-4.63-8.33-3.71-1.39-7.62-1.58-10.96-1.58-1.16 0-2.34.03-3.49.05-1.14.02-2.32.05-3.47.05-1.2 0-2.24-.03-3.2-.08l-.1-.01.07-.07c2.95-3.26 6.89-5.62 12.04-7.21 4.64-1.44 9.78-2.1 13.92-2.62a18.37 18.37 0 0 0-11.01-8.13c-3.55-1.2-7.32-1.9-10.97-2.57-5.8-1.07-11.79-2.17-16.98-5.34l-.04-.02.02-.04.44-1.04c.76-1.86 1.63-3.97 3.72-4.65.92-.26 1.87-.39 2.88-.39 2.26 0 4.51.66 6.68 1.29 2.01.59 4.09 1.2 6.19 1.29-.75-2.3-2.62-3.75-4.44-5.15l-1.19-.94c-1.47-1.16-1.45-3.11-1.43-4.82.01-.54.01-1.04-.02-1.52v-.05h.05c49.17 3.87 96.96 5.83 142.04 5.83 54.05 0 106.6-2.81 156.2-8.37l4.91-.59c7.38-.88 15.02-1.8 22.49-2.98l.06-.01-.01.06c-.45 2.67-.28 6.69 1.65 9.24a5.48 5.48 0 0 0 3.93 2.21l.09.01-.07.07c-4.39 4.57-10.33 7.93-18.14 10.27-7 2.18-14.28 3.69-21.33 5.16-7.27 1.51-14.78 3.07-21.98 5.36-5.83 1.91-11.9 4.24-16.79 8.29-.49.35-.72.73-.69 1.13.09 1.02 1.81 1.95 2.55 2.3 3.91 1.65 8.18 1.85 12.31 2.04 3.99.18 8.11.38 11.92 1.87 2.48.88 4.35 3.23 5.11 6.43l.01.06h-.06c-.61-.02-1.24-.03-1.92-.03-1.78 0-3.62.08-5.4.16-1.8.08-3.66.16-5.47.16-3.81 0-8.75-.32-13.2-2.8.76 4.21 3.78 8.71 8.66 8.71h.14c.43.02.88.02 1.32.02h.01c5.36 0 10.77-1.18 16.01-2.33 5.21-1.14 10.61-2.32 15.93-2.32 3.32 0 6.34.45 9.22 1.38l.07.02-.05.05c-3.65 4.01-9.25 6.81-17.11 8.55-2.93.49-5.93.73-9.18.73-7.65 0-15.37-1.37-22.84-2.69-4.31-.76-8.76-1.55-13.14-2.07-5.08-.77-10.3-.92-15.34-1.07-2.06-.06-4.2-.12-6.29-.23h-.04v-.04c0-.59-.04-1.19-.08-1.83-.15-2.31-.3-4.71 1.31-6.53.56-.7 1.2-1.36 1.82-2.01 1.54-1.61 3.13-3.27 3.68-5.54-2.62.1-5.29.14-7.88.18-1.67.03-3.39.05-5.08.09-1.26 2.92-1.73 6.09-2.18 9.15a67.72 67.72 0 0 1-.83 4.83c-.88 3.57-3.61 6.25-6.11 8.49h-.03zm-16.05-22.54-.02.08c-.81 2.52-2.86 4.12-4.84 5.66l-.67.52a5.08 5.08 0 0 0-1.75 4.7 3.5 3.5 0 0 0 2.31 2.94c3.92 2.11 8.17 3.65 12.28 5.13 2.89 1.04 5.88 2.12 8.73 3.39 2.48-2.22 5.19-4.89 6.05-8.42.35-1.59.59-3.24.83-4.83.45-3.08.92-6.26 2.2-9.2l.01-.03h.03c1.7-.04 3.44-.07 5.11-.09 2.6-.04 5.29-.08 7.94-.18h.06l-.01.06c-.54 2.33-2.16 4.01-3.72 5.64-.62.64-1.26 1.31-1.82 2-1.59 1.8-1.43 4.17-1.28 6.47.04.59.08 1.21.08 1.79 2.08.1 4.2.17 6.25.23 5.05.15 10.26.3 15.35 1.07 4.38.51 8.83 1.3 13.14 2.07 7.46 1.32 15.18 2.69 22.82 2.69 3.25 0 6.25-.24 9.17-.73 7.81-1.74 13.38-4.51 17.01-8.47a29.53 29.53 0 0 0-9.12-1.35c-5.31 0-10.7 1.18-15.91 2.32-5.24 1.15-10.66 2.33-16.03 2.33l-1.33-.02h-.14c-4.98 0-8.04-4.6-8.77-8.88l-.02-.1.09.05c4.46 2.51 9.42 2.84 13.24 2.84 1.82 0 3.67-.08 5.47-.16 1.78-.08 3.62-.16 5.4-.16.66 0 1.27.01 1.86.03-.76-3.14-2.6-5.44-5.04-6.31-3.79-1.49-7.91-1.68-11.89-1.86-4.14-.19-8.42-.39-12.35-2.05-.75-.36-2.51-1.32-2.6-2.38-.04-.44.21-.84.73-1.21 4.9-4.05 10.98-6.39 16.82-8.31 7.2-2.29 14.72-3.85 21.99-5.37 7.04-1.46 14.33-2.98 21.32-5.15 7.76-2.32 13.66-5.65 18.03-10.18a5.56 5.56 0 0 1-3.9-2.24c-1.94-2.55-2.12-6.56-1.68-9.24-7.45 1.18-15.07 2.09-22.43 2.97l-4.91.59a1339.53 1339.53 0 0 1-77.99 6.36c-25.39 1.33-51.7 2.01-78.22 2.01-45.06 0-92.84-1.96-141.99-5.82.03.46.02.96.02 1.47-.02 1.78-.05 3.61 1.39 4.75l1.19.94c1.84 1.43 3.75 2.9 4.49 5.26l.02.06h-.07c-2.13-.08-4.24-.7-6.28-1.3-2.17-.63-4.41-1.29-6.66-1.29-1 0-1.94.13-2.85.39-2.05.66-2.91 2.75-3.66 4.59l-.42 1c5.16 3.15 11.14 4.25 16.91 5.31 3.65.67 7.43 1.37 10.98 2.58a18.43 18.43 0 0 1 11.1 8.23l.04.06-.07.01c-8.58 1.09-19.24 2.45-25.91 9.74.93.05 1.94.08 3.1.08 1.15 0 2.33-.03 3.47-.05 1.14-.02 2.33-.05 3.49-.05 3.35 0 7.28.19 11 1.59a6.95 6.95 0 0 1 3.8 3.39 8.67 8.67 0 0 1 .89 5.08v.04h-.04c-.48.03-.99.04-1.52.04-1.95 0-3.92-.2-5.83-.39-1.9-.19-3.86-.39-5.79-.39-1.3 0-2.46.09-3.57.27-2.95.46-2.85 3.49-2.78 5.92l.02.59c4.2-.4 8.57-.6 13.37-.6 9.04 0 18.23.72 27.11 1.41 3.68.29 7.49.58 11.23.82 1.11.04 2.26.09 3.37.15 2.21.1 4.5.21 6.74.21 5.38 0 9.39-.64 12.97-2.06-1.11-1.46-2.73-2.64-4.31-3.78-3.04-2.21-6.19-4.5-5.64-8.84l.01-.05.05.01c.97.25 1.92.37 2.82.37a9 9 0 0 0 2.39-.31c.31-.68.53-1.52.77-2.42.62-2.33 1.32-4.96 3.77-4.96.33 0 .68.05 1.05.14 2.54.64 4.1 2.74 5.61 4.78a19.5 19.5 0 0 0 2.9 3.35c3 3.44 7.67 5.41 12.83 5.41h.07l-.02-1.61c-.05-3.57-.1-7.26 1.22-10.68l.01-.02.02-.01a83.4 83.4 0 0 1 18.82-1.97c9.18 0 18.53 1.15 27.57 2.25 3.62.45 7.37.9 11.04 1.28 2.89.31 5.91.46 8.96.46 7.07 0 14.53-.8 22.81-2.46l.11.01zm-170.23-47.04a56.4 56.4 0 0 1-11.7-1.22c-7.08-1.48-14.01-3.9-20.71-6.23a211.24 211.24 0 0 0-16.39-5.21 84.8 84.8 0 0 0-22.26-3.09c-3.7 0-7.37.28-10.89.82l-.04.01-.01-.04c-.45-2.51-2.36-4-4.21-5.44-.59-.46-1.19-.93-1.74-1.43-1.34-1.32-1.25-3.14-1.16-4.89.03-.49.05-.96.04-1.41a25.9 25.9 0 0 0-3.62-.29c-1.55.72-1.92 2.23-2.31 3.83-.33 1.32-.66 2.69-1.74 3.56-.59.29-1.22.43-1.88.43-1.47 0-3.14-.74-4.58-2.04l-1.68-1.43c-3.45-2.92-7.02-5.94-8.65-10.27-1.22-2.89-1.16-6.06-1.11-9.12l.01-.63.06.03c1.09.46 2.21 1 3.29 1.52 3.33 1.6 6.78 3.25 10.48 3.25.35 0 .71-.01 1.05-.04 3.51-.51 3.18-5.35 3-6.82a14.28 14.28 0 0 0-.65-3.4c-.41-1.47-.83-2.99-.55-4.46v-.02l.02-.01c2.82-1.83 5.34-2.76 7.5-2.76 1.27 0 2.43.32 3.45.95 1.84 1.39 3.06 3.38 4.24 5.31 1.43 2.34 2.91 4.75 5.48 6.06 1.08.6 2.34.88 3.97.88.83 0 1.67-.07 2.49-.13.47-.04.95-.08 1.42-.1h.07l-.03.07c-1.25 3.1-2.29 7.6-.11 11.43 3.05 5.28 8.92 8.05 14.82 10.25 9.41 3.33 19.37 5.3 29 7.19 10.75 2.12 21.87 4.31 32.28 8.42.66.37 1.39.67 2.17.98 2.03.82 4.12 1.66 4.69 3.89l.01.05-.05.01a60.63 60.63 0 0 1-13.47 1.54zm-71.06-15.84a85 85 0 0 1 22.28 3.09c5.56 1.44 11.07 3.36 16.4 5.21 6.7 2.33 13.62 4.74 20.7 6.23 3.81.81 7.74 1.22 11.68 1.22 4.5 0 8.99-.53 13.37-1.57-.58-2.15-2.63-2.98-4.62-3.78-.78-.32-1.52-.61-2.17-.99-10.39-4.1-21.5-6.29-32.25-8.41-9.63-1.9-19.6-3.86-29.02-7.2-5.91-2.21-11.8-4.98-14.87-10.29-2.18-3.83-1.17-8.33.08-11.44l-1.34.1c-.82.07-1.67.13-2.5.13a7.91 7.91 0 0 1-4.01-.89c-2.59-1.32-4.08-3.75-5.52-6.09-1.18-1.92-2.39-3.91-4.21-5.28-1-.62-2.15-.94-3.4-.94-2.13 0-4.63.92-7.43 2.74-.26 1.44.13 2.87.56 4.39.31 1.12.63 2.27.66 3.42.19 1.49.52 6.39-3.08 6.92-.35.03-.71.05-1.06.05-3.73 0-7.18-1.66-10.52-3.26a84.65 84.65 0 0 0-3.22-1.49l-.01.5c-.05 3.05-.11 6.21 1.11 9.08 1.62 4.31 5.18 7.32 8.63 10.24l1.68 1.44c1.42 1.28 3.06 2.02 4.52 2.02.64 0 1.26-.14 1.83-.42 1.04-.84 1.37-2.19 1.7-3.5.38-1.55.78-3.16 2.38-3.9h.02c1.31.02 2.52.12 3.69.3l.04.01v.04c.01.47-.02.95-.04 1.46-.09 1.74-.18 3.53 1.13 4.82.54.49 1.15.97 1.74 1.42 1.85 1.44 3.76 2.94 4.24 5.46a67.3 67.3 0 0 1 10.83-.84zm192.96 13.7c-6.45 0-11.34-.5-15.87-1.63-1.37-.24-1.78-1.5-2.18-2.72-.16-.48-.3-.93-.5-1.32l-.03-.05.05-.02c5.73-2.04 11.85-2.3 16.54-2.3a228.42 228.42 0 0 1 8.41.17c10.18.51 19.34 1.13 28.41 3.49l.13.03-.12.05c-5.28 2.46-11.21 2.97-16.95 3.46-1.66.14-3.38.29-5.04.48l-4.15.13c-2.85.13-5.8.23-8.7.23zm-18.44-5.66c.19.38.34.82.49 1.28.39 1.19.79 2.42 2.11 2.66 4.52 1.12 9.41 1.63 15.85 1.63 2.9 0 5.85-.1 8.7-.2l4.15-.13c1.66-.19 3.38-.34 5.04-.48 5.69-.49 11.57-.99 16.8-3.4-9.02-2.33-18.14-2.95-28.26-3.46l-1.96-.05c-2.11-.06-4.29-.12-6.45-.12-4.68 0-10.77.26-16.47 2.27zm116 .43c-1.58 0-3.53-.21-4.68-1.83l-.02-.02.01-.02c.89-2.02 2.64-2.29 4.41-2.29.47 0 .96.02 1.44.04s.98.04 1.46.04c.95 0 2.17-.08 3.15-.66a45.5 45.5 0 0 1 6.13-2.79c4.8-1.9 9.77-3.87 11.92-9.02l.01-.03h.03c22.05-1.3 42.08-8.04 57.92-19.51l.01-.01h.11c2.26 0 4.63.34 6.92.66 2.31.33 4.7.67 7 .67 3.22 0 5.77-.66 8.04-2.08.32-.24.73-.48 1.17-.73 1.43-.81 3.05-1.72 2.12-3.39-.56-1.54-2.2-1.57-3.64-1.6l-.64-.02c-1.52.04-3.07.17-4.56.3-1.79.16-3.64.32-5.46.32-.46 0-.91-.01-1.34-.03h-.1l.07-.07a36.92 36.92 0 0 1 26.31-11.49c3.28 0 6.47.49 9.5 1.45l.04.01-.01.04c-.07.43-.1.9-.13 1.39-.1 1.52-.19 3.09-1.61 3.92-2.03.98-4.29 1.09-6.49 1.2-.66.03-1.34.07-2 .12l-.06 1.12c-.13 2.08-.27 4.44 1.78 5.6.85.5 1.78.93 2.68 1.35 2.2 1.01 4.47 2.06 5.82 4.29 2.62-2.39 4.52-5.42 6.37-8.35.93-1.48 1.89-3.01 2.94-4.44l.06-.08.02.1c.66 2.98 1.19 6.12-.15 8.89-2.28 5.18-7.35 9.1-15.07 11.62a32.26 32.26 0 0 1-9.9 1.59c-3.54 0-6.88-.63-9.96-1.86-.57 3.11-3.21 4.39-5.76 5.64-.93.46-1.9.93-2.73 1.48-2.23 1.19-3.72 3.29-5.03 5.15l-.01.02h-.02c-12.42.19-24.51 3.42-36.2 6.54-10.65 2.84-21.67 5.78-32.9 6.42-1.57.14-3.29.21-5.41.21a195 195 0 0 1-3.44-.04 195 195 0 0 0-3.44-.04 61 61 0 0 0-4.79.16l-.34.02c-.51.01-1.03.04-1.55.04zm-4.59-1.87c1.13 1.57 3.04 1.77 4.59 1.77.52 0 1.04-.02 1.54-.05l.33-.02a61.1 61.1 0 0 1 4.8-.16 195 195 0 0 1 3.44.04 195 195 0 0 0 3.44.04c2.11 0 3.83-.07 5.4-.21 11.23-.64 22.24-3.58 32.89-6.42 11.69-3.12 23.78-6.35 36.2-6.54 1.31-1.86 2.8-3.96 5.04-5.15.84-.55 1.8-1.03 2.74-1.48 2.54-1.24 5.17-2.52 5.71-5.63l.01-.06.05.02a26.37 26.37 0 0 0 9.98 1.88c3.27 0 6.59-.54 9.87-1.59 7.69-2.52 12.74-6.41 15.01-11.57 1.32-2.72.82-5.8.17-8.73a79.54 79.54 0 0 0-2.87 4.35c-1.86 2.95-3.77 6-6.42 8.41l-.04.04-.03-.05c-1.33-2.24-3.6-3.29-5.8-4.3-.9-.42-1.83-.85-2.69-1.35-2.11-1.19-1.96-3.58-1.83-5.69l.06-1.16v-.04h.04c.67-.06 1.37-.09 2.05-.13 2.18-.11 4.44-.22 6.45-1.19 1.37-.81 1.47-2.35 1.56-3.85.03-.48.06-.93.13-1.36a31.3 31.3 0 0 0-9.44-1.43 36.81 36.81 0 0 0-26.18 11.38c.4.02.81.03 1.24.03 1.82 0 3.67-.16 5.46-.32a76.2 76.2 0 0 1 4.57-.3l.64.02c1.4.02 3.14.06 3.73 1.65.97 1.74-.69 2.68-2.16 3.51-.44.25-.85.48-1.17.72-2.29 1.43-4.85 2.09-8.09 2.09-2.31 0-4.7-.34-7.01-.67a49.38 49.38 0 0 0-6.91-.66h-.08c-15.85 11.47-35.88 18.22-57.93 19.52-2.17 5.17-7.15 7.14-11.96 9.05-2.08.83-4.24 1.68-6.12 2.78-1 .6-2.23.68-3.19.68-.48 0-.98-.02-1.46-.04-.47-.02-.96-.04-1.43-.04-1.75 0-3.46.27-4.33 2.21zm46.19-48.55v-.05c-.14-1.27-.25-2.52-.36-3.73l-.08-.83c-2.46-1.62-5.39-1.79-8.23-1.96l-1.24-.08-.11-.01.08-.07c6.04-5.58 14.15-6.35 22.02-6.35 1.69 0 3.38.04 5.02.07l2.02.04h.05l-.01.05c-.35 2.88-.93 6.12-3.29 8.2-3.78 3.46-8.95 3.99-13.95 4.5l-1.88.2-.04.02zm-9.79-6.73 1.13.07c2.86.17 5.81.35 8.3 1.99l.02.01.08.87c.11 1.19.22 2.43.36 3.68l1.83-.19c4.99-.51 10.14-1.04 13.89-4.48 2.33-2.04 2.91-5.24 3.26-8.09l-1.97-.04c-1.64-.04-3.33-.07-5.02-.07-7.82 0-15.88.76-21.88 6.25z" class="st3"/></g><g id="_x23_046282ff"><path d="M387.46 1576.6c7.97-2.83 16.61-2.33 24.93-2.12 9.52.48 19.14 1.08 28.4 3.49-6.81 3.18-14.63 3.09-21.98 3.94-9.55.25-19.34 1.03-28.7-1.3-1.88-.33-1.93-2.64-2.65-4.01z" class="st4"/><path d="M405.97 1582.28c-6.45 0-11.34-.5-15.87-1.63-1.37-.24-1.78-1.5-2.18-2.72-.16-.48-.3-.93-.5-1.32l-.03-.05.05-.02c5.73-2.04 11.85-2.3 16.54-2.3a228.42 228.42 0 0 1 8.41.17c10.18.51 19.34 1.13 28.41 3.49l.13.03-.12.05c-5.28 2.46-11.21 2.97-16.95 3.46-1.66.14-3.38.29-5.04.48l-4.15.13c-2.85.13-5.8.23-8.7.23zm-18.44-5.66c.19.38.34.82.49 1.28.39 1.19.79 2.42 2.11 2.66 4.52 1.12 9.41 1.63 15.85 1.63 2.9 0 5.85-.1 8.7-.2l4.15-.13c1.66-.19 3.38-.34 5.04-.48 5.69-.49 11.57-.99 16.8-3.4-9.02-2.33-18.14-2.95-28.26-3.46l-1.96-.05a227.7 227.7 0 0 0-6.44-.12c-4.69 0-10.78.26-16.48 2.27z" class="st4"/></g><g id="_x23_016386ff"><path d="M558.4 1590.08c9.14-1.11 18.3-2.13 27.4-3.57-.72 4.3.26 10.93 5.62 11.5-4.91 5.11-11.41 8.25-18.12 10.26-14.21 4.42-29.13 6.01-43.31 10.52-5.94 1.95-11.95 4.28-16.81 8.3-1.95 1.38.6 2.9 1.87 3.51 7.69 3.25 16.49.87 24.24 3.91 2.78.99 4.42 3.63 5.08 6.4-8.67-.33-18.1 1.93-26.06-2.56.76 4.42 3.94 8.93 8.87 8.84 14.25.53 28.24-7.82 42.46-3.25-4.37 4.8-10.88 7.16-17.09 8.54-15.19 2.55-30.17-2.27-45.15-4.03-7.17-1.08-14.43-.94-21.64-1.3-.02-2.79-.82-6.03 1.21-8.33 1.98-2.45 4.78-4.39 5.53-7.63-4.35.17-8.71.17-13.05.28-1.93 4.45-1.99 9.34-3.02 14.02-.86 3.5-3.49 6.13-6.09 8.46-6.92-3.09-14.36-4.94-21.03-8.54-3.22-1.14-2.98-5.9-.57-7.72 2.19-1.73 4.6-3.37 5.49-6.16-10.45 2.09-21.15 3.13-31.79 2-19.01-1.95-38.44-5.93-57.41-1.57-1.52 3.93-1.22 8.18-1.2 12.32-4.85.03-9.75-1.71-12.98-5.42-2.99-2.52-4.49-7.11-8.49-8.12-4.37-1.09-4.3 4.51-5.55 7.23a10.3 10.3 0 0 1-5.26-.06c-.82 6.57 6.74 8.32 9.98 12.64-7.34 2.94-15.46 2-23.16 1.73-17.22-1.11-34.5-3.29-51.75-1.63-.05-2.48-.46-6.1 2.8-6.61 5.55-.91 11.12.8 16.71.47.44-3.48-1.25-7.18-4.66-8.42-6.75-2.54-14.12-1.16-21.14-1.57 6.58-7.26 16.81-8.66 26.01-9.83a18.51 18.51 0 0 0-11.08-8.21c-9.18-3.12-19.5-2.75-27.94-7.91.94-2.11 1.67-4.87 4.13-5.66 5.42-1.54 10.45 1.99 15.8 2.2-.9-2.86-3.5-4.4-5.67-6.18-1.9-1.5-1.28-4.26-1.43-6.31 99.21 7.8 199.25 8.54 298.25-2.54z" class="st5"/><path d="m470.35 1654-.03-.01a123.36 123.36 0 0 0-8.75-3.4c-4.11-1.49-8.37-3.02-12.28-5.14a3.59 3.59 0 0 1-2.36-3.01 5.2 5.2 0 0 1 1.79-4.79l.67-.52c1.95-1.52 3.97-3.09 4.78-5.54a115.55 115.55 0 0 1-22.75 2.45c-3.06 0-6.08-.16-8.97-.46-3.66-.38-7.41-.84-11.04-1.28-9.04-1.11-18.38-2.25-27.56-2.25-6.89 0-13.04.64-18.78 1.96-1.31 3.39-1.25 7.07-1.21 10.62l.02 1.66v.05h-.17c-5.19 0-9.89-1.98-12.89-5.44-1.1-.93-2.02-2.17-2.91-3.36-1.5-2.02-3.05-4.11-5.56-4.74a4.38 4.38 0 0 0-1.03-.14c-2.38 0-3.04 2.49-3.68 4.89-.24.91-.47 1.76-.79 2.45l-.01.02h-.02c-.78.21-1.6.32-2.44.32-.9 0-1.84-.12-2.79-.36-.5 4.25 2.61 6.51 5.61 8.7 1.6 1.16 3.25 2.36 4.36 3.85l.04.05-.06.02c-3.61 1.45-7.64 2.09-13.06 2.09-2.25 0-4.54-.11-6.75-.21l-3.37-.15c-3.74-.24-7.55-.54-11.23-.82-8.88-.69-18.07-1.41-27.11-1.41-4.81 0-9.2.2-13.41.6h-.05v-.05l-.02-.64c-.08-2.47-.17-5.54 2.86-6.02 1.11-.18 2.28-.27 3.58-.27 1.93 0 3.9.2 5.8.39 1.91.19 3.88.39 5.82.39.5 0 1-.01 1.47-.04.38-3.17-1.08-7.04-4.63-8.33-3.71-1.39-7.62-1.58-10.96-1.58-1.16 0-2.34.03-3.49.05-1.14.02-2.32.05-3.47.05-1.2 0-2.24-.03-3.2-.08l-.1-.01.07-.07c2.95-3.26 6.89-5.62 12.04-7.21 4.64-1.44 9.78-2.1 13.92-2.62a18.37 18.37 0 0 0-11.01-8.13c-3.55-1.2-7.32-1.9-10.97-2.57-5.8-1.07-11.79-2.17-16.98-5.34l-.04-.02.02-.04.44-1.04c.76-1.86 1.63-3.98 3.72-4.65.92-.26 1.87-.39 2.88-.39 2.26 0 4.51.66 6.68 1.29 2.01.59 4.09 1.2 6.19 1.29-.75-2.3-2.62-3.75-4.44-5.15l-1.19-.94c-1.47-1.16-1.45-3.11-1.43-4.82.01-.54.01-1.04-.02-1.52v-.05h.05c49.17 3.87 96.96 5.83 142.04 5.83 54.05 0 106.6-2.81 156.2-8.37l4.91-.59c7.38-.88 15.02-1.8 22.49-2.98l.06-.01-.01.06c-.45 2.67-.28 6.69 1.65 9.24a5.48 5.48 0 0 0 3.93 2.21l.09.01-.07.07c-4.39 4.57-10.33 7.93-18.14 10.27-7 2.18-14.28 3.69-21.33 5.16-7.27 1.51-14.78 3.07-21.98 5.36-5.83 1.91-11.9 4.24-16.79 8.29-.49.35-.72.73-.69 1.13.09 1.02 1.81 1.95 2.55 2.3 3.91 1.65 8.18 1.85 12.32 2.04 3.99.18 8.11.38 11.92 1.87 2.48.88 4.34 3.23 5.11 6.43l.01.06h-.06c-.61-.02-1.24-.03-1.92-.03-1.78 0-3.62.08-5.4.16-1.8.08-3.66.16-5.47.16-3.81 0-8.75-.32-13.2-2.8.76 4.21 3.78 8.71 8.66 8.71h.14c.44.02.88.02 1.33.02 5.36 0 10.77-1.18 16.01-2.33 5.21-1.14 10.61-2.32 15.93-2.32 3.32 0 6.34.45 9.22 1.38l.07.02-.05.05c-3.65 4.01-9.25 6.81-17.11 8.55-2.93.49-5.93.73-9.18.73-7.65 0-15.37-1.37-22.84-2.69-4.31-.76-8.76-1.55-13.14-2.07-5.08-.77-10.3-.92-15.34-1.07-2.06-.06-4.2-.12-6.29-.23h-.04v-.04c0-.59-.04-1.19-.08-1.83-.15-2.31-.3-4.71 1.31-6.53.56-.7 1.2-1.36 1.82-2.01 1.54-1.61 3.13-3.27 3.68-5.54-2.62.1-5.29.14-7.88.18-1.67.03-3.39.05-5.08.09-1.26 2.92-1.73 6.09-2.18 9.15a67.72 67.72 0 0 1-.83 4.83c-.88 3.57-3.61 6.25-6.11 8.49l-.04.01zm-16.05-22.54-.02.08c-.81 2.52-2.86 4.12-4.84 5.66l-.67.52a5.08 5.08 0 0 0-1.75 4.7 3.5 3.5 0 0 0 2.31 2.94c3.92 2.11 8.17 3.65 12.28 5.13 2.89 1.04 5.88 2.12 8.73 3.39 2.48-2.22 5.19-4.89 6.05-8.42.35-1.59.59-3.24.83-4.83.45-3.08.92-6.26 2.2-9.2l.01-.03h.03c1.7-.04 3.44-.07 5.11-.09 2.6-.04 5.29-.08 7.94-.18h.06l-.01.06c-.54 2.33-2.16 4.01-3.72 5.64-.62.64-1.26 1.31-1.82 2-1.59 1.8-1.43 4.17-1.28 6.47.04.59.08 1.21.08 1.79 2.08.1 4.2.17 6.25.23 5.05.15 10.26.3 15.35 1.07 4.38.51 8.84 1.3 13.15 2.07 7.46 1.32 15.18 2.69 22.82 2.69 3.25 0 6.25-.24 9.17-.73 7.81-1.74 13.38-4.51 17.01-8.47a29.53 29.53 0 0 0-9.12-1.35c-5.31 0-10.7 1.18-15.91 2.32-5.24 1.15-10.66 2.33-16.03 2.33l-1.33-.02h-.14c-4.98 0-8.04-4.6-8.77-8.88l-.02-.1.09.05c4.46 2.51 9.42 2.84 13.24 2.84 1.82 0 3.67-.08 5.47-.16 1.78-.08 3.62-.16 5.4-.16.66 0 1.27.01 1.86.03-.77-3.14-2.6-5.44-5.04-6.31-3.79-1.49-7.91-1.68-11.89-1.86-4.14-.19-8.42-.39-12.35-2.05-.75-.36-2.51-1.32-2.6-2.38-.04-.44.21-.84.73-1.21 4.9-4.05 10.98-6.39 16.82-8.31 7.2-2.29 14.72-3.85 21.99-5.37 7.04-1.46 14.33-2.98 21.32-5.15 7.76-2.32 13.66-5.65 18.03-10.18a5.56 5.56 0 0 1-3.9-2.24c-1.94-2.55-2.12-6.56-1.68-9.24-7.45 1.18-15.07 2.09-22.43 2.97l-4.91.59a1339.53 1339.53 0 0 1-77.99 6.36c-25.38 1.33-51.7 2.01-78.22 2.01-45.06 0-92.84-1.96-141.99-5.82.03.46.02.96.02 1.47-.02 1.78-.05 3.61 1.39 4.75l1.19.94c1.84 1.43 3.75 2.9 4.49 5.26l.02.06h-.07c-2.13-.08-4.24-.7-6.28-1.3-2.17-.63-4.41-1.29-6.66-1.29-1 0-1.94.13-2.85.39-2.05.66-2.91 2.75-3.66 4.59l-.42 1c5.16 3.15 11.14 4.25 16.91 5.31 3.65.67 7.43 1.37 10.98 2.58a18.43 18.43 0 0 1 11.1 8.23l.04.06-.07.01c-8.58 1.09-19.24 2.45-25.91 9.74.93.05 1.94.08 3.1.08 1.15 0 2.33-.03 3.47-.05 1.14-.02 2.33-.05 3.49-.05 3.35 0 7.28.19 11 1.59a6.95 6.95 0 0 1 3.8 3.39 8.67 8.67 0 0 1 .89 5.08v.04h-.04c-.48.03-.99.04-1.51.04-1.95 0-3.92-.2-5.83-.39-1.9-.19-3.86-.39-5.79-.39-1.3 0-2.46.09-3.57.27-2.95.46-2.85 3.49-2.78 5.92l.02.59c4.2-.4 8.57-.6 13.37-.6 9.04 0 18.23.72 27.12 1.41 3.68.29 7.49.58 11.23.82 1.11.04 2.26.09 3.37.15 2.21.1 4.5.21 6.74.21 5.38 0 9.39-.64 12.97-2.06-1.11-1.46-2.73-2.64-4.31-3.78-3.04-2.21-6.19-4.5-5.64-8.84l.01-.05.05.01c1.84.47 3.61.49 5.21.07.31-.68.53-1.52.77-2.42.62-2.33 1.32-4.96 3.77-4.96.33 0 .68.05 1.05.14 2.54.64 4.1 2.74 5.61 4.78a19.5 19.5 0 0 0 2.9 3.35c3 3.44 7.67 5.41 12.83 5.41h.07l-.02-1.61c-.05-3.57-.1-7.26 1.22-10.68l.01-.02.02-.01a83.4 83.4 0 0 1 18.82-1.97c9.18 0 18.53 1.15 27.57 2.26 3.62.44 7.37.9 11.03 1.28 2.89.31 5.91.46 8.96.46 7.07 0 14.53-.8 22.81-2.46l.09-.01z" class="st5"/></g><path d="M555.4 319.94c7.16-.22 14.34-1.42 21.49-.32-15.71 13.9-37.19 18.42-57.54 19.8-30.74 1.85-61.36-2.38-92.02-3.72-39.64-1.74-79.4.18-118.98-3-19.24-1.64-38.54-4.32-56.92-10.42-12.58-4.27-24.78-10.17-35.03-18.72 10.69.21 21.31 1.5 31.95 2.41 12.8 1.24 25.7 1.49 38.55.79-1.47-3.81-2.3-8.4-.05-12.08 3.02-5.38 9.05-8 14.6-9.96 13.6-4.1 28.45-4.6 42.13-.61 5.84 1.93 12.41 5.22 14.22 11.61 1.61 6.55-2.63 12.47-6.37 17.4 42.89 5.68 86.3 2.96 129.34 6.49-.48-2.81-.27-6.96-3.75-7.84-5.63-1.2-11.4 1.41-17.01-.05-4.11-1.16-6.88-5.95-4.93-9.99 3.46-6.21 13.33-4.12 15.93-11.23 2.21-.02 4.52-.31 6.66.45 1.9.88 2.3 3.11 2.96 4.89 2.84-4.88 8.16-7.67 13.67-8.29 14.58-2 29.26 1.28 43.9-.01 3.1 7.78 9.64 14.24 9.87 23.03-3.87 2.35-8.76 1.29-12.6 3.73l.05 2.8c5.98 3.59 13.19 3.15 19.88 2.84zM689.39 348.69c-7.31 3.19-15.12 5-22.98 6.08-25.57 3.44-51.47 1.29-77.11 3.77-9.57.95-19.19 2.44-28.16 5.99 9.46 5.16 20.82 4.72 31.24 3.7 8.64-.81 17.85-2.64 26.12.96a23.75 23.75 0 0 1 9.87 8.38c-8.7 2.74-17.9 4.51-27.05 3.61-11.38-.91-22.62-3.72-34.07-3.47-7.58 1.85-12.47 8.56-18.92 12.42-48.46-2.29-97.02 1.53-145.51-.57-24.62-1.38-49.63-3.4-73.03-11.71-2.1-.91-4.35-.47-6.42.19.56 1.7 1.88 2.94 3.15 4.14-13.93 4.01-29.67-9.76-26.78-24.09-30.06-11.94-62.26-17.53-94.35-20.45 33.97 1.87 67.91 4.58 101.89 6.49 127.16 7.91 254.81 12.12 382.11 4.56zm-206.5 9.93c-9.5-.01-19 .55-28.49.03-17.1-.76-34.14-2.3-51.2-3.58-18.32-.95-37.13-2.3-54.97 2.92 26.73 1.52 53.34 4.96 80.11 5.96 18.26.43 36.99.34 54.55-5.33z" class="st6"/><path d="M758.16 348.71c4.84.31 9.69-.72 14.53.07l1.16 2.82c-5.88-.17-12.38-.93-17.53 2.54-2.78 1.55-4.24 4.45-5.48 7.24a29.93 29.93 0 0 0 16.6 6.53c14.67 1.2 28.92-4.38 43.61-3.26-7.24 2.63-14.94 4.66-21.03 9.61l-2.75.32c-3.06.77-5.85 2.35-8.95 2.92-5.44 1.29-11.31 1.62-16.19 4.57-5.1 3.14-5.49 10.24-3.92 15.43 2 4.84 8.08 4.28 12.25 5.78-18.77 8.27-38.95 12.74-59.14 15.93-32.56 4.92-65.59 5.96-98.47 5.12-4.52-.66-9.12-.45-13.67-.46 6.08-.73 12.25-1 18.2-2.59 9.27-2.3 17.97-6.51 25.95-11.7l.36.09 4.51-3.26c-3.28-3.42-7.39-6.04-12.12-6.82-10.82-2.01-21.81.17-32.67.69-11.02.79-23.14.51-32.42-6.3 5.35-1.09 10.83-1.11 16.25-1.55 35.72-2.55 71.78-1.74 107.15-8.03 18.79-3.5 38.23-9.22 52.73-22.29-11.34 3.07-25.44 4.81-34.81-3.86 4.06-1.71 8.58-3.15 12.99-1.89 3.78.8 7.42 3.39 11.43 2.35 2.53-1.5 3.78-4.33 4.62-7.04-16.03-4.27-32.72-5.12-48.81-9.02 6.27-.18 12.55.11 18.82-.36 24.72-1.51 48.84-7.5 73.07-12.24 9.11-1.58 18.24-3.55 27.52-3.67-5.92 5.95-14.54 7.53-22.5 8.69-10.91 1.7-22.49 1.76-32.4 7.2-.38 2.25-.43 4.57 1.11 6.44zM800.69 301.83c-3.85.52-8.17-1.68-11.33 1.47 3.6 3.4 8.18 5.57 13.02 6.53a87.62 87.62 0 0 1-21.59 11.94c-18.08 6.91-37.38 9.78-56.54 11.71-27.59 2.51-55.33 2.49-83.01 2.11 4-.96 8.09-1.42 12.13-2.24 20.36-3.62 40.29-10.76 61.19-10.56-1.2-2.19-3.78-2.79-5.89-3.74-10.87-4.35-22.79-4.78-34.35-4.53-22.73.66-45.2 4.87-67.95 5.04-14.22.38-27.94-5.97-42.21-3.55 1.97-5.41 9.32-3.37 12.42-7.5 1.22-3.26 1.7-7.19-.03-10.35-1.98-3.33-5.98-4.75-7.95-8.08-1.13-1.8-1.13-4.01-1.45-6.04-9.46-.14-18.91.14-28.35-.09 9.92-7.96 23.34-8.81 35.54-9.56 17.7-.97 35.56.6 53.15-2.17a9.63 9.63 0 0 0 3.54-1.35c-11.92-3.41-24.48-2.79-36.69-1.78-14.63 1.38-29.32 2.93-44.04 2.19-5.09.14-10.28.53-15.22-1.06 1.63-2.44 4.76-2.28 7.36-2.56 54.84-5.23 109.97-6.22 164.9-10.21 24.26-1.98 48.57-4.07 72.49-8.73.04 9.99 3.39 19.65 3.19 29.63.01 4.79-2.62 8.93-5.64 12.42 4.44-.33 8.89-1.41 12.58-4 4.61-3.19 8.95-7.04 14.4-8.74l1.71.25c-.18 4.4-.93 9.23-4.35 12.35-4.26 3.65-9.83 5.14-15.19 6.33.35.98.71 1.96 1.11 2.95l2.64.62c3.62-2.4 7.53-5.08 12.14-4.01a19.9 19.9 0 0 1-1.73 5.31zM550.97 235.38c-1.58 5.25-6.6 8.72-11.22 11.26-9.74 4.58-20.86 5.03-31.43 4.58-15.87-.66-31.47-3.92-47.21-5.75-.6-2.02-1.45-4.07-1.16-6.21.75-3.48 3.09-6.36 3.87-9.84.46-2.15.58-4.36.81-6.54 15.37-.65 30.4-4.31 45.71-5.55 8.86-.6 18.21-.39 26.31 3.71 6.28 2.93 11.03 8.35 14.32 14.34zM370.55 228.88c-2.56 1.86-6.12 3.11-7.02 6.48-1.57 5.38.22 11.3-2.32 16.51-23.52 2.02-47.13.86-70.67.02-3.57-7.44-7.21-15.74-14.84-19.85-1.35-1.14-3.94-1.43-4.18-3.43 7.35-8.18 18.28-11.86 28.8-13.9a107.8 107.8 0 0 1 46.06 1.55c8.9 2.22 17.52 6.19 24.17 12.62zm-67.78 19.79c11.94.17 23.89.06 35.83.08l-.03-3.3c-8.88-1.94-18.08-4.99-27.21-2.87-3.61.72-6.49 3.17-8.59 6.09zM250.73 172.84l.38 1.76c-51.7 5.32-103.84.82-155.09-6.67-12.6-2.03-25.27-3.8-37.73-6.5-3-9.42.7-19.1 3.21-28.18a25 25 0 0 0 .34-13.51c22.32-4.15 45.19-2.47 67.61-.03 23.91 2.57 47.79 6.09 71.87 6.45 4.26.09 8.54-.02 12.79.43l.11 2.37c-6.58.98-13.24.49-19.84.21a6.11 6.11 0 0 0-4.18.89c6.38 3.6 13.99 3.71 21.1 3.22 3.7-.18 7.3-1.2 10.62-2.82.88 3.8 5 4.81 8.33 5.48 6.98 1.2 14.07 1.66 21.03 3.01a12.5 12.5 0 0 1-3.79 7.48c-4.93 5.16-12.22 6.84-17.68 11.25-1.11 1.28.45 2.26 1.52 2.71 3.09 1.44 6.46 2.14 9.61 3.45-3.05.48-6.11.83-9.17 1.12a14.8 14.8 0 0 0 1.15 5.76c5.76 2.18 12.14-.36 17.81 2.12zM564.29 158.76c-2.1 8.52-9.89 14.01-17.84 16.55-16.43 5.4-34.03 5.48-51.12 4.61-13.47-.86-27.03-2.37-39.88-6.71-10.24-3.22-20.03-7.63-29.97-11.63-26.9 9.23-54.48 17.73-83.09 19.04-9.34.67-18.72-.12-28.05.69a41.78 41.78 0 0 1-17.99-3.04c-10.62-4.43-18.52-13.54-29.39-17.49-4.75-1.85-9.87-2.23-14.88-2.8 18.96-9.64 41.01-11.9 61.92-9.26 5.25.53 10.27 2.28 15.45 3.22 8.3.08 16.53 1.33 24.82 1.8 60.33 4.05 120.83-1.03 181.2 2.24 9.61.79 19.31.99 28.82 2.78zM388.81 7.44l-.01 2.21c-9.97 0-19.96.98-29.94 1-1.48 0-2.96-.01-4.44-.06-6.06-.33-12.26-.82-17.89-3.25 17.41-.66 34.85.03 52.28.1zM593.27 18.8c-2.65.45-5.33.49-7.99.36a2032.68 2032.68 0 0 1-82.92-4.89c-14.77-.88-29.44-3.01-44.2-3.78l.05-2.43c45.2.99 90.37 3.6 135.06 10.74zM205.33 45.82c-17.5-5.65-36.77-2.64-53.96-9.55-3.98-1.36-6.89-4.42-10.03-7.04-5.83-.34-9.05 5.63-14.02 7.65-1.88-.9-3.5-2.2-4.89-3.73 3.7-3.02 8.86-3.51 12.33-6.86.56-3.05-2.97-4.36-4.6-6.4 26.45-2.74 52.51-8.77 79.1-10.19 10.51-.34 21.39-.44 31.38 3.35-1.43.27-2.89.49-4.32.6-23.37 1.22-46.49 5.14-69.51 9.12 4.14.42 8.35 1.08 12.12 2.97 9.46 4.75 16.37 13.29 25.79 18.1l1.1.49-.49 1.49z" class="st6"/><path d="M205.82 44.33c5.55 2.33 11.58 3.27 17.48 4.3 21.67 3.18 43.57.04 65.04-3.18 24.27-3.85 48.77-7.82 73.44-6.3.14-1.37-.13-3.03-1.77-3.23-10.88-1.35-21.93 1.94-32.75-.3-2.08-.37-3.7-1.74-5.31-2.98-3.98-.04-8.1.44-11.91-1.01-11.47-3.91-24.35-1.24-35.44-6.52-3.64-1.52-5.74-4.95-7.17-8.44 24.96-.14 49.92-.03 74.88-.03 3.74.28 6.47-2.92 10.07-3.43 2.17-.43 4.33-.61 6.49-.61 10.5 0 20.86 4.19 31.44 3.36 3.86-.32 7.68-2.28 9.52-5.81-3.68-.36-7.35-.5-11.03-.5l.01-2.21c2.84.01 5.67.01 8.51-.02 20.28.06 40.59.19 60.89.64l-.05 2.43c16.97 6.52 35.27 8.09 53.27 9.16 26.65 1.64 53.68.71 79.89 6.51 3.47 1.08 7.51 1.21 10.36 3.7-14.04 5.11-29.22 5.65-43.36 10.36-4.88 1.98-10.36 4.29-13.23 8.94 16.48 7.13 34.44 10.05 52.27 10.96 22.82 1.1 45.9-.68 68.04-6.45 5.13-1.46 10.44-2.64 15.2-5.13 6.17-5.75 2.88-15.58 8.28-21.74 1.47-1.72 3.47-4.17 6.04-3.08 8.48 2.44 16.98 5.09 25.82 5.95 1.12.1 2.26.18 3.41.24.4.44.95.79 1.68.98 6.99 1.77 14 3.56 20.61 6.48 5.57 2.46 10.12 6.63 15.51 9.3.7.63 1.96 1 2.77 1.22l.13.02.06.02c.65.23 1.24.25 1.76.15 4.17-.17 7.56-3.85 11.65-4.65 1.96-.49 3.52 1.01 5.11 1.89-5.84 3.6-12.31 6.05-18.77 8.27-18.25 5.73-37.38 7.79-56.39 9.02-28.23 1.64-56.53 1.25-84.78 2.24-2.91.32-6 .87-8.24 2.9 10.8.47 21.75-1.09 32.44 1.11 2.94.68 6.84 1.99 6.8 5.68-36.46-3.41-72.23 6.21-108.23 10.03-19.16 1.91-39.37 2-57.31-5.92-2.41-1.24-5.12-.56-7.65-.28-16.24 2.12-32.61.36-48.87-.51-14.36.26-28.7-.6-43.05-.29-8.6.17-17.39 1.05-25.35 4.51a23.17 23.17 0 0 0-12.81 15.03c-9.76.64-19.33-1.63-28.92-3-6.32-.96-12.74-.8-19.09-.37-.54-3.77-1.51-7.52-3.42-10.85-4.07-7.83-12.56-12.06-20.74-14.29-17.92-4.55-36.59-3.33-54.83-5.44-9.24-1-18.74-2.65-26.77-7.59 11.28.25 22.62.92 33.89-.29 2.85-.37 5.97-.57 8.29-2.47-7.62-2.42-15.72-.96-23.55-.99a28.96 28.96 0 0 0-10.75-6l.49-1.49z" class="st6"/><path d="M780.15 187.46c1.66 7.82 6.52 14.71 7 22.82.27 3.12-.1 6.24-.44 9.34-18.96 9.54-39.55 15.45-60.31 19.6-46.07 8.73-93.17 8.99-139.89 9.38 1.74-3.49 5.13-5.76 6.86-9.27-6.07-.57-13.59-1.15-16.84-7.21-3.23-6.2-5.05-13.09-9.05-18.91 71.13-6.61 141.26-21.88 212.67-25.75z" class="st7"/><path d="M825.25 421.37c-14-14.23-33.34-21.17-48.38-34.06-.01-1.71-.07-3.42.15-5.12.8-2.32 3.23-3.41 5.36-4.21-.54 2.02-1.15 4.03-1.82 6.03 5.72 4.1 12.04 7.28 17.81 11.32 9.19 6.63 18.03 13.79 25.95 21.91 2.9 2.51 5.15 5.56 7.33 8.67l-1.56 1.09c-1.31-2.07-3.28-3.79-4.84-5.63z" class="st8"/><path d="M787.43 145.25c.71 1.5 3.12 3.7.75 4.91-12.42 9.09-27.26 14.26-42.11 17.81-25.47 5.92-51.71 7.25-77.75 8.33-27.35 1.01-54.77.94-82.05 3.34-4.17.33-8.32 1.03-12.51 1.1 4.54-8.1 14.49-9.61 22.44-12.6-10.18-12.23-26.57-15.69-41.27-19.38 44.55-10.6 90.09-16.16 135.41-22.38 27.72-3.59 55.4-7.53 82.99-12 3.76-.55 8.05-2.05 11.45.47 3.12 2.14 2.27 6.49 1.85 9.69-1.31 6.76-3.21 14.47.8 20.71zM766.2 64.05c9.06-1.35 18.54-.27 26.79 3.85-.36 7.05-6.29 11.88-11.91 15.18-4.54 2.6-8.45 6.26-10.87 10.93-28.35 1.31-56.52 4.96-84.79 7.28a598.82 598.82 0 0 1-69.98 2.24c-10.58-.48-21.45-1.01-31.37-5.04-2.53-1.22-5.54-2.23-6.84-4.93 11.87-6.99 25.52-10.07 39.04-11.96 34.83-4.42 70.15-2.08 104.95-6.91 15.3-2.18 29.63-8.68 44.98-10.64z" class="st7"/><path d="M776.87 387.31c15.04 12.89 34.38 19.83 48.38 34.06 1.56 1.84 3.53 3.56 4.84 5.63a9.1 9.1 0 0 1 1.28 3.08c-4.68 1.19-7.18-4.07-9.89-6.89-2.04-2.95-5.52-4.03-8.95-4.06 5.28 9.09 7.17 19.5 10.97 29.19.81-.81 1.65-1.61 2.51-2.4 1.25 3.72.89 7.74-.78 11.27-3.32 7.37-8.47 13.69-13.04 20.29-5.74-4.14-8.69-11.19-8.57-18.16.07-6.94-.11-13.87-.89-20.77-1.87.27-4.18-.03-5.41 1.71-.95 1.45-1.11 3.24-1.6 4.87l-3.16-2.58c-.72-4.1 3.53-5.89 6.17-8 2.01-1.26 3.32-3.25 4.35-5.34a46.03 46.03 0 0 0-23.76-8.31c-18.44-1.26-36.08 5.32-54.05 8.15 1.98-2.44 4.31-4.89 7.54-5.54 4.68-.91 9.51-.3 14.26-.65-5.12-.74-10.27-.16-15.36.37-8.77.47-17.55.59-26.31 1.11l-1.99-2.15c3.78-.68 7.56-1.42 11.29-2.37l-3.38-.61c20.19-3.19 40.37-7.66 59.14-15.93-4.17-1.5-10.25-.94-12.25-5.78-1.57-5.19-1.18-12.29 3.92-15.43 4.88-2.95 10.75-3.28 16.19-4.57 3.1-.57 5.89-2.15 8.95-2.92-.55 2.47-2.78 3.01-4.89 3.4-2.13.8-4.56 1.89-5.36 4.21-.22 1.7-.16 3.41-.15 5.12z" class="st9"/><path d="M640.02 43.82c3.5 1.03 4.93 4.76 4.97 8.11-7.45-2.17-15.29-.82-22.79-2.4-4.92-.9-8.2-5.19-9.64-9.71 8.56 4.53 18.58 1.02 27.46 4z" style="fill:#687064"/><path d="M640.18 1531.22c.64 2.88 1.21 6.06-.15 8.86-2.69 6.11-8.97 9.61-15.04 11.6-6.44 2.07-13.56 2.27-19.88-.29-.75 4.28-5.37 5.09-8.48 7.14-2.18 1.16-3.65 3.19-5.04 5.16-23.73.36-45.54 11.62-69.11 12.96-5.69.51-11.4-.14-17.08.29-2.26.1-5.04.34-6.52-1.75 1.82-4.12 7.28-.96 10.43-2.85 6.19-3.63 14.97-4.4 18.07-11.83 20.59-1.21 41.14-7.35 57.95-19.52 7.32-.03 15.33 3.47 22.08-.75 1.36-1.04 4.55-1.95 3.31-4.18-.66-1.81-2.81-1.57-4.32-1.64-3.8.1-7.57.77-11.37.59 8.91-9.44 23.17-14.02 35.77-10.03-.3 1.77.13 4.19-1.72 5.28-2.64 1.28-5.67 1.07-8.51 1.32-.05 2.32-.73 5.41 1.75 6.81 2.94 1.74 6.63 2.5 8.51 5.67 3.97-3.61 6.23-8.56 9.35-12.84z" class="st9"/><path d="M642.57 427.47c-48.71 2.69-97.44 5.28-146.21 6.34-55.46 1.29-111.06.76-166.31-4.6 24.28-3.28 48.84-3.47 73.3-3.96 31-.36 62.01-.34 93.01-.92 23.79-.56 47.6-1.72 71.21-4.83a43.36 43.36 0 0 0-13.52-9.73c2.21-1.38 4.87-.93 7.36-.98 23.33.09 46.66.01 69.99.04 3.97.06 8.06-.5 11.93.75-7.98 5.19-16.68 9.4-25.95 11.7-5.95 1.59-12.12 1.86-18.2 2.59 4.55.01 9.15-.2 13.67.46 4.68 1.59 9.68 1.09 14.5 1.9 5.03.84 10.13 1.06 15.22 1.24z" class="st11"/><path d="M673.8 26.82c-1.83 1.48-.59 3.93-.64 5.87-12.08-.08-22.46-6.7-33.4-10.81-7.49-2.92-15.61-2.8-23.5-2.53 4.09-3.42 9.75-2.89 14.69-2.38 17.55 2.56 34.88 8.6 52.84 6.47-1.12 4.6-6.65 2.33-9.99 3.38z" class="st6"/><path d="M612.85 424.33c32.88.84 65.91-.2 98.47-5.12l3.38.61c-3.73.95-7.51 1.69-11.29 2.37l1.99 2.15c-20.95.94-41.89 2.06-62.83 3.13-5.09-.18-10.19-.4-15.22-1.24-4.82-.81-9.82-.31-14.5-1.9z" style="fill:#165d76"/><path d="M454.4 358.65c9.49.52 18.99-.04 28.49-.03-17.56 5.67-36.29 5.76-54.55 5.33-26.77-1-53.38-4.44-80.11-5.96 17.84-5.22 36.65-3.87 54.97-2.92 17.06 1.28 34.1 2.82 51.2 3.58z" style="fill:#abb0a6"/><path d="M415.34 281.29c-3.21.31-6.3-.8-9.17-2.07a7.75 7.75 0 0 1 5.09-1.48c24.18-.08 48.37.07 72.56-.07a15.3 15.3 0 0 0-6.43-6.97c1.09-1.13 2.22-2.44 4.02-2 3.06 2.13 4.69 5.71 7.7 7.92 1.6 1.19 3.63 1.48 5.51 2.07-15 6-31.54 4.86-47.33 3.97-10.64-.53-21.29-2.44-31.95-1.37z" style="fill:#fefffb"/><path d="m464.98 148.88.07 1.31c-5.64 2.15-11.82 1.83-17.74 1.95-8.35-.14-16.71-.13-25.06-.24a7.2 7.2 0 0 1 4.07-3.59c7.65-2.81 15.98-2.63 24.01-2.16 4.93.48 10.02.8 14.65 2.73zM445.3 268.3c5.07.59 10.25-.72 15.24.37-8.92 5.71-19.95 5.54-30.12 4.95-11.17-.87-22.28-2.4-33.48-2.79 15.46-5.76 32.29-2.62 48.36-2.53z" class="st7"/><path d="M415.53 402.29c-2.34 1.82-5.41 1.48-8.17 1.62-5-.04-10.01-.11-15-.33-3.29-.02-5.95-2.14-8.61-3.78l-.17-2.23c5.56-1.1 11.24-.28 16.78.58 5.16.89 10.43 1.77 15.17 4.14z" style="fill:#667066"/><path d="M388.8 9.65c3.68 0 7.35.14 11.03.5-1.84 3.53-5.66 5.49-9.52 5.81-10.58.83-20.94-3.36-31.44-3.36l-.01-1.95c9.98-.02 19.97-1 29.94-1z" style="fill:#abb1a5"/><path d="M97.5 287.68c8.78 9.91 22.39 12.64 34.62 15.88 9.43 2.42 18.74 6.17 26.16 12.63-15.33-1.65-30.64-3.53-45.99-5.02-26.02-2.83-52.81-5.58-76.65-17.21-.95-5.54-2.67-11.5-.6-16.97 1.8-4.13 6.61-4.96 10.41-6.28-2.23-2.41-5.78-3.46-7.42-6.37-.24-1.92-.48-4.87 1.28-6.04 5.78-1 11.97-1.61 16.83-5.24 3.86-2.62 6.21-6.76 8.43-10.73 93.29 17.21 188.42 18.55 282.81 24.93 8.88.66 17.84.78 26.63 2.31-4.71 1.62-9.75 1.28-14.64 1.66-23.67.44-47.36.33-71.03-.28-16.07-.27-32.09-1.67-48.14-2.5 2.21 1.22 7.02 2.32 5.19 5.75-1.81 3.15-3.04 6.55-1.16 10-4.14 2.88-9.42 4.29-13.35 7.68-1.15.71-1.14 2.13-1.46 3.28l5.28 1.93c-8.34 1.63-16.87 1.77-25.34 1.99-37.6.4-74.76-6.22-111.86-11.4z" class="st7"/><path d="M338.6 248.75c-11.94-.02-23.89.09-35.83-.08 2.1-2.92 4.98-5.37 8.59-6.09 9.13-2.12 18.33.93 27.21 2.87l.03 3.3z" style="fill:#686f66"/><path d="M290.66 1577.95c2.37 1.35 6.05 1.8 6.83 4.84a57.25 57.25 0 0 1-25.12.37c-12.71-2.66-24.56-8.19-37.1-11.44-10.76-2.93-22.12-3.97-33.17-2.27-.6-3.33-3.7-4.84-5.97-6.9-1.71-1.68-1.06-4.22-1.1-6.31a26.98 26.98 0 0 0-3.68-.3c-2.91 1.35-1.76 5.53-4.07 7.4-2.24 1.08-4.72-.09-6.4-1.61-3.91-3.4-8.43-6.66-10.32-11.69-1.29-3.06-1.15-6.43-1.1-9.67 4.75 2.01 9.48 5.19 14.84 4.73 3.14-.46 3.35-4.4 3.04-6.87-.06-2.65-1.69-5.29-1.21-7.84 3.09-2.01 7.39-3.98 10.9-1.81 4.05 3.06 5.02 8.98 9.72 11.37 2.42 1.35 5.26.79 7.9.65-1.47 3.63-2.15 7.89-.11 11.47 3.14 5.44 9.19 8.16 14.84 10.27 19.93 7.06 41.56 7.82 61.28 15.61z" class="st11"/><path d="M263.56 85.99c3.96 6.56 11.18 9.83 16.88 14.57-45.69 6.8-92.15 7.67-138.17 4.16-26.14-2.19-52.26-5.81-77.55-12.92-1.62-.52-3.57-.84-4.41-2.51-4.2-6.46-5.2-14.42-4.97-21.97.32-9.45 1.9-18.8 2.86-28.2 68.05 8.07 134.76 24.8 202.91 32.27-.45 4.97-.25 10.24 2.45 14.6z" class="st7"/><path d="m267.91 372.4 2.78 2.88c-1.22.48-2.83 2.41-4.07.98-2.98-2.49-4.78-6.24-8.26-8.15-2.17-1.35-4.81-.77-7.19-.69.85-1.11 1.29-3.01 3.05-2.9 4.29-.36 8.56.72 12.87.46.4 2.45.65 4.93.82 7.42z" class="st6"/><path d="M201.31 421.3c12.29 1.11 24.89 1.68 36.95-1.47-11.67-1.75-23.3-3.73-34.95-5.56-14.8-2.09-30.46-3.43-44.77 1.91 14.26 1.67 28.47 3.76 42.77 5.12zm50.25-12.74c9.49.16 18.98-.18 28.47.23-9.5 5.62-20.8 6.43-31.52 7.5 3.16.67 6.5.86 9.48 2.24 2.54 1.51 2.69 4.78 3.35 7.36-24.1 1.25-48.22-.41-72.23-2.37-22.29-1.74-44.48-4.6-66.68-7.18.5-.91 1.06-1.78 1.61-2.66 2.79-.05 5.61-.11 8.37-.66l1.41-1.64 1.27-2.93c6.44.35 12.91.36 19.34-.28a435.74 435.74 0 0 0 10.03.3c19.9.43 39.84-.11 59.74.29 5.8.23 9.84 4.53 14.32 7.56 2.89 1.92 5.21-1.19 6.91-3.14-2.37-.55-4.71-1.1-7.05-1.7 4.44-.75 8.86-1.65 13.18-2.92z" style="fill:#06617f"/><path d="M226.27 240.29c2.34 1.63 5.39 1.63 8.11 2.3a515.75 515.75 0 0 1-72 4.09c-23.08-.31-46.21-1.9-68.91-6.2-14.46-2.88-28.95-6.8-41.82-14.18.65-7.86 4.57-14.79 8.11-21.64a44.72 44.72 0 0 0 4.93-17.18c45.75 3.49 91.43 8.47 136.71 15.98 15.79 2.76 31.57 5.74 47.08 9.83-.42 3.03-1.5 6.18-4.16 7.96-5.06 3.61-12.01 3.94-16.39 8.59-2.06 2.9-3.07 7.09-1.66 10.45z" class="st7"/><path d="M238.26 419.83c-12.06 3.15-24.66 2.58-36.95 1.47-14.3-1.36-28.51-3.45-42.77-5.12 14.31-5.34 29.97-4 44.77-1.91 11.65 1.83 23.28 3.81 34.95 5.56z" style="fill:#f6ffff"/><path d="M224.2 408.76c-19.9-.4-39.84.14-59.74-.29 1.25 0 2.5-.11 3.74-.41 3.38-1.15 6.75.36 10.15.48 15.02.05 30.06-.21 45.08-.06 4.88-2.63 10.39-1.85 15.71-2.35l-.09-6.03c4.02-.07 8.04-.01 12.07.17-.97 2.11-2.35 4.54-.53 6.63l.97 1.66a113.93 113.93 0 0 1-13.18 2.92c2.34.6 4.68 1.15 7.05 1.7-1.7 1.95-4.02 5.06-6.91 3.14-4.48-3.03-8.52-7.33-14.32-7.56zM152.34 408.02c3.64-.59 7.3.25 10.94.42-2.95-.06-5.9-.15-8.85-.27-6.43.64-12.9.63-19.34.28 5.75.04 11.53.36 17.25-.43z" class="st20"/><path d="M133.42 426.13c-3.4.21-6.77-.45-10.14-.68l.95-2.62c3.93.24 7.87-.03 11.82-.15-.42 1.38-.66 3.59-2.63 3.45z" style="fill:#1a637d"/><path d="m39.42 345.51-.3-.05v-.01l.3.06z" class="st22"/><path d="M30.87 495.66c1.45.93 1.08 2.72 1.24 4.2-5.14 1.58-10.43-.37-15.67 0-1.33-12.72-1-25.86 2.47-38.24 3.78-13.7 11.59-25.76 16.71-38.94 5.25-.02 10.52-.14 15.77.19-5.74 6.07-12.3 11.57-16.34 19.04a55.22 55.22 0 0 0-6.22 28.39c-.09 2.66.8 5.75-1.21 7.93-2.61-1.36-5.15-2.86-7.91-3.87.22 8.35 5 15.92 11.16 21.3z" style="fill:#171563"/><path d="M32.11 499.86c-.16-1.48.21-3.27-1.24-4.2-6.16-5.38-10.94-12.95-11.16-21.3 2.76 1.01 5.3 2.51 7.91 3.87 2.01-2.18 1.12-5.27 1.21-7.93a55.22 55.22 0 0 1 6.22-28.39c4.04-7.47 10.6-12.97 16.34-19.04-5.25-.33-10.52-.21-15.77-.19-5.12 13.18-12.93 25.24-16.71 38.94-3.47 12.38-3.8 25.52-2.47 38.24 5.24-.37 10.53 1.58 15.67 0zm117.62-64.05c3.87.66 7.8.47 11.7.17-3.08 3.76-7.47 6.07-10.74 9.61-3.01 3.29-2.88 8.02-2.64 12.18-7.57-1.44-15.15 2.19-22.62.31-2.98-.73-2.24-4.32-2.54-6.6-5.75.09-11 2.72-16.59 3.7-10.14 2.06-21.06 1.42-30.42 6.42-8.46 4.47-16.19 11.62-18.9 21.06-3.32 11.99.8 24.63-2.35 36.67-1.48 6.48-5.68 11.78-8.72 17.56-12.06 22.37-17.62 47.48-21.71 72.36-3.42 20.68-4.96 41.61-6.19 62.52-3.66 6.62-2.22 14.46-3.02 21.69-3.2-5.35-.63-11.56-1.23-17.34-.48-4.54-1.23-9.14-.08-13.65-2.7-3.71-1.85-8.52-3.31-12.67-.94-28.82-1.52-57.66-2.61-86.48-1.07-26.03-1.86-52.09-4.34-78.03-.51-6.79-2.88-13.45-1.88-20.32a183.08 183.08 0 0 1 7.14-22.38c5.94-14.76 17.27-26.55 29.63-36.21 7.9-6.24 16.27-11.83 24.35-17.83 2.23-1.96 5.45-1.67 8.16-1.11a53.9 53.9 0 0 1 8.76 4.06c-.7 5.03-1.59 10.04-1.99 15.12 17.76 5.31 36.44 5.85 54.82 6.4-2.76.55-5.58.61-8.37.66-.55.88-1.11 1.75-1.61 2.66-.77 2.43-.49 5.04 1.8 6.49l-.95 2.62c-.75 1.95-1.38 4.75.71 6.13 2.46 1.52 5.49 1.65 8.31 1.57 4.65-.34 7.86-4.1 11.54-6.48 1.55-1.26 3.49-.02 5.2.16.15 2.99.34 5.99.69 8.98z" style="fill:#006486"/><path d="M361.58 470.03c8.71.7 17.99-.21 25.35-5.35-26.2.08-52.4-.41-78.58-1.43-44.67-1.68-89.31-4.54-134.01-5.13-2.15 0-4.27.26-6.38.49 5.53 1.25 10.86 3.22 16.37 4.53 31.03 7.66 63.09 9.67 94.9 11.32 35.72 1.72 71.53 2.29 107.09 6.22 25.03.24 50.08.06 75.11.1 5.72.19 11.13-2.98 16.87-1.92 2.38.37 4.62 2.33 7.08 1.25 6.26-1.93 12.74-2.67 19.26-2.93 4.24-.16 8.49-.11 12.7-.05 12.64.5 25.31 1.22 37.95.45 38.75.28 76.58-9.61 115.08-12.35 24.02-2.03 48.24-2.46 72.01-6.78 14.92-2.93 30.89-7.49 41.07-19.57-18.67 3.21-37.25 6.97-55.95 10.06-73.7 12.68-148.2 22.44-222.96 25.6a1139.98 1139.98 0 0 1-95.18.18c-26.52-1.29-53.1-2.99-79.34-7.06 10.57-.14 21.04 1.5 31.56 2.37zM252.15 408.1c9.61.06 19.22.18 28.84.19 1.03-2.54 1.05-5.28.66-7.94 5.95 1.11 12.18 1.39 17.78 3.86 2.26.84 3.32 3.1 4.36 5.1a36.9 36.9 0 0 1 18.73-6.69c12.94-.78 25.87.7 38.78 1.48 28.66 1.99 57.5 4.29 86.18 1.37 16.25-1.56 32.5-3.39 48.83-3.85 19.41-.3 39.82-.34 57.74 8.15a43.36 43.36 0 0 1 13.52 9.73c-23.61 3.11-47.42 4.27-71.21 4.83-31 .58-62.01.56-93.01.92-24.46.49-49.02.68-73.3 3.96 55.25 5.36 110.85 5.89 166.31 4.6 48.77-1.06 97.5-3.65 146.21-6.34 20.94-1.07 41.88-2.19 62.83-3.13 8.76-.52 17.54-.64 26.31-1.11 5.09-.53 10.24-1.11 15.36-.37-4.75.35-9.58-.26-14.26.65-3.23.65-5.56 3.1-7.54 5.54 17.97-2.83 35.61-9.41 54.05-8.15a46.03 46.03 0 0 1 23.76 8.31c-1.03 2.09-2.34 4.08-4.35 5.34-2.64 2.11-6.89 3.9-6.17 8l3.16 2.58c.49-1.63.65-3.42 1.6-4.87 1.23-1.74 3.54-1.44 5.41-1.71.78 6.9.96 13.83.89 20.77-.12 6.97 2.83 14.02 8.57 18.16 4.57-6.6 9.72-12.92 13.04-20.29a15.09 15.09 0 0 0 .78-11.27c-.86.79-1.7 1.59-2.51 2.4-3.8-9.69-5.69-20.1-10.97-29.19 3.43.03 6.91 1.11 8.95 4.06 2.71 2.82 5.21 8.08 9.89 6.89a9.1 9.1 0 0 0-1.28-3.08l1.56-1.09c1.25 1.78 2.48 3.57 3.79 5.29a95.07 95.07 0 0 1 13.2 27.77c6.34 24.9 6.07 50.84 4.9 76.33-1.49 21.05-3.72 42.04-5.45 63.07-1.59 28.3-3.02 56.61-3.85 84.94-.57 25.35-1.66 50.68-1.74 76.04-1.32 66.31-.73 132.65-.94 198.97-.99 29.64-.55 59.33-1.42 88.98-.31 22.65-.48 45.31-1.07 67.95-.62 29.37-.21 58.76-.96 88.12 1.86 51.37-1.91 102.7-5.79 153.88-2.28 26.38-4.9 52.72-7.96 79.03-1.12 9.26-1.82 18.62-4.34 27.65-1.78 11.38-1.07 22.96-1.64 34.44-1.29 26.78-2.19 54.02-9.99 79.88-1.65 4.32-2.72 9.12-5.53 12.84-14.65-.35-27.47 9.26-42.17 8.56-4.19-.95-8.28-2.34-12.56-2.79.26-3.87 3.35-6.42 5.77-9.07 5.48-5.73 10.43-12.12 13.65-19.41-18.85-9.37-39.54-14.1-59.34-21.01-7.13-2.78-14.57-4.86-21.19-8.77-5.31-3.1-11.2-6.04-14.43-11.52-1.59-2.73-3.55-5.31-6.49-6.64-17-9.21-34.48-17.6-52.6-24.34-9.92-3.27-20.5-3.27-30.79-4.28-26.41-2.44-52.89-3.98-79.34-5.88-36.86-3.02-73.88-4.37-110.59-9.09-11.3-2.64-22.94-1.47-34.43-1.62-16.31.46-32.67-.52-48.95.76-23.89.61-47.79 2.33-71.44 5.86-6.8.92-13.57 2.08-20.21 3.81-10.72 2.97-21.88 4.82-31.83 10.03-8.74 3.95-16.88 9.71-22.27 17.77-2.8 4.37-3.16 9.66-4.19 14.62-8.94-3.72-18.89-3.57-28.3-2.13-18.73 4.37-34.94 15.45-49.68 27.37-4.35 4.13-9.57 7.29-13.39 11.98 5.79 5.61 11.78 11.01 17.19 17.02 2.76 3.25 6.81 5.77 8.18 9.99-.43 3.44-4.71 3.52-7.08 5.1-2.91.86-2.74 4.34-3.57 6.71-2.94 0-5.98.32-8.79-.7-4-1.41-7.52-3.86-11.49-5.31-3.42-1.28-7.12-.98-10.68-.88.61 3.08 1.11 6.19 1.72 9.3-2.9-1.44-4.88-4.05-6.98-6.4-7.57-8.33-12.85-18.4-17.66-28.49-7.27-15.59-11.24-32.44-14.31-49.28-3.48-22.17-4.55-44.65-4.57-67.07-.57-66.74 7.15-133.27 5.65-200.01-.46-21.36-1.44-42.71-1.83-64.07-.83-29.96.07-59.93-.27-89.89-.8-93.05-6.17-186-7.01-279.06.15-54.37-1.01-108.73-2.63-163.07C2.81 611.23.82 563.29.52 515.31c-.56-13.36-.37-26.73-.52-40.1.15-3.43-.28-7.15 1.54-10.24-1 6.87 1.37 13.53 1.88 20.32 2.48 25.94 3.27 52 4.34 78.03 1.09 28.82 1.67 57.66 2.61 86.48.88 43.51 1.92 87.01 2.82 130.52.93 30.76 1.06 61.56 3.04 92.28 2.73-33.36 2.33-66.87 1.81-100.3-.59-33.51-1.19-67.03-.03-100.53 1.23-20.91 2.77-41.84 6.19-62.52 4.09-24.88 9.65-49.99 21.71-72.36 3.04-5.78 7.24-11.08 8.72-17.56 3.15-12.04-.97-24.68 2.35-36.67 2.71-9.44 10.44-16.59 18.9-21.06 9.36-5 20.28-4.36 30.42-6.42 5.59-.98 10.84-3.61 16.59-3.7.3 2.28-.44 5.87 2.54 6.6 7.47 1.88 15.05-1.75 22.62-.31-.24-4.16-.37-8.89 2.64-12.18 3.27-3.54 7.66-5.85 10.74-9.61-3.9.3-7.83.49-11.7-.17-.35-2.99-.54-5.99-.69-8.98-1.71-.18-3.65-1.42-5.2-.16-3.68 2.38-6.89 6.14-11.54 6.48-2.82.08-5.85-.05-8.31-1.57-2.09-1.38-1.46-4.18-.71-6.13 3.37.23 6.74.89 10.14.68 1.97.14 2.21-2.07 2.63-3.45-3.95.12-7.89.39-11.82.15-2.29-1.45-2.57-4.06-1.8-6.49 22.2 2.58 44.39 5.44 66.68 7.18 24.01 1.96 48.13 3.62 72.23 2.37-.66-2.58-.81-5.85-3.35-7.36-2.98-1.38-6.32-1.57-9.48-2.24 10.72-1.07 22.02-1.88 31.52-7.5-9.49-.41-18.98-.07-28.47-.23l-.97-1.66 1.56 1.2zm156.16 63.01c12.27-.1 24.56.21 36.83-.23a159.1 159.1 0 0 0-20.77-3.72c-7.58-.65-15.37-2.1-22.88-.2 1.02 2.75 3.96 4.36 6.82 4.15z" class="st8"/><path d="m41.89 345.89-2.26-.35c.89.15 1.77.32 2.65.5a1 1 0 0 0-.39-.15z" class="st22"/><g id="XMLID_1_"><path d="M261.15 384.4c-3.84-1.2-7.94-.2-11.8-1.36-25.87-4.43-51.86-9.23-78.05-11.35a315.1 315.1 0 0 0-31.95-1.06c-1.93-.03-3.85.16-5.65.87a88.21 88.21 0 0 0 14 3.31c21.31 3.57 43.03 3.49 64.36 6.92 9.15 1.61 18.38 3.74 26.65 8.12 2.12 1.01 4.21 2.16 5.83 3.91-22.42 6.49-45.93 1.8-68.25-2.67-16.09-3.13-32.59-6.7-49.02-4.16-4.34.52-5.68 6.47-3.2 9.63 2.6 4.75 8.98 7.64 9.69 13.17l-1.64 2.8c-27.8 1.08-50.65-5.78-53.92-6.81l2.34-14.92-.48-.08c.61-4.86 2.37-9.5 3.14-14.34.65-3.72.74-7.51.93-11.27 6.41.72 12.04 8.01 18.65 4.53l.34-1.85c-19.88-8.25-39.62-17.6-60.84-21.75-.88-.18-1.76-.35-2.65-.5l-.21-.03-.3-.05c-1.76-.3-3.96-.74-5.9-1.37-2.33-2.07-4.35-4.59-4.27-7.9.05-11.31 8.25-21.09 6.99-32.56 28.99 6.74 58.71 11.23 86.53 22.24a77.08 77.08 0 0 0-6.85 2.83l.15 2c4 1.79 8.45 2.62 12.18 4.99 1.6.77.83 2.71 1.04 4.11-3.99 2.01-8.6 1.51-12.86.92-11.68-2.14-22.91-6.34-33.47-11.71a8.84 8.84 0 0 1-3.67-2.92c3.62-.17 7.39.16 10.79-1.37l.58-1.97c-11.9-2.96-23.64-7.38-36.01-7.64-3.43-.01-8.3.41-9.09 4.55l5.68 1.04.35 2.52c-5.07.63-7.9-4.08-11.17-7.02-.87 2.39-2.34 5.49-.46 7.79 4.98 6.3 10.55 12.24 17.08 16.97 5.36 3.8 11.67 5.88 17.88 7.85 5.01-2.92 5.21-9.48 9.39-13.09 13.3 5.66 28.34 7.17 40.59 15.26 5.12 3.25 8.77 8.28 11.11 13.81 11.82 2.43 23.77 3.73 35.76 4.63 24.09 1.81 48.37 2.01 72.16 6.46 13.36 2.84 28.03 7.43 35.91 19.48-6.84-2.5-14.17-1.76-21.29-1.74 1.66-2.82 3.22-5.83 2.9-9.22z" class="st6"/><path d="M564.38 319.39c-3 .2-5.99.46-8.98.55-6.69.31-13.9.75-19.88-2.84l-.05-2.8c3.84-2.44 8.73-1.38 12.6-3.73-.22-8.24-5.98-14.43-9.25-21.59l.08-5.03c9.41.23 18.82-.05 28.25.09.32 2.03.32 4.24 1.45 6.04 1.97 3.33 5.97 4.75 7.95 8.08 1.73 3.16 1.25 7.09.03 10.35-3.1 4.13-10.45 2.09-12.42 7.5l.22 3.38z" class="st22"/><path d="M683.79 23.44c-17.96 2.13-35.29-3.91-52.84-6.47-4.94-.51-10.6-1.04-14.69 2.38 7.89-.27 16.01-.39 23.5 2.53 10.94 4.11 21.32 10.73 33.4 10.81.05-1.94-1.19-4.39.64-5.87 3.34-1.05 8.87 1.22 9.99-3.38zm-38.8 28.49c-.04-3.35-1.47-7.08-4.97-8.11-8.88-2.98-18.9.53-27.46-4 1.44 4.52 4.72 8.81 9.64 9.71 7.5 1.58 15.34.23 22.79 2.4zm-94.02 183.45c-3.29-5.99-8.04-11.41-14.32-14.34-8.1-4.1-17.45-4.31-26.31-3.71-15.31 1.24-30.34 4.9-45.71 5.55-.23 2.18-.35 4.39-.81 6.54-.78 3.48-3.12 6.36-3.87 9.84-.29 2.14.56 4.19 1.16 6.21 15.74 1.83 31.34 5.09 47.21 5.75 10.57.45 21.69 0 31.43-4.58 4.62-2.54 9.64-6.01 11.22-11.26zM415.53 402.29c-4.74-2.37-10.01-3.25-15.17-4.14-5.54-.86-11.22-1.68-16.78-.58l.17 2.23c2.66 1.64 5.32 3.76 8.61 3.78 4.99.22 10 .29 15 .33 2.76-.14 5.83.2 8.17-1.62zm31.76-119.63c15.79.89 32.33 2.03 47.33-3.97-1.88-.59-3.91-.88-5.51-2.07-3.01-2.21-4.64-5.79-7.7-7.92-1.8-.44-2.93.87-4.02 2a15.3 15.3 0 0 1 6.43 6.97c-24.19.14-48.38-.01-72.56.07a7.75 7.75 0 0 0-5.09 1.48c2.87 1.27 5.96 2.38 9.17 2.07 10.66-1.07 21.31.84 31.95 1.37zm13.25-13.99c-4.99-1.09-10.17.22-15.24-.37-16.07-.09-32.9-3.23-48.36 2.53 11.2.39 22.31 1.92 33.48 2.79 10.17.59 21.2.76 30.12-4.95zm-13.23-116.53c5.92-.12 12.1.2 17.74-1.95l-.07-1.31c-4.63-1.93-9.72-2.25-14.65-2.73-8.03-.47-16.36-.65-24.01 2.16a7.2 7.2 0 0 0-4.07 3.59c8.35.11 16.71.1 25.06.24zm-166.87-51.58c-5.7-4.74-12.92-8.01-16.88-14.57-2.7-4.36-2.9-9.63-2.45-14.6-68.15-7.47-134.86-24.2-202.91-32.27-.96 9.4-2.54 18.75-2.86 28.2-.23 7.55.77 15.51 4.97 21.97.84 1.67 2.79 1.99 4.41 2.51 25.29 7.11 51.41 10.73 77.55 12.92 46.02 3.51 92.48 2.64 138.17-4.16zm-4.74 131.48c7.63 4.11 11.27 12.41 14.84 19.85 23.54.84 47.15 2 70.67-.02 2.54-5.21.75-11.13 2.32-16.51.9-3.37 4.46-4.62 7.02-6.48-6.65-6.43-15.27-10.4-24.17-12.62a107.8 107.8 0 0 0-46.06-1.55c-10.52 2.04-21.45 5.72-28.8 13.9.24 2 2.83 2.29 4.18 3.43zm-23.62-74.06c5.01.57 10.13.95 14.88 2.8 10.87 3.95 18.77 13.06 29.39 17.49a41.78 41.78 0 0 0 17.99 3.04c9.33-.81 18.71-.02 28.05-.69 28.61-1.31 56.19-9.81 83.09-19.04 9.94 4 19.73 8.41 29.97 11.63 12.85 4.34 26.41 5.85 39.88 6.71 17.09.87 34.69.79 51.12-4.61 7.95-2.54 15.74-8.03 17.84-16.55-9.51-1.79-19.21-1.99-28.82-2.78-60.37-3.27-120.87 1.81-181.2-2.24-8.29-.47-16.52-1.72-24.82-1.8-5.18-.94-10.2-2.69-15.45-3.22-20.91-2.64-42.96-.38-61.92 9.26zm55.2 186.15c-33.98-1.91-67.92-4.62-101.89-6.49 32.09 2.92 64.29 8.51 94.35 20.45-2.89 14.33 12.85 28.1 26.78 24.09-1.27-1.2-2.59-2.44-3.15-4.14 2.07-.66 4.32-1.1 6.42-.19 23.4 8.31 48.41 10.33 73.03 11.71 48.49 2.1 97.05-1.72 145.51.57 6.45-3.86 11.34-10.57 18.92-12.42 11.45-.25 22.69 2.56 34.07 3.47 9.15.9 18.35-.87 27.05-3.61a23.75 23.75 0 0 0-9.87-8.38c-8.27-3.6-17.48-1.77-26.12-.96-10.42 1.02-21.78 1.46-31.24-3.7 8.97-3.55 18.59-5.04 28.16-5.99 25.64-2.48 51.54-.33 77.11-3.77 7.86-1.08 15.67-2.89 22.98-6.08-127.3 7.56-254.95 3.35-382.11-4.56zm-40.19 20.85c-4.31.26-8.58-.82-12.87-.46-1.76-.11-2.2 1.79-3.05 2.9 2.38-.08 5.02-.66 7.19.69 3.48 1.91 5.28 5.66 8.26 8.15 1.24 1.43 2.85-.5 4.07-.98l-2.78-2.88a79.77 79.77 0 0 0-.82-7.42zm-26.15-201.14c-3.15-1.31-6.52-2.01-9.61-3.45-1.07-.45-2.63-1.43-1.52-2.71 5.46-4.41 12.75-6.09 17.68-11.25a12.5 12.5 0 0 0 3.79-7.48c-6.96-1.35-14.05-1.81-21.03-3.01-3.33-.67-7.45-1.68-8.33-5.48a27.3 27.3 0 0 1-10.62 2.82c-7.11.49-14.72.38-21.1-3.22a6.11 6.11 0 0 1 4.18-.89c6.6.28 13.26.77 19.84-.21l-.11-2.37c-4.25-.45-8.53-.34-12.79-.43-24.08-.36-47.96-3.88-71.87-6.45-22.42-2.44-45.29-4.12-67.61.03a25 25 0 0 1-.34 13.51c-2.51 9.08-6.21 18.76-3.21 28.18 12.46 2.7 25.13 4.47 37.73 6.5 51.25 7.49 103.39 11.99 155.09 6.67l-.38-1.76c-5.67-2.48-12.05.06-17.81-2.12a14.8 14.8 0 0 1-1.15-5.76c3.06-.29 6.12-.64 9.17-1.12zm2.69 212.04c-23.79-4.45-48.07-4.65-72.16-6.46-11.99-.9-23.94-2.2-35.76-4.63-2.34-5.53-5.99-10.56-11.11-13.81-12.25-8.09-27.29-9.6-40.59-15.26-4.18 3.61-4.38 10.17-9.39 13.09-6.21-1.97-12.52-4.05-17.88-7.85-6.53-4.73-12.1-10.67-17.08-16.97-1.88-2.3-.41-5.4.46-7.79 3.27 2.94 6.1 7.65 11.17 7.02l-.35-2.52-5.68-1.04c.79-4.14 5.66-4.56 9.09-4.55 12.37.26 24.11 4.68 36.01 7.64l-.58 1.97c-3.4 1.53-7.17 1.2-10.79 1.37a8.84 8.84 0 0 0 3.67 2.92c10.56 5.37 21.79 9.57 33.47 11.71 4.26.59 8.87 1.09 12.86-.92-.21-1.4.56-3.34-1.04-4.11-3.73-2.37-8.18-3.2-12.18-4.99l-.15-2c2.24-1.05 4.52-2 6.85-2.83-27.82-11.01-57.54-15.5-86.53-22.24 1.26 11.47-6.94 21.25-6.99 32.56-.08 3.31 1.94 5.83 4.27 7.9 1.94.63 4.14 1.07 5.9 1.37l.3.05.21.03c.89.15 1.77.32 2.65.5 21.22 4.15 40.96 13.5 60.84 21.75l-.34 1.85c-6.61 3.48-12.24-3.81-18.65-4.53-.19 3.76-.28 7.55-.93 11.27-.77 4.84-2.53 9.48-3.14 14.34l.48.08-2.34 14.92c3.27 1.03 26.12 7.89 53.92 6.81l1.64-2.8c-.71-5.53-7.09-8.42-9.69-13.17-2.48-3.16-1.14-9.11 3.2-9.63 16.43-2.54 32.93 1.03 49.02 4.16 22.32 4.47 45.83 9.16 68.25 2.67-1.62-1.75-3.71-2.9-5.83-3.91-8.27-4.38-17.5-6.51-26.65-8.12-21.33-3.43-43.05-3.35-64.36-6.92a88.21 88.21 0 0 1-14-3.31c1.8-.71 3.72-.9 5.65-.87 10.69-.22 21.33.2 31.95 1.06 26.19 2.12 52.18 6.92 78.05 11.35 3.86 1.16 7.96.16 11.8 1.36.32 3.39-1.24 6.4-2.9 9.22 7.12-.02 14.45-.76 21.29 1.74-7.88-12.05-22.55-16.64-35.91-19.48zm-15.7-146.04c4.38-4.65 11.33-4.98 16.39-8.59 2.66-1.78 3.74-4.93 4.16-7.96-15.51-4.09-31.29-7.07-47.08-9.83-45.28-7.51-90.96-12.49-136.71-15.98a44.72 44.72 0 0 1-4.93 17.18c-3.54 6.85-7.46 13.78-8.11 21.64 12.87 7.38 27.36 11.3 41.82 14.18 22.7 4.3 45.83 5.89 68.91 6.2 24.06.28 48.13-1.01 72-4.09-2.72-.67-5.77-.67-8.11-2.3-1.41-3.36-.4-7.55 1.66-10.45zm2.95 62.04c3.93-3.39 9.21-4.8 13.35-7.68-1.88-3.45-.65-6.85 1.16-10 1.83-3.43-2.98-4.53-5.19-5.75 16.05.83 32.07 2.23 48.14 2.5 23.67.61 47.36.72 71.03.28 4.89-.38 9.93-.04 14.64-1.66-8.79-1.53-17.75-1.65-26.63-2.31-94.39-6.38-189.52-7.72-282.81-24.93-2.22 3.97-4.57 8.11-8.43 10.73-4.86 3.63-11.05 4.24-16.83 5.24-1.76 1.17-1.52 4.12-1.28 6.04 1.64 2.91 5.19 3.96 7.42 6.37-3.8 1.32-8.61 2.15-10.41 6.28-2.07 5.47-.35 11.43.6 16.97 23.84 11.63 50.63 14.38 76.65 17.21 15.35 1.49 30.66 3.37 45.99 5.02-7.42-6.46-16.73-10.21-26.16-12.63-12.23-3.24-25.84-5.97-34.62-15.88 37.1 5.18 74.26 11.8 111.86 11.4 8.47-.22 17-.36 25.34-1.99l-5.28-1.93c.32-1.15.31-2.57 1.46-3.28zM770.21 94.01c2.42-4.67 6.33-8.33 10.87-10.93 5.62-3.3 11.55-8.13 11.91-15.18-8.25-4.12-17.73-5.2-26.79-3.85-15.35 1.96-29.68 8.46-44.98 10.64-34.8 4.83-70.12 2.49-104.95 6.91-13.52 1.89-27.17 4.97-39.04 11.96 1.3 2.7 4.31 3.71 6.84 4.93 9.92 4.03 20.79 4.56 31.37 5.04 23.34.62 46.72-.13 69.98-2.24 28.27-2.32 56.44-5.97 84.79-7.28zm14.57 20.84c-3.4-2.52-7.69-1.02-11.45-.47a2634.97 2634.97 0 0 1-82.99 12c-45.32 6.22-90.86 11.78-135.41 22.38 14.7 3.69 31.09 7.15 41.27 19.38-7.95 2.99-17.9 4.5-22.44 12.6 4.19-.07 8.34-.77 12.51-1.1 27.28-2.4 54.7-2.33 82.05-3.34 26.04-1.08 52.28-2.41 77.75-8.33 14.85-3.55 29.69-8.72 42.11-17.81 2.37-1.21-.04-3.41-.75-4.91-4.01-6.24-2.11-13.95-.8-20.71.42-3.2 1.27-7.55-1.85-9.69zm-7.4 175.92c3.02-3.49 5.65-7.63 5.64-12.42.2-9.98-3.15-19.64-3.19-29.63-23.92 4.66-48.23 6.75-72.49 8.73-54.93 3.99-110.06 4.98-164.9 10.21-2.6.28-5.73.12-7.36 2.56 4.94 1.59 10.13 1.2 15.22 1.06 14.72.74 29.41-.81 44.04-2.19 12.21-1.01 24.77-1.63 36.69 1.78a9.63 9.63 0 0 1-3.54 1.35c-17.59 2.77-35.45 1.2-53.15 2.17-12.2.75-25.62 1.6-35.54 9.56h.1l-.08 5.03c-.22-.47-.43-.95-.62-1.44-14.64 1.29-29.32-1.99-43.9.01-5.51.62-10.83 3.41-13.67 8.29-.66-1.78-1.06-4.01-2.96-4.89-2.14-.76-4.45-.47-6.66-.45-2.6 7.11-12.47 5.02-15.93 11.23-1.95 4.04.82 8.83 4.93 9.99 5.61 1.46 11.38-1.15 17.01.05 3.48.88 3.27 5.03 3.75 7.84-43.04-3.53-86.45-.81-129.34-6.49 3.74-4.93 7.98-10.85 6.37-17.4-1.81-6.39-8.38-9.68-14.22-11.61-13.68-3.99-28.53-3.49-42.13.61-5.55 1.96-11.58 4.58-14.6 9.96-2.25 3.68-1.42 8.27.05 12.08-12.85.7-25.75.45-38.55-.79-10.64-.91-21.26-2.2-31.95-2.41 10.25 8.55 22.45 14.45 35.03 18.72 18.38 6.1 37.68 8.78 56.92 10.42 39.58 3.18 79.34 1.26 118.98 3 30.66 1.34 61.28 5.57 92.02 3.72 20.35-1.38 41.83-5.9 57.54-19.8-4.16-.64-8.34-.5-12.51-.23l-.22-3.38c14.27-2.42 27.99 3.93 42.21 3.55 22.75-.17 45.22-4.38 67.95-5.04 11.56-.25 23.48.18 34.35 4.53 2.11.95 4.69 1.55 5.89 3.74-20.9-.2-40.83 6.94-61.19 10.56-4.04.82-8.13 1.28-12.13 2.24 27.68.38 55.42.4 83.01-2.11 19.16-1.93 38.46-4.8 56.54-11.71a87.62 87.62 0 0 0 21.59-11.94 26.35 26.35 0 0 1-13.02-6.53c3.16-3.15 7.48-.95 11.33-1.47a19.9 19.9 0 0 0 1.73-5.31c-4.61-1.07-8.52 1.61-12.14 4.01l-2.64-.62c-.4-.99-.76-1.97-1.11-2.95 5.36-1.19 10.93-2.68 15.19-6.33 3.42-3.12 4.17-7.95 4.35-12.35 2.93 3.46 6.55 6.23 9.66 9.51 4.2 18.2 1.89 37.09 4.36 55.51.42 5.15 2.29 10.15 1.88 15.37-8.71 8.25-19.59 15.28-31.95 15.59 6.09-4.95 13.79-6.98 21.03-9.61-14.69-1.12-28.94 4.46-43.61 3.26a29.93 29.93 0 0 1-16.6-6.53c1.24-2.79 2.7-5.69 5.48-7.24 5.15-3.47 11.65-2.71 17.53-2.54l-1.16-2.82c-4.84-.79-9.69.24-14.53-.07-1.54-1.87-1.49-4.19-1.11-6.44 9.91-5.44 21.49-5.5 32.4-7.2 7.96-1.16 16.58-2.74 22.5-8.69-9.28.12-18.41 2.09-27.52 3.67-24.23 4.74-48.35 10.73-73.07 12.24-6.27.47-12.55.18-18.82.36 16.09 3.9 32.78 4.75 48.81 9.02-.84 2.71-2.09 5.54-4.62 7.04-4.01 1.04-7.65-1.55-11.43-2.35-4.41-1.26-8.93.18-12.99 1.89 9.37 8.67 23.47 6.93 34.81 3.86-14.5 13.07-33.94 18.79-52.73 22.29-35.37 6.29-71.43 5.48-107.15 8.03-5.42.44-10.9.46-16.25 1.55 9.28 6.81 21.4 7.09 32.42 6.3 10.86-.52 21.85-2.7 32.67-.69 4.73.78 8.84 3.4 12.12 6.82l-4.51 3.26-.36-.09c-3.87-1.25-7.96-.69-11.93-.75-23.33-.03-46.66.05-69.99-.04-2.49.05-5.15-.4-7.36.98-17.92-8.49-38.33-8.45-57.74-8.15-16.33.46-32.58 2.29-48.83 3.85-28.68 2.92-57.52.62-86.18-1.37-12.91-.78-25.84-2.26-38.78-1.48a36.9 36.9 0 0 0-18.73 6.69c-1.04-2-2.1-4.26-4.36-5.1-5.6-2.47-11.83-2.75-17.78-3.86.39 2.66.37 5.4-.66 7.94-9.62-.01-19.23-.13-28.84-.19l-1.56-1.2c-1.82-2.09-.44-4.52.53-6.63-4.03-.18-8.05-.24-12.07-.17l.09 6.03c-5.32.5-10.83-.28-15.71 2.35-15.02-.15-30.06.11-45.08.06-3.4-.12-6.77-1.63-10.15-.48-1.24.3-2.49.41-3.74.41-.39 0-.79-.01-1.18-.03-3.64-.17-7.3-1.01-10.94-.42-5.72.79-11.5.47-17.25.43l.43.25-2.82 4.81-.27.01c-2.12.09-4.22.13-6.28.13-27.27 0-48.45-7.04-48.67-7.12l-.4-.13 2.35-14.98a53.25 53.25 0 0 0-8.61-3.98c.42-6.49.63-13.03.05-19.51-.55-4-1.46-8.64-5.1-11.01-5.08-2.66-10.34-5.13-16.03-6.13-2.74-.81-5.94-1.33-8.33-2.97h-.05a49.9 49.9 0 0 1-8.69-2c-1.01-.34-2-.73-2.95-1.18-1.35-.62-2.33-1.29-2.83-2.23a8.65 8.65 0 0 1-2.82-3.82c-2.97-7.85-.64-16.34.45-24.33 1.03-5.29 1.06-10.7 1.94-16.01 1.94-9.88-1.15-20.44 2.9-29.97.9-2.81 3.41-4.46 5.37-6.46 1.68-2.34 2.57-5.4 5.29-6.82 4.02-2.87 10.43-4.08 11.56-9.66 1.55-11.04-11.01-18.09-9.36-29.07 3.51-6.94 7.55-13.66 10.14-21.03 1.28-3.82 3.2-7.78 2.29-11.9-1.18-6.85-3.89-13.3-5.52-20.03-2.54-9.73-4.28-20.12-1.7-30.04 1.22-5.14 4.05-9.73 7.45-13.72-.02-1.93-.06-3.86-.1-5.79.89-.34 1.78-.69 2.69-1.02-6.18-6.8-9.32-15.75-10.71-24.69-2.29-14.84-1.11-29.92.23-44.78.57-4.77.78-9.58 1.78-14.29 14.67-9.77 32.44-12.76 49.52-15.4 13.05-1.91 26.15-3.58 39.07-6.31 41.6-2.28 83.48-1.18 124.9-6.48 5.7-.31 11.39.5 17.11.49 23.01.3 45.99-1.76 69-1.17 7.19.08 14.16 2.05 21.3 2.66 24.81 2.4 49.76 1.07 74.63.77 11.35-.49 22.73-.77 34.08-.01 10.99.48 22.01-.11 33 .33C565.3 9.59 619.43 13.08 673.4 18.3c17.52 1.81 35.08 3.52 52.54 5.83.53-.13 1.11-.15 1.75.01l1.92.49c3.9.54 7.79 1.09 11.67 1.7-.14.1-.29.18-.44.27.78.36 1.31.98 1.61 1.72 2.01.69 4 1.45 5.95 2.31 6.45 2.85 11.8 8.23 18.37 10.55.31.11.58.26.83.42a28.16 28.16 0 0 1 13.81-1.21c9.06 1.28 17.37 5.79 24.5 11.38.59 8.86.27 17.84-1.69 26.53-1.67 7.16-5.04 14.21-10.79 18.97-4.59 3.77-10.43 5.53-16.19 6.45.42 1.06.68 2.23 1.4 3.17 4.68 1.48 8.19-3.31 12.71-3.54 1.39-.49 2.26 1.08 3.08 1.92a35.98 35.98 0 0 1 7.03 21.05c.26 10.58-3.49 20.64-6.58 30.6-1.56 5.25-3.4 10.75-2.22 16.28.53 6.92 3.45 13.32 4.5 20.15 1.68 9.29 2.48 19.66-2.52 28.12-1.81 3.44-4.98 5.8-8.01 8.11 2.65 17.15 7.99 34.32 18.83 48.14-.37.09-.74.2-1.1.31-5.45 1.7-9.79 5.55-14.4 8.74-3.69 2.59-8.14 3.67-12.58 4zm-50.98-51.55c20.76-4.15 41.35-10.06 60.31-19.6.34-3.1.71-6.22.44-9.34-.48-8.11-5.34-15-7-22.82-71.41 3.87-141.54 19.14-212.67 25.75 4 5.82 5.82 12.71 9.05 18.91 3.25 6.06 10.77 6.64 16.84 7.21-1.73 3.51-5.12 5.78-6.86 9.27 46.72-.39 93.82-.65 139.89-9.38zm57.03-193.9c-1.59-.88-3.15-2.38-5.11-1.89-4.09.8-7.48 4.48-11.65 4.65-.52.1-1.11.08-1.76-.15l-.06-.02-.13-.02c-.81-.22-2.07-.59-2.77-1.22-5.39-2.67-9.94-6.84-15.51-9.3-6.61-2.92-13.62-4.71-20.61-6.48a3.36 3.36 0 0 1-1.68-.98 92.73 92.73 0 0 1-3.41-.24c-8.84-.86-17.34-3.51-25.82-5.95-2.57-1.09-4.57 1.36-6.04 3.08-5.4 6.16-2.11 15.99-8.28 21.74-4.76 2.49-10.07 3.67-15.2 5.13-22.14 5.77-45.22 7.55-68.04 6.45-17.83-.91-35.79-3.83-52.27-10.96 2.87-4.65 8.35-6.96 13.23-8.94 14.14-4.71 29.32-5.25 43.36-10.36-2.85-2.49-6.89-2.62-10.36-3.7-26.21-5.8-53.24-4.87-79.89-6.51-18-1.07-36.3-2.64-53.27-9.16 14.76.77 29.43 2.9 44.2 3.78 27.6 2.26 55.26 3.76 82.92 4.89 2.66.13 5.34.09 7.99-.36-44.69-7.14-89.86-9.75-135.06-10.74-20.3-.45-40.61-.58-60.89-.64-2.84.03-5.67.03-8.51.02-17.43-.07-34.87-.76-52.28-.1 5.63 2.43 11.83 2.92 17.89 3.25 1.48.05 2.96.06 4.44.06l.01 1.95c-2.16 0-4.32.18-6.49.61-3.6.51-6.33 3.71-10.07 3.43-24.96 0-49.92-.11-74.88.03 1.43 3.49 3.53 6.92 7.17 8.44 11.09 5.28 23.97 2.61 35.44 6.52 3.81 1.45 7.93.97 11.91 1.01 1.61 1.24 3.23 2.61 5.31 2.98 10.82 2.24 21.87-1.05 32.75.3 1.64.2 1.91 1.86 1.77 3.23-24.67-1.52-49.17 2.45-73.44 6.3-21.47 3.22-43.37 6.36-65.04 3.18-4.79-.84-9.67-1.61-14.31-3.12a40.24 40.24 0 0 1-3.17-1.18l-1.1-.49c-9.42-4.81-16.33-13.35-25.79-18.1-3.77-1.89-7.98-2.55-12.12-2.97 23.02-3.98 46.14-7.9 69.51-9.12 1.43-.11 2.89-.33 4.32-.6-9.99-3.79-20.87-3.69-31.38-3.35-26.59 1.42-52.65 7.45-79.1 10.19 1.63 2.04 5.16 3.35 4.6 6.4-3.47 3.35-8.63 3.84-12.33 6.86a15.95 15.95 0 0 0 4.89 3.73c4.97-2.02 8.19-7.99 14.02-7.65 3.14 2.62 6.05 5.68 10.03 7.04 17.19 6.91 36.46 3.9 53.96 9.55l1.15.38a29.91 29.91 0 0 1 9.6 5.62c7.83.03 15.93-1.43 23.55.99-2.32 1.9-5.44 2.1-8.29 2.47-11.27 1.21-22.61.54-33.89.29 8.03 4.94 17.53 6.59 26.77 7.59 18.24 2.11 36.91.89 54.83 5.44 8.18 2.23 16.67 6.46 20.74 14.29 1.91 3.33 2.88 7.08 3.42 10.85 6.35-.43 12.77-.59 19.09.37 9.59 1.37 19.16 3.64 28.92 3a23.17 23.17 0 0 1 12.81-15.03c7.96-3.46 16.75-4.34 25.35-4.51 14.35-.31 28.69.55 43.05.29 16.26.87 32.63 2.63 48.87.51 2.53-.28 5.24-.96 7.65.28 17.94 7.92 38.15 7.83 57.31 5.92 36-3.82 71.77-13.44 108.23-10.03.04-3.69-3.86-5-6.8-5.68-10.69-2.2-21.64-.64-32.44-1.11 2.24-2.03 5.33-2.58 8.24-2.9 28.25-.99 56.55-.6 84.78-2.24 19.01-1.23 38.14-3.29 56.39-9.02 6.46-2.22 12.93-4.67 18.77-8.27z" class="st22"/></g></svg>