<svg xmlns="http://www.w3.org/2000/svg" width="252" height="538"><path fill="red" d="M184.89 7.59H95.02v33.47h89.87V7.59z"/><path fill="none" stroke="#000" stroke-width="3" d="M184.89 7.59H95.02v33.47h89.87V7.59z"/><path fill="#FFF" d="M6.8 126.55c0-6.3 1.94-12.04 5.16-16.99l40.35-50.81c11.61-14.26 23.8-12.61 23.8-12.61h103.92c64.5 6.3 64.57 67.65 64.57 67.65v397.84c0 10.47-8.53 19-19.06 19H26.14a19.06 19.06 0 0 1-19.13-19L6.8 126.54zm21.07 106.22c0 10.9 15.12 22.93 27.3 8.96l33.2-43.3a17.86 17.86 0 0 0 3.5-10.46V84.27c0-29.03-27.02-5.1-37.27 5.3l-22.93 29.1c-3.8 4.94-3.8 6.73-3.8 9.39v104.7z"/><path fill="none" stroke="#000" stroke-width="4" d="M6.8 126.55c0-6.3 1.94-12.04 5.16-16.99l40.35-50.81c11.61-14.26 23.8-12.61 23.8-12.61h103.92c64.5 6.3 64.57 67.65 64.57 67.65v397.84c0 10.47-8.53 19-19.06 19H26.14a19.06 19.06 0 0 1-19.13-19L6.8 126.54zm21.07 106.22c0 10.9 15.12 22.93 27.3 8.96l33.2-43.3a17.86 17.86 0 0 0 3.5-10.46V84.27c0-29.03-27.02-5.1-37.27 5.3l-22.93 29.1c-3.8 4.94-3.8 6.73-3.8 9.39v104.7z"/></svg>