<svg xmlns="http://www.w3.org/2000/svg" xml:space="preserve" id="Layer_1" x="0" y="0" style="enable-background:new 0 0 330.26 388.88" version="1.1" viewBox="0 0 330.26 388.88"><style>.st0,.st1,.st2{fill:url(#imagebot_10_00000095318043292852581080000012940001859491381151_);stroke:#000;stroke-width:4}.st1,.st2{fill:url(#imagebot_5_00000036237234952834250120000005200440030639866290_)}.st2{fill:url(#imagebot_2_00000098217381020681317060000015970993206511667118_)}</style><g id="imagebot_1"><linearGradient id="imagebot_10_00000043445613563242681710000012116929512847049092_" x1="-121.14" x2="-121.11" y1="623.87" y2="623.8" gradientTransform="matrix(222.217 0 0 -317.768 26990.47 198261.88)" gradientUnits="userSpaceOnUse"><stop offset="0" style="stop-color:#efeded;stop-opacity:.9961"/><stop offset="1" style="stop-color:#fff;stop-opacity:.9961"/></linearGradient><path id="imagebot_10" d="M2.29 72c22.75-15.9 54.87-29.1 54.87-29.1l97.32-40.2 35.43 126.17s13.36 49.59 34.31 82.64c-17.24 55.54-78.09 76.24-78.09 76.24l-79.2 32.72L6.32 104.65S.67 83.87 2.29 72z" style="fill:url(#imagebot_10_00000043445613563242681710000012116929512847049092_);stroke:#000;stroke-width:4"/><linearGradient id="imagebot_5_00000102521963982088135430000006693666927933562776_" x1="-122.46" x2="-122.43" y1="625.24" y2="625.16" gradientTransform="matrix(-193.1775 -20.6652 -31.4481 293.9757 -3807.05 -185951.47)" gradientUnits="userSpaceOnUse"><stop offset="0" style="stop-color:#edeaea;stop-opacity:.9961"/><stop offset="1" style="stop-color:#fff;stop-opacity:.9961"/></linearGradient><path id="imagebot_5" d="M241.88 364.72c-26.39 8.58-60.97 11.85-60.97 11.85L76.1 386.67l2.87-131.01s1.67-51.33-8.75-89.05c32.68-48.1 96.91-50.18 96.91-50.18l85.3-8.22-4.9 224.12c.01-.01-.64 21.52-5.65 32.39z" style="fill:url(#imagebot_5_00000102521963982088135430000006693666927933562776_);stroke:#000;stroke-width:4"/><linearGradient id="imagebot_2_00000097459185246144182110000001998536820513477772_" x1="-121.04" x2="-121.01" y1="623.77" y2="623.7" gradientTransform="matrix(181.541 0 0 -280.4412 22172.54 174979.9)" gradientUnits="userSpaceOnUse"><stop offset="0" style="stop-color:#efefef;stop-opacity:.9961"/><stop offset="1" style="stop-color:#fff;stop-opacity:.9961"/></linearGradient><path id="imagebot_2" d="M154.21 58.78c26.3-8.88 60.83-12.53 60.83-12.53l104.69-11.28L318.34 166s-1.09 51.34 9.75 88.95c-32.13 48.47-96.34 51.27-96.34 51.27l-85.2 9.18 2.38-224.16s.4-21.53 5.28-32.46z" style="fill:url(#imagebot_2_00000097459185246144182110000001998536820513477772_);stroke:#000;stroke-width:4"/></g></svg>