<svg xmlns="http://www.w3.org/2000/svg" xml:space="preserve" id="svg2" x="0" y="0" style="enable-background:new 0 0 1106.52 1432.85" version="1.1" viewBox="0 0 1106.52 1432.85"><style>.st1{fill:#e6e2e2}.st2{fill:#d1c2c2}.st3,.st5{fill:none;stroke:#000;stroke-width:22;stroke-linecap:round;stroke-linejoin:bevel;stroke-miterlimit:4.2667}.st5{stroke-width:19}</style><g id="g6965" transform="translate(1293.32 508.94)"><path id="path5147" d="m-1004.13-498.77-163.04 67.39-17.39 365.22-97.83 321.74 36.96 341.3-4.35 228.26 228.26 23.91s223.01 80.14 334.78 60.87c104.7-18.05 276.39-158.75 276.39-158.75l-109.44 78.17 302.62-6.37-28.26-476.09 47.83-219.57-108.84-563.57-273.77-42.95-54.35 250-4.35 128.26s-73.04 43.43-113.73 44.46c-37.82.96-103.31-31.57-107.66-35.92-4.35-4.35-6.87-245.5-6.87-245.5l-136.96-160.86zm-34.78 54.35 4.35 6.52 38.75 22.41 30.82 66.72 19.56 165.22-42.02 48.42-84.07 25.49-41.11-126.05-2.89-124.14 76.61-84.59zm610.87 56.52 65.22 65.07 3.97 127.81-64.83 120.16-104.35-100 36.96-204.35 63.03-8.69z" style="fill:#f8f8f8;stroke:#000;stroke-width:22;stroke-linecap:round;stroke-linejoin:bevel"/><path id="path6927" d="M-1101.41-.96c-71.99 115.02-168.75 242.18-102.32 383.05 2.96 97.14 134.9 274.93 3.07 315.44-22.68-118.63 8.71-268.88-9.48-399.48-15.59-154.95 148.7-54.37 131.34 45.58 32.54 41.22 92.49 212.55 17.51 173.34 18.63-102.23-46.19-222.98-.51-310.01 58.57 79.33 24.57 235.15 105.75 326.78 40.84 19.5 74.4 148.48 14.08 114.18-45.88-66.84 57.2-246.38 76.63-101.75-97.04 26.6 87.57-92.16 38.53-49.7 10.97-85.26 139.28-34.78 34.4-10.96 51.53-74.96-2.88 85.98-57.81 37.14 104.6-62.64-84.66 140.71-90.8 8.8 72.12-143.21 104.78 164.82.36 137.73-103.32-61.77-106.45-206.8-145.83-310.85-44.1-52.48-.62-229.91 63.1-134.1 13.25 98.74 50.49 233.53-1.93 316.34-118.68 1.49-68.55-164.46-144.35-228.79-48.52-51.52 38.96-143.68 25.66-38.18-11.94 108.21-.14 217.74.26 326.73 24.46 68.36-102.08 171.84-65.36 42.97-17.84-149.51-130.84-305.29-48.01-453.17 45.19-67.1 72.89-161.55 155.71-191.09z" class="st1"/><path id="path6338" d="M-1161.94 688.96c52.75 70.21 145.29 75.99 222.12 99.19 96.68-14.41 185.63 46.72 280.41 18.14 374.33-62.48-135.28 76.69 9.94-1.6 42.09-16.3 217.58-85.13 187.39-70.52-40.28 24.07 40.83-16.88-11.16 15.77-32.46 23.35-121.82 82.87-129.05 84.41 38.32-38.49-56.2 28.32.76-14.46 31.77-24.79 91.66-75.62 117.35-67.19-73.15-7.71 43.03-124.51 24.92-175.74-34.68-37.41-6.25-176.34 26.88-84.11 21.87 112.22-67.98 196.82-135.85 272.21-32.33 30.47 76.8-33.21 106.36-39.49 41.91-22.92 61.79-19.85 31.51-13.2 65.38-45.79 74.48-122.05 71.61-195.93.36-47.71-34.1-192.95 55.13-146.29-1.39 89.87-17.68 193.69-71.03 265.5-30.54 23.74-74.4 45.02-18.23 12.03-57.52 51.75-130.77 80.28-185.24 132.13-79.55 71.95-71.58-32.9-15.78-12.83-16.51 83.4-114.15 39.39-73.61 31.69-31.9 36.85-113.01 34.99-41.22-13.24 15.15-10.22 55.59-30.87 12.5-11.06 6.11-34.93 58.85-148.08 71.62-81.54-32.03 65.88-130.62 194.94-178.35 171.53 32.79-68.22 20.13-158.83 66.39-212.16 46.08 16.73 32.89 143.18-26.91 162.23 36.54-10.78-140.13 55.94-111.58 60.02-115.68 28.1 55.26-74.85 40.17-34.3-39.81 43.45-115.85 7.24-30.57-17.76 64.32-25.05 58.63 19.01 1.87 32.06-67.28-45.27 149.25-58.44 40.39-24.83-52.85-40.93-148.21-158.12-77.86-165.3-87.51 40.31 24.28-47.04 43.23 19.97 10.14 67.4 160.6 106.77 58.15 159.23-53.94 38.91-102.29-27.74-22.38-30.85 83.23 40.61-149.13 73.67-53.67 10.75 92.51-33.91 31.11 68.16-28.28 52.72 18.36-35.66 184.54-88.9 107.66-47.36 16.88-18.19 66.4-49.18 21.18-15.29 22.68-48.74-31.85-193.93 60.7-164.61 7.35 71.4-13.13 176.69-68.94 210.61 79.74-27.81 92.77-197.19 165.22-176.55 8.3 53.69-92.17 128.28-100.7 122.59 20.57-21.88 71.63-24.02 24.52-1.26 27.33-67.69 122.37-1.53 36.69-5.56 165.15 12.85 92.47-19.33 62.68-4.1-6.29-26.8 4.24-28.89 24.24-35.33 30.81-26.05 128.91-89.55 142.12-98.75 27.03-22.61 76.11-54.42 19.26-14.3 37.56-81.24 46.9-167.67 57.79-254.66 69.27-79.92 43.57 107.01 44.4 156.08 10.01 82.67-68.28 136.9-124.42 182.29-56.14 27.95-170.21 92.39-199.95 75.05 49.8-62.15 118.87-113.73 141.39-192.93 5.56-56.74-5.63-181.41 69.98-169.31 6.09 75.18 24.82 157.51-22.52 226.12 9.56 61.52-79.67 144.36-103.56 120.87 11.31 11.83-142.98 99.92-54.66 30.44 52.99-23.59 200.59-93.44 174.35-102.27-8.59 17.04-67.64 47.31-21.02 17.97-72.86 53.23-166.1 81.85-250.35 105.45 12.41-40.3 180.61-54.01 169.7-53.49-60.59 44.94-142.51 43.91-211.63 68.71-85.34-6.11-167.01-28.93-252.31-29.5-71.93-24.64-163.26-22.26-210.42-91.83-12.98-26.17 21.4-41.06 40.67-46.26z" class="st1"/><path id="path6919" d="M-881.64-110.34c7.57 22.88 31.52 34.14 53.9 36.88 20.52 2.99 41.35 4.27 61.45 9.57 46.8 7.01 95.87 12.03 141.78-2.6 9.72-7.24-11.18 8.2-14.15 10.21-4.68 3.69-28.28 20.08-13.45 6.63 16.69-15.29 33.29-31.77 55.1-39.63 29.72-12.12 66.83-11.74 93.08 8.16 14.9 10.42 10.36 32.05-4.06 40.57-22.33 15.74-51.41 24.18-78.56 18.93-23.29-9.82-48.09 3.97-72.09 1.11-17.86-8.75 8.88-25.54 17.47-32.95 30.73-21.15 70.35-24.76 106.32-18.39 15.27-.29 32.9-5.85 46.61 2.26-4.83 12.94-20.48 21.07-30.84 30.65-24.14 13.3-51.45.86-76-4.44-12.94-3.76-26.72-3.01-39.64-1.66 7.35-13.37 24.87-21.18 38.4-28.51-12.04 9.79-24.51 19.24-36.2 29.63C-673.34-11.83-728.24.7-779.02-9.86c-45.01-6.94-91.74-7.71-134.77-23.75-14.61-6.1-29.15-24.19-16.44-39.14 12.55-16.6 31.55-26.38 48.59-37.59z" class="st1"/><path id="path5743" d="M-983.22-130.9c46.74 39.38 96.16 54.43 145.77 89.7 46.61 30.71 102.74 30.69 155.7 21.5 50.01-9.21 100.36-13.29 150.66-19.23 23.76-1.55 74.43-41.51 81.02-27.13-21.75 10.03-48.93 41.92-40.4 19.43-61.84-13.1-81.83-84.06-82.93-139.43 2.3-48.46-7.43-108.38 38.75-140.34 19.53-16.25 51.26-17 16.24 6.11-28.73 38.5-65.77 13.48-25.01-17.67 21.64-27.1 67.46-48.11 50.83 5.48-11.47 31.53-89.69 73.14-53.44 8.66 6.7-16.87 77.03-54.62 36.16-14.15-18.31 9.61-83.34 55.13-31.99 22.59 19.86-20.18 56.48-46.55 35.79 2.04-10.77 59.17-39.51 102.08-10.15 156.53 11.65 37.86 127.72 65.46 67.81 104.14-34.85 28.49-28.95 36.18-68.76 56.06-47.85 10.24-149.42 9.61-197.26 21.79-58.45 8.91-121.79 14.34-173.94-19.46-43.36-25.5-86.37-51.6-134.05-68.36-82.75-56.92 18.78-47.83 39.2-68.26z" class="st2"/><path id="path5155" d="m-423.69-79.2-93.48 82.6-250 36.96-152.17-41.3-139.13-100-15.22-13.04" class="st3"/><path id="path5729" d="m-410.35 751.18-109.44 78.17" class="st3"/><path id="path5748" d="M-941.87-382.46c-4.91 19.37 2.56 39.16 1.35 58.74-.06 11.88-21.84 8.38-11.38-2.2 4.43-10.61 19.6-13.63 19.49 1.11 5.89 15.28 11.67 31.38 10.24 48.04 4.35 13.57-5.93 28.48-19.1 32.09 1.8-7.33 20.28-12.48 15.78 1.69-1.15 11.14 2.17 22.16 1.96 33.41.32 12.89 1.12 26.2-1.94 38.76-8.64 20.37-28.89 31.58-46.45 43.25 3.16-2.44 17.8-12.92 7.91-5.2-7.53 6.1-15.8 16.44-25.92 15.69.29-8.7 16.02-15.42 17.8-16.7-4.32 2.85-17.64 12.63-6.43 4.49 3.66-2.7 16.97-12.18 6.47-4.68-4.27 2.4 9.61-7.2 12.66-9.49 12.16-8.66-12.45 10.23-2.82.17 8.55-7.27 13.87-17.72 22.62-24.63 4.32-3.48 9.61-5.17 2.76.52-7.98 10.87-13.5 23.62-23.78 32.73-9.37 10.32 8.43 3.37 11.61 3.63-4.5 2.23-17.22 16.2-16.77 4.55 3.36-9.61 10.23-21.13 21.59-21.22 9.14 6.15-1.88 16.99 2.49 25.59.11 10.55-5.36 30.12-19.3 25.89-7.7-5.38-2.35-16.55-2.55-24.5 1.12-9.51 7.97-16.85 16.4-20.65 10.86-4.45.29 12.67-2.25 16.58-7.31 10.6-24.28 17.03-35.24 8.18-1.99-10.73 15.48-15.05 17.6-25.93 7.1-11.07 14.37-22.87 25.98-29.75 6.48-13.25 23.44 2.23 9.4 9.13-10.22 10.99-21.41 21.23-34.1 29.32 3.18-3.71 12.44-8.39 3.1-2.35-3.72 2.38-16.06 11.6-6.23 4.67-5.62 4.3-1.49 1.02-5.13 2.75-3.54 2.07-13.92 9.61-13.34 8.61 12.06-9.85 24.52-19.25 37.73-27.51-2.99 2.68-18.56 14-8.03 4.47 8.94-7.45 13.44-18.72 13.34-30.21.57-17.58-.32-35.18-2.56-52.62-1.08-11.41 1.58-26.29 14.11-30.2 15.17-5.52-14.09 17.16-10.85 2.25.35-11.14-4.78-22.55-5.22-34.04-1.49-12.84-1.24-25.85-1.09-38.69-.49-12.88 21.65-16.37 17.22-.7-1.1 9.93-13.99 22.63-22.8 12.54-5.46-9.5-8.53-21.85-6.83-32.81 6.54-11.16 9.96-24.49 19.16-33.91l1.34-.86z" class="st2"/><path id="path5757" d="M-1199.08 770.45c65.63 11.47 131.47 22.33 197.7 29.24 78.5 17.67 156.2 52.41 238.36 41.26 54.8-.23 112.5-18.17 164.34-40.98 2.69 63.69-29.05 23.15-22.76 18.33 66.69 38.13-10.9-1.63-10.33-1.87-14.58 8.34 127.16-14.65 119.65-22.75 30.05-28.38-1.74-24.74 38.14-34.47-2.94 19.07-56.36 38.88-19.44 13.58 24.85-20.62 51.24-39.31 78.16-57.11-10.53 10-57.56 41.5-27.12 15.44 8.77-14.49 47.29-28.44 21.49-5.22-11.53 11.9-30.19 29.71-5.62 8.71 8.99-8.5 38.58-22.73 15-3.73-9.18 8.17-44.55 32.49-39.83 26.62 11.46-10.05 36.8-23.74 12-4.23-36.64 31.75-72.41 87.46-122.03 95.05 9.84-18.75 43.88-61.87 50.45-64.96-25.25 25.39-31.65 59.58-61.7 79.04-44.26 18.04 25.09 8.68-95.52 43.46-55.57 16.78-114.47-9.78-171.52-7.19-54.78 2.91-94.31-19.23-146.08-36.26-39.11-12.23-89.71-24.74-131.12-23.77-44.42-3.66-91.32-4.09-135.37-10.27-6.58-33.16 40.73-34.53 53.15-57.92z" class="st2"/><path id="path6935" d="m-1004.13-498.77-163.04 67.39-17.39 365.22-97.83 321.74 36.96 341.3-4.35 228.26 228.26 23.91s223.01 80.14 334.78 60.87c104.7-18.05 276.39-158.75 276.39-158.75l-109.44 78.17 302.62-6.37-28.26-476.09 47.83-219.57-108.84-563.57-273.77-42.95-54.35 250-4.35 128.26s-73.04 43.43-113.73 44.46c-37.82.96-103.31-31.57-107.66-35.92-4.35-4.35-6.87-245.5-6.87-245.5l-136.96-160.86zm-34.78 54.35 4.35 6.52 38.75 22.41 30.82 66.72 19.56 165.22-42.02 48.42-84.07 25.49-41.11-126.05-2.89-124.14 76.61-84.59zm610.87 56.52 65.22 65.07 3.97 127.81-64.83 120.16-104.35-100 36.96-204.35 63.03-8.69z" style="fill:none;stroke:#000;stroke-width:22;stroke-linecap:round;stroke-linejoin:bevel"/><path id="path5723" d="M-1034.56-437.9s102.39 78.34 100.07 80.66c-2.32 2.32 13.93 41.8 13.93 41.8h0" class="st3"/><path id="path5725" d="m-491.08-379.2-57.89 31.26-16.26 69.67v30.19" class="st3"/><path id="path5727" d="m-953.07 829.53-68.44 19.53-61.61-3.27" class="st3"/><path id="path5731" d="m-927.53 673.93 95.22 104.51" class="st5"/><path id="path5733" d="m-753.34 639.09-2.32 132.38h2.32" class="st5"/><path id="path5735" d="m-641.87 666.96-53.42 118.44" class="st5"/><path id="path5737" d="m-467.68 262.86-11.61 209.02-13.93 92.9 9.29 90.58-78.96 83.61" class="st5"/><path id="path5739" d="m-328.34 334.85 4.64 130.06-9.29 153.28-99.86 76.64" class="st5"/></g></svg>