<svg xmlns="http://www.w3.org/2000/svg" xml:space="preserve" id="svg2" x="0" y="0" style="enable-background:new 0 0 453.54 620.24" version="1.1" viewBox="0 0 453.54 620.24"><style>.st1{fill:none;stroke:#dabf44;stroke-width:6.2583;stroke-miterlimit:7.1524}.st5{fill:#fff}.st6{fill:#cf1f20}.st8{fill:#ae2425}.st13{fill:#992728}.st14{fill:#fff;stroke:#fff8f8;stroke-width:1.606}.st15{fill:none;stroke:#000;stroke-width:.7152}.st16{fill:#d9be44}.st18{fill:none;stroke:#000;stroke-width:1.0729}.st21{stroke:#000;stroke-width:.6589;stroke-miterlimit:7.1524}</style><g id="g480002"><path id="path2818" d="M406.77 73.33c17.75-25.4 29.3-16.51 39.42-41.9l.96-29.9S269.71 3.46 264.89 3.46c-4.82 0-49.18 8.68-49.18 8.68C146.14-2.29 72.51 3.59.66.56L11.27 53.6 24.29 70c-4.78 47.16 5.39 113.8 7.36 156.17l2.77 56.95c.45 74.48-11.59 54.44 4.82 249.77L5.48 575.32v44.36l211.19-10.61 32.79-1.93 45.32 6.75 156.23-.96.96-35.68-15.43-26.04-20.24-51.11c.11-42.26-2.68-85.96-6.15-130.01-4.17-26.49-3.39-52.01-.02-78.33-1.04-68.28 7.68-190.15-3.36-218.43z" style="fill:#fddb41;stroke:#000;stroke-width:1.0729"/><path id="path4162" d="M86.83 591.96c3.78-.37 7.52-1.07 11.26-1.68a416.2 416.2 0 0 0 14.01-2.22c2.9-.65 5.74-1.56 8.51-2.63 2.05-.78 4.16-1.41 6.22-2.17 2.56-.87 5.07-1.86 7.6-2.8 2.7-1.15 5.4-2.29 8.24-3.04 2.19-.53 4.45-.62 6.69-.67 3.33-.1 6.64.04 9.96.31 3.74.33 7.47.46 11.19.97 2.95.46 5.87 1.11 8.84 1.48 3.17.56 6.33 1.23 9.47 1.94 4.38.96 8.79 1.73 13.23 2.4 5.09.8 10.16 1.66 15.26 2.38 4.09.67 8.16 1.49 12.26 2.08 4.9.6 9.85.67 14.78.73 5.87.05 11.75.03 17.62.03l15.08-.01h28.8c4.73.09 9.47-.16 14.16-.75 4.49-.57 8.97-1.2 13.43-1.92 4.11-.71 8.16-1.61 12.31-2.06 1.86-.18 3.72-.25 5.58-.33l-.59.81c-1.85.08-3.71.16-5.56.34-4.14.47-8.19 1.37-12.29 2.06-4.47.71-8.95 1.36-13.44 1.91-4.71.56-9.45.82-14.2.72H276.44l-15.08.01c-5.87.01-11.75.02-17.62-.03-4.95-.06-9.91-.13-14.82-.75-4.1-.6-8.17-1.42-12.26-2.08-5.1-.73-10.17-1.58-15.26-2.38-4.44-.67-8.87-1.44-13.26-2.4-3.14-.69-6.28-1.38-9.45-1.91-2.97-.39-5.88-1.03-8.84-1.48-3.71-.5-7.44-.63-11.17-.96a89.11 89.11 0 0 0-9.94-.27c-2.22.05-4.45.16-6.61.71-2.82.78-5.51 1.93-8.2 3.06-2.53.95-5.05 1.92-7.6 2.8-2.07.74-4.16 1.41-6.21 2.17a59.56 59.56 0 0 1-8.57 2.59c-4.65.83-9.33 1.52-14.01 2.21-3.75.62-7.49 1.3-11.28 1.7l.57-.87z" class="st1"/><path id="path3890" d="M308.54 612.8c49.16-14.68 152.24 15.16 127.66-60.39l15.91 25.68-1.45 33.99-142.12.72z" style="fill:#d3b944"/><path id="path3856" d="m40.07 532.1 388.41.06-12.79-31.45-1.53-60.09-381.25.12 7.16 91.36z" style="fill:#fff;stroke:#000;stroke-width:1.0729"/><path id="path4014" d="m32.88 446.6 192.31-2.17v36.89l-188.93.72-3.38-35.44z"/><path id="rect3818" d="m34.41 454.78 185.16-2.17v36.89l-181.9.72-3.26-35.44z" style="fill:#ca2021;stroke:#000;stroke-width:.1788"/><path id="path3964" d="m56.66 526.53 307.37-20.46c31.92-4.51 42.98-31.34 50.63-57.28l.51 72.62-358.51 5.12z"/><path id="path3781" d="M33.33 442.85c79.74-36.55 122.1-28.53 201.32-27.07 78.72.1 126.45-20.79 171.53-85.57l2.43-43.95.62-37.74c-24.29 35.12-34.85 62.41-66.84 87.49-34.76 27.39-46.77 40.45-97.03 37.64-74.48-4.94-152.14-26.69-213.48 37.71l1.45 31.49z" class="st5"/><path id="path3719" d="M38.75 529.26c79.89-13.07 207.62-12.05 291.48-20.53 61.83-6.26 69.54-17.71 83.3-53.49 0 0-6.63 47.26-9.53 50.15s-57.14 15.91-57.14 15.91l-224.21 5.06-83.9 2.9z" class="st5"/><path id="path3707" d="m40.82 527.56 326.29-18.41c31.92-4.51 39.91-33.9 47.56-59.84l1.53 51.14 11.25 28.64-386.63-1.53z" class="st6"/><path id="rect3869" d="m36.94 469.97 140.68-.36v20.61l-139.59-.72-1.09-19.53z" style="fill:#af2425"/><path id="path3709" d="M174.52 526.47c49.87-5.37 236.08 3.56 238.87-40.34l.26-33.5 1.53 48.59 11.51 27.11-252.16-1.85-.01-.01z" class="st8"/><path id="path2868" d="m52.07 147.56 10.23 116.6 2.05 108.42" style="fill:none;stroke:#fff;stroke-width:8.0464;stroke-miterlimit:7.1524"/><path id="path3689" d="M222.92 79.01c-10.24 0-20.17 1.37-29.66 3.81l-5.02 14.87c-2.1.73-4.19 1.56-6.23 2.42l-14.5-7.44a119.63 119.63 0 0 0-41.93 37l6.51 14.32a104.98 104.98 0 0 0-7.16 15.06l-16.18 6.04a118.69 118.69 0 0 0-4.56 32.63c0 6.46.49 12.78 1.49 18.96l15.34 5.67a104.3 104.3 0 0 0 8.55 22.4l-7.25 15.99a119.5 119.5 0 0 0 33.65 35.05l15.43-7.62a103.1 103.1 0 0 0 20.82 8.92l5.67 16.64c8.06 1.73 16.43 2.6 25.01 2.6 7.73 0 15.27-.64 22.59-2.05l5.49-16.64a105.3 105.3 0 0 0 22.22-9.02l15.71 7.81a119.2 119.2 0 0 0 33.19-33.75l-7.16-15.8v-.19a105.02 105.02 0 0 0 9.67-25.19l15.53-5.76a119.1 119.1 0 0 0 1.49-18.04c0-10.97-1.58-21.62-4.37-31.7l-16.36-6.04a103.94 103.94 0 0 0-8.65-18.04l6.41-14.32a119 119 0 0 0-41.56-35.42l-14.87 7.34a99 99 0 0 0-7.25-2.6l-5.02-14.78a121.03 121.03 0 0 0-27.04-3.13zm.18 66.56a48.66 48.66 0 1 1 0 97.33 48.66 48.66 0 0 1-48.71-48.62 48.74 48.74 0 0 1 48.71-48.71z" class="st5"/><path id="path3598" d="M269.84 193.65a49.28 49.28 0 1 1-98.56 0 49.28 49.28 0 0 1 98.56 0zm-48.68-103.9c-9.1 0-17.93 1.23-26.35 3.4l-4.45 13.24c-1.87.65-3.7 1.35-5.5 2.11l-12.88-6.56a106 106 0 0 0-37.24 32.79l5.74 12.77a92.14 92.14 0 0 0-6.32 13.35l-14.41 5.39a105.33 105.33 0 0 0-3.98 28.93c0 5.74.41 11.38 1.29 16.87l13.59 5.04a93 93 0 0 0 7.61 19.91l-6.44 14.17a105.87 105.87 0 0 0 29.87 31.15l13.7-6.79a91.96 91.96 0 0 0 18.51 7.96l5.04 14.76a106.65 106.65 0 0 0 22.25 2.34c6.86 0 13.53-.62 20.03-1.87l4.92-14.76a93.47 93.47 0 0 0 19.68-7.96l13.94 6.91a106.28 106.28 0 0 0 29.52-29.98l-6.32-14.05v-.12a93.18 93.18 0 0 0 8.55-22.37l13.82-5.15c.8-5.23 1.29-10.59 1.29-16.05 0-9.74-1.39-19.15-3.87-28.11l-14.56-5.4c-2.1-5.62-4.63-11-7.73-16.05l5.74-12.65a105.98 105.98 0 0 0-36.89-31.51L256.03 108a89.83 89.83 0 0 0-6.44-2.34l-4.45-13.12a105.53 105.53 0 0 0-24.01-2.81l.03.02z" style="fill:#fdee6f"/><path id="path3608" d="m162.11 282.26 12.95-6.87c6.1 3.08 12.07 7.2 18.49 7.66l5.42 15.32c14.29 3.22 28.33 2.56 42.27.53l4.89-14.66c9.02-3.51 15.99-5.58 19.81-8.59l13.47 7.66c13.27-9.66 22.96-19.75 30.25-30.12l-6.87-14.13c3.45-5.87 6.19-13.64 8.59-22.32l14-5.81c1.61-12.1 2.92-24.51-2.38-43.85l-14.66-5.02c-2.2-5.45-4.67-11.21-8.06-16.51l6.08-12.02c-9.96-14.5-23.05-23.78-36.19-32.23 24.07 58.34 35.58 100.57 20.23 131.38-37.55 58.8-104.31 33.99-158.66 18.15 9.21 14.55 19.74 24.99 30.37 31.43z" style="fill:#f6a520"/><path id="path3720" d="M112.02 139.24c-12.52 32.22-19.32 99.44 2.81 126.15 42.18-20.41 59.01-20.01 78.07-23.36 24.65-4.35 43.46-3.24 59.95-.04 21.16 3.51 43.32 6.76 64.6 3.32 8.25-2.7 12.28-7.9 17.25-17.48 16-35.86-3.31-74.75-16.67-98.88-5.5 12.3-16.39 18.04-30.15 20.28-25.3.97-52.78 2.73-77.31-5.59-20.55-7.19-37.22-19.7-66.34-19.62-14.04-.45-25 1.1-32.21 15.22z" style="fill:#ededed"/><path id="path3700" d="M115.86 147.09c-11.98 28.93-18.48 89.27 2.69 113.25 40.34-18.32 56.44-17.96 74.67-20.97 23.58-3.9 41.57-2.91 57.33-.04 20.24 3.15 41.43 6.07 61.78 2.98 7.89-2.43 11.75-7.09 16.5-15.7 15.3-32.2-3.16-67.1-15.94-88.76-5.26 11.04-15.67 16.19-28.83 18.21-24.2.87-50.48 2.45-73.94-5.02-19.65-6.45-35.6-17.69-63.45-17.61-13.44-.41-23.92.98-30.81 13.66z" class="st6"/><path id="path3704" d="M118.55 260.08c10.17-14.02 16.39-24.91 13.86-43.27-2.21-11.22-2.71-23.69-7.52-34.81-4.33-10.71-6.22-22.26-8.9-33.93-11.83 22.64-13.39 59.74-8.18 88.78a48.86 48.86 0 0 0 10.74 23.23z" class="st13"/><path id="path3718" d="M304.79 202.97c2.21-11.22 3.44-19.35 8.24-30.47 4.33-10.71-2.1-17.19.58-28.86 11.83 22.64 22.43 41.65 17.22 70.7-7.75 36.82-27.62 18.77-26.04-11.37z" class="st13"/><g id="text3726" transform="scale(.89527 1.11699)"><path id="path479983" d="M160.75 161.53c-1.34 0-2.34-.78-3.01-2.35-.59-1.34-1.13-2.15-1.63-2.45-.44-.23-1.53-.35-3.26-.35-3.03 0-6.4 2.32-10.1 6.96-5.02 6.23-7.53 12.14-7.53 17.72 0 2.7.87 5.02 2.6 6.96a8.28 8.28 0 0 0 6.43 3.01c2.15 0 4.32-.55 6.49-1.66a49.6 49.6 0 0 0 5.58-3.7c1.19-.88 2.09-1.32 2.7-1.32.9 0 1.65.35 2.26 1.04.61.67.91 1.42.91 2.26 0 .94-.4 1.77-1.19 2.48-5.52 4.89-11.1 7.34-16.75 7.34a14.2 14.2 0 0 1-10.98-4.99 16.54 16.54 0 0 1-4.33-11.42c0-7.09 2.97-14.36 8.91-21.8 4.96-6.21 9.95-9.32 14.99-9.32 1.02 0 1.94.05 2.76.16.82.08 1.54.23 2.16.44a3.31 3.31 0 0 1 2.85-1.6c1.44 0 2.35.95 2.73 2.85.33 1.69.5 3.77.5 6.24a3.8 3.8 0 0 1-.69 2.26 2.7 2.7 0 0 1-2.4 1.24z" class="st14"/><path id="path479985" d="M200.09 197.07c-.79 0-1.54-.33-2.23-1-6.92-6.84-14.62-11.44-23.09-13.8l.25 6.15.16 6.18c0 .92-.3 1.68-.91 2.29-.59.63-1.33.94-2.23.94-.9 0-1.65-.31-2.26-.94a3.15 3.15 0 0 1-.88-2.29c0-1.65-.08-4.11-.25-7.37a175.1 175.1 0 0 1-.22-7.4c0-1.92.21-4.79.63-8.59.42-3.81.63-6.66.63-8.56 0-1.07-.1-2.65-.31-4.74a56.52 56.52 0 0 1-.28-4.74c0-1.19.33-2.24 1-3.14a3.48 3.48 0 0 1 3.29-1.51l7.56.6c2.86.36 5.28 1.06 7.25 2.1 8.47 4.5 12.7 9.98 12.7 16.47 0 3.18-1.44 5.99-4.33 8.44a23.6 23.6 0 0 1-8.69 4.49c6.5 3.49 11.37 7.17 14.59 11.04.54.67.82 1.38.82 2.13 0 .88-.32 1.64-.97 2.29-.63.63-1.38.96-2.23.96zm-19.98-41.47-4.64-.38.31 3.8c.15 1.55.22 2.81.22 3.8 0 1.67-.14 3.75-.41 6.24l-.66 6.24 1.35.03 1.41.03c5.33 0 9.33-.71 11.98-2.13 1.17-.65 2.26-1.5 3.26-2.54 1.11-1.17 1.66-2.16 1.66-2.98 0-2.91-1.65-5.61-4.96-8.12a18.89 18.89 0 0 0-9.52-3.99z" class="st14"/><path id="path479987" d="M235.18 157.64c-1.34 0-3.02-.14-5.05-.41l-5.05-.66c-.48 6.09-.72 11.9-.72 17.44 0 1.46.04 3.27.13 5.43.08 2.15.13 3.96.13 5.43 0 1.97-.07 3.75-.22 5.36l9.88-.13c.88 0 1.61.31 2.2.94.61.61.91 1.36.91 2.26 0 .92-.3 1.69-.91 2.32-.59.61-1.32.91-2.2.91-1.17 0-2.93.03-5.27.09-2.34.04-4.1.06-5.27.06-1.38 0-3.45.19-6.21.56-2.74.4-4.81.6-6.21.6a3.12 3.12 0 0 1-3.11-3.2c0-.9.29-1.66.88-2.29a2.98 2.98 0 0 1 2.23-.94c1.36 0 3.61-.22 6.74-.66.21-1.69.31-3.63.31-5.8 0-1.44-.07-3.2-.22-5.27a86.85 86.85 0 0 1-.19-5.27c0-4.83.29-10.86.88-18.1l-4.08.13-4.08.09a3.13 3.13 0 0 1-3.17-3.23c0-1.94.98-3.01 2.95-3.2a113.87 113.87 0 0 1 25.15 1.1c1.86.27 2.79 1.39 2.79 3.36 0 .98-.36 1.77-1.07 2.35-.61.49-1.33.73-2.15.73z" class="st14"/><path id="path479989" d="M244.5 188.91c-.02-.88.27-1.59.88-2.13a3.33 3.33 0 0 1 2.29-.85c1.02 0 1.92.59 2.7 1.76a12.1 12.1 0 0 0 2.85 3.23c1.78 1.17 4.36 1.76 7.75 1.76 3.24 0 6.25-.7 9.03-2.1 3.55-1.8 5.33-4.3 5.33-7.5 0-2.63-1.5-4.72-4.49-6.24-2.53-1.32-5.66-2.03-9.38-2.13-3.3-.13-6.12-.85-8.44-2.16-2.97-1.69-4.45-4.12-4.45-7.28 0-3.72 2.11-7.12 6.34-10.19 4.04-2.91 8.21-4.36 12.52-4.36 2.03 0 4.32.35 6.87 1.04 3.39.9 5.08 2.05 5.08 3.45 0 1.84-.94 2.76-2.82 2.76-.84 0-2.3-.22-4.39-.66a22.5 22.5 0 0 0-4.86-.66c-3.26.04-6.03.85-8.31 2.42-2.34 1.61-3.51 3.57-3.51 5.87 0 1.74 1.55 2.96 4.64 3.67 1.15.27 3.38.52 6.68.75 4.79.36 8.53 1.86 11.23 4.52a11.97 11.97 0 0 1 3.7 8.88c0 4.98-2.3 8.95-6.9 11.92-3.99 2.57-8.63 3.86-13.9 3.86-3.83 0-7.33-.73-10.51-2.2-3.89-1.83-5.87-4.29-5.93-7.43z" class="st14"/><path id="path479991" d="M297.79 178.31c-.59 0-1.86-.14-3.83-.41-.17 3.16-.25 8.69-.25 16.59 0 .84-.27 1.55-.82 2.13-.54.56-1.22.85-2.04.85-.84 0-1.53-.28-2.07-.85a3.05 3.05 0 0 1-.82-2.13v-9.22c0-3.07.19-7.4.56-12.99.42-6.04.65-10.37.69-12.99v-4.33c0-2.07.13-3.58.38-4.52.48-1.84 1.51-2.63 3.07-2.38a13.7 13.7 0 0 1 2.85-.47c1.23-.1 2.75-.16 4.55-.16 3.83 0 7.41 1.31 10.76 3.92 3.68 2.89 5.52 6.36 5.52 10.41 0 5.19-1.97 9.32-5.9 12.39-3.49 2.78-7.71 4.16-12.65 4.16zm1.57-24.91c-.92 0-1.75.02-2.48.06-.71.04-1.32.1-1.82.19l-.06 5.77-.66 12.48 3.45.41c3.51 0 6.47-.89 8.88-2.67a9.29 9.29 0 0 0 3.95-7.87c0-2.34-1.25-4.36-3.76-6.05a13.32 13.32 0 0 0-7.5-2.32z" class="st14"/><path id="path479993" d="M322.41 188.91c-.02-.88.27-1.59.88-2.13a3.33 3.33 0 0 1 2.29-.85c1.02 0 1.92.59 2.7 1.76a12.1 12.1 0 0 0 2.85 3.23c1.78 1.17 4.36 1.76 7.75 1.76 3.24 0 6.25-.7 9.03-2.1 3.55-1.8 5.33-4.3 5.33-7.5 0-2.63-1.5-4.72-4.49-6.24-2.53-1.32-5.66-2.03-9.38-2.13-3.3-.13-6.12-.85-8.44-2.16-2.97-1.69-4.45-4.12-4.45-7.28 0-3.72 2.11-7.12 6.34-10.19 4.04-2.91 8.21-4.36 12.52-4.36 2.03 0 4.32.35 6.87 1.04 3.39.9 5.08 2.05 5.08 3.45 0 1.84-.94 2.76-2.82 2.76-.84 0-2.3-.22-4.39-.66a22.5 22.5 0 0 0-4.86-.66c-3.26.04-6.03.85-8.31 2.42-2.34 1.61-3.51 3.57-3.51 5.87 0 1.74 1.55 2.96 4.64 3.67 1.15.27 3.38.52 6.68.75 4.79.36 8.53 1.86 11.23 4.52a11.97 11.97 0 0 1 3.7 8.88c0 4.98-2.3 8.95-6.9 11.92-3.99 2.57-8.63 3.86-13.9 3.86-3.83 0-7.33-.73-10.51-2.2-3.89-1.83-5.86-4.29-5.93-7.43z" class="st14"/></g><path id="path3906" d="M5.81 575.65 5.79 619l73.26-3.81s-56.94-5.64-57.67-7.08c-.72-1.45-15.57-32.1-15.57-32.46z" class="st16"/><g id="text3862" transform="matrix(1.3909 0 0 2.2987 -332.01 -79.24)"><path id="path479996" d="M485.84 255.73H473.3v-2.6l2.61-2.24c.88-.75 1.7-1.49 2.45-2.23a23.92 23.92 0 0 0 3.27-3.67 5.3 5.3 0 0 0 .88-2.95c0-.96-.32-1.71-.96-2.25a3.9 3.9 0 0 0-2.65-.82c-.75 0-1.57.13-2.45.4-.88.27-1.74.67-2.57 1.22h-.12v-2.61c.59-.29 1.37-.56 2.35-.8.99-.24 1.94-.36 2.86-.36 1.9 0 3.39.46 4.46 1.38a4.6 4.6 0 0 1 1.62 3.72 7.07 7.07 0 0 1-1.05 3.71c-.32.51-.7 1.02-1.14 1.52-.43.5-.96 1.05-1.58 1.65-.89.87-1.8 1.72-2.75 2.54l-2.65 2.26h9.96v2.13z"/><path id="path479998" d="M502.48 250.52h-2.75v5.21h-2.39v-5.21h-8.87v-2.86l8.97-10.45h2.29v11.32h2.75v1.99zm-5.14-1.99v-8.36l-7.17 8.36h7.17z"/><path id="path480000" d="M517.3 254.15c0 2.35-.53 4.08-1.6 5.19-1.07 1.1-2.71 1.65-4.94 1.65a14.52 14.52 0 0 1-4.22-.6V258h.12c.38.15.99.33 1.82.55a9.7 9.7 0 0 0 2.49.34c.8 0 1.45-.1 1.98-.29a2.75 2.75 0 0 0 1.84-1.97c.12-.46.19-.97.19-1.53v-1.27c-.7.56-1.38.99-2.03 1.27-.64.27-1.45.41-2.45.41-1.66 0-2.98-.6-3.95-1.79-.97-1.2-1.45-2.89-1.45-5.07 0-1.19.17-2.22.5-3.08a7.1 7.1 0 0 1 1.38-2.25 5.6 5.6 0 0 1 1.96-1.37c.77-.33 1.54-.5 2.3-.5.8 0 1.48.08 2.01.25.55.16 1.12.4 1.73.73l.15-.6h2.19v12.32h-.02zm-2.34-2.23v-7.57a9.02 9.02 0 0 0-1.74-.6 7.2 7.2 0 0 0-1.59-.19c-1.28 0-2.3.43-3.03 1.29-.74.86-1.11 2.11-1.11 3.76 0 1.56.27 2.74.82 3.54s1.45 1.21 2.72 1.21c.68 0 1.36-.13 2.04-.39a7.27 7.27 0 0 0 1.89-1.05z"/></g><path id="path3924" d="M80.45 2.52 17.78 15.75 25.18 70 11.69 52.81 1.19 1.42l79.26 1.1z" class="st16"/><path id="path4116" d="M93.02 37.86c3.49.53 7.03.66 10.55.78 4.46.18 8.91.13 13.37-.18 6.43-.31 12.8-1.27 19.17-2.17 7.56-1.13 15.15-2 22.71-3.14 5.65-.93 11.28-2 16.95-2.8 3.39-.62 6.77-1.3 10.2-1.65 2.54-.29 5.04-.73 7.59-.95 2.87-.48 5.75-.89 8.66-1.1 4.63-.13 9.29.32 13.87 1 5.31.79 10.55 1.97 15.82 2.94 3.76.95 7.6 1.41 11.4 2.14 2.37.62 4.85.54 7.24 1.01 3.51.75 7.08 1.12 10.64 1.58a196 196 0 0 0 18.44 1.28c5.53.13 11.05.13 16.58.13 4.93.06 9.84-.57 14.7-1.35 5.77-.96 11.54-1.9 17.3-2.92 4.22-.81 8.53-1.31 12.66-2.52l-.52.86c-4.16 1.14-8.45 1.69-12.68 2.48-5.76 1.01-11.53 1.97-17.31 2.92-4.88.77-9.8 1.4-14.75 1.32-5.53 0-11.06 0-16.58-.14a200.1 200.1 0 0 1-18.47-1.3c-3.57-.45-7.15-.84-10.67-1.58-2.39-.42-4.86-.41-7.23-1.01-3.8-.73-7.64-1.19-11.39-2.14-5.27-.98-10.5-2.16-15.81-2.94-4.56-.66-9.2-1.1-13.81-.93-2.9.23-5.78.66-8.66 1.11-2.54.23-5.05.69-7.59.96-3.42.37-6.79 1.05-10.18 1.65-5.66.81-11.29 1.87-16.94 2.79-7.56 1.14-15.15 2-22.71 3.14-6.38.9-12.76 1.84-19.2 2.17-4.46.31-8.93.33-13.4.16a91.69 91.69 0 0 1-10.6-.79l.65-.81z" class="st1"/><path id="path3684" d="m5.02 18.68 157.01 1.02 40.4 9.21" class="st15"/><path id="path3688" d="M8.08 38.63c2.05 0 163.66-2.56 163.66-2.56l35.29 4.09" class="st15"/><path id="path3946" d="M362.64 3.88c21.3 6.09 86.17-7.38 61.6 32.85l-17.57 35.74 16.12-16.21c14.72-8.64 18.78-16.62 22.84-24.59l1.75-30.38-84.74 2.59z" style="fill:#e3c743"/><path id="path3690" d="M234.14 44.77c2.56-1.02 23.01-6.65 23.01-6.65l189.23-7.67" class="st15"/><path id="path3692" d="M288.35 19.71c3.07.51 157.52-.51 157.52-.51" class="st15"/><path id="path3860" d="M414.67 448.29H32.12" class="st18"/><path id="path3705" d="M426.6 528.57H39.35" class="st18"/><path id="path3729" d="M22.84 67.83c5.79 0 386.1 2.13 386.1 2.13" style="fill:none;stroke:#000;stroke-width:.5364"/><path id="path3731" d="M33.33 435.61c79.74-32.74 122.09-25.55 201.32-24.25 78.71.09 126.45-18.62 171.53-76.65l2.43-39.37.62-33.81c-24.29 31.46-34.85 55.9-66.84 78.37-34.76 24.53-46.77 36.23-97.03 33.72-74.48-4.43-152.14-23.91-213.47 33.78l1.45 28.21h-.01z" class="st6"/><path id="path3733" d="M77.8 378.83c-8.58 10.33-20.89 19.04-24.98 31.33-.27 12.75-7.06 21.49-19.86 26.53l-.72-29.65c17.14-16.33 27.74-21.49 45.56-28.21z" class="st8"/><path id="path3763" d="M406.99 268.26c-9.48 40.61-22.79 64.85-40.7 81.6-28.77 26.91-69.39 34.48-125.01 59.56 3.19 3.85 53.19-1.02 54.21-3.07 49.12-11.57 85.51-35.87 111.49-70.58-.08-15.23-.73-30.61 2.89-44.91.01-.01.19-29.76-2.88-22.6z" style="fill:#b32324"/><g id="text3799" transform="translate(-332.01 -79.24) scale(1.7881)"><path id="path479958" d="m219.71 303.87-3.25 8.04h-1.36l-3.23-8.04h1.47l2.49 6.4 2.47-6.4h1.41z" class="st21"/><path id="path479960" d="M228.21 308.03h-5.92c0 .49.07.93.22 1.3.15.36.35.66.61.9.25.23.54.4.89.52s.72.17 1.14.17c.55 0 1.1-.11 1.65-.32.56-.22.95-.44 1.19-.65h.07v1.48c-.46.19-.92.35-1.4.48a5.6 5.6 0 0 1-1.5.19 4.32 4.32 0 0 1-3.12-1.08c-.75-.72-1.12-1.75-1.12-3.08 0-1.31.36-2.36 1.07-3.13a3.7 3.7 0 0 1 2.84-1.16c1.08 0 1.92.32 2.5.95.59.63.89 1.53.89 2.7l-.01.73zm-1.32-1.04c0-.71-.18-1.26-.54-1.65-.35-.39-.89-.58-1.6-.58a2.34 2.34 0 0 0-2.46 2.23h4.6z" class="st21"/><path id="path479962" d="M236.2 311.4a8.1 8.1 0 0 1-1.29.5 4.84 4.84 0 0 1-2.89-.07 3.3 3.3 0 0 1-2.06-2.09 5.44 5.44 0 0 1-.29-1.85c0-1.31.36-2.35 1.08-3.09a3.79 3.79 0 0 1 2.86-1.12c.46 0 .91.06 1.35.19.45.13.85.29 1.22.47v1.5h-.07a5.05 5.05 0 0 0-1.28-.74 3.52 3.52 0 0 0-1.28-.26c-.77 0-1.37.26-1.82.78-.44.51-.66 1.27-.66 2.27 0 .97.22 1.72.65 2.24.44.52 1.05.78 1.84.78a3.44 3.44 0 0 0 1.59-.39c.2-.1.38-.21.55-.32.17-.12.31-.21.41-.3h.07l.02 1.5z" class="st21"/><path id="path479964" d="M242.12 311.83a8.07 8.07 0 0 1-1.63.23c-.82 0-1.44-.22-1.87-.66-.43-.44-.64-1.15-.64-2.12v-4.27h-.91v-1.14h.91v-2.31h1.35v2.31h2.79v1.14h-2.79v3.66c0 .42.01.75.03.99.02.24.09.46.2.66.11.19.25.33.43.42a2.84 2.84 0 0 0 1.54.04c.24-.07.41-.12.52-.17h.07v1.22z" class="st21"/><path id="path479966" d="M250.61 307.89c0 1.31-.34 2.34-1.01 3.1s-1.57 1.14-2.7 1.14a3.43 3.43 0 0 1-2.71-1.14c-.67-.76-1-1.79-1-3.1s.33-2.34 1-3.1a3.44 3.44 0 0 1 2.71-1.14c1.13 0 2.03.38 2.7 1.14a4.47 4.47 0 0 1 1.01 3.1zm-1.39 0c0-1.04-.2-1.81-.61-2.32a2.05 2.05 0 0 0-1.7-.76c-.73 0-1.31.25-1.71.76-.4.5-.6 1.28-.6 2.32 0 1.01.2 1.77.61 2.3.41.52.98.78 1.71.78.72 0 1.28-.26 1.69-.77.4-.52.61-1.29.61-2.31z" class="st21"/><path id="path479968" d="M257.73 305.34h-.07a6.19 6.19 0 0 0-1.26-.14c-.42 0-.82.09-1.21.28a5.4 5.4 0 0 0-1.12.71v5.71h-1.35v-8.04h1.35v1.19a6.32 6.32 0 0 1 1.42-.91 3.1 3.1 0 0 1 1.26-.27 5.38 5.38 0 0 1 .98.08v1.39z" class="st21"/><path id="path479970" d="M270.14 311.4a8.1 8.1 0 0 1-1.29.5 4.84 4.84 0 0 1-2.89-.07 3.3 3.3 0 0 1-2.06-2.09 5.44 5.44 0 0 1-.29-1.85c0-1.31.36-2.35 1.08-3.09a3.79 3.79 0 0 1 2.86-1.12c.46 0 .91.06 1.35.19.45.13.85.29 1.22.47v1.5h-.07a5.05 5.05 0 0 0-1.28-.74 3.52 3.52 0 0 0-1.28-.26c-.77 0-1.37.26-1.82.78-.44.51-.66 1.27-.66 2.27 0 .97.22 1.72.65 2.24.44.52 1.05.78 1.84.78a3.44 3.44 0 0 0 1.59-.39c.2-.1.38-.21.55-.32.17-.12.31-.21.41-.3h.07l.02 1.5z" class="st21"/><path id="path479972" d="M276.9 305.34h-.07a6.19 6.19 0 0 0-1.26-.14c-.42 0-.82.09-1.21.28a5.4 5.4 0 0 0-1.12.71v5.71h-1.35v-8.04h1.35v1.19a6.32 6.32 0 0 1 1.42-.91 3.1 3.1 0 0 1 1.26-.27 5.38 5.38 0 0 1 .98.08v1.39z" class="st21"/><path id="path479974" d="M279.64 302.52h-1.53v-1.4h1.53v1.4zm-.08 9.39h-1.35v-8.04h1.35v8.04z" class="st21"/><path id="path479976" d="M287.99 309.59c0 .73-.3 1.34-.91 1.81-.6.47-1.43.71-2.48.71a6.08 6.08 0 0 1-2.89-.68v-1.52h.07c.43.32.9.58 1.42.77.52.19 1.02.28 1.5.28.59 0 1.06-.1 1.4-.29.34-.19.5-.49.5-.91 0-.32-.09-.56-.27-.72-.18-.16-.53-.3-1.05-.42l-.76-.15c-.31-.06-.59-.12-.84-.19a2.8 2.8 0 0 1-1.5-.82 2.08 2.08 0 0 1-.44-1.34c0-.33.07-.64.2-.94.14-.29.35-.55.63-.78.27-.23.61-.4 1.02-.53.42-.13.88-.2 1.4-.2a6.26 6.26 0 0 1 2.68.6v1.45h-.07a4.96 4.96 0 0 0-2.71-.91c-.49 0-.91.1-1.25.29a.91.91 0 0 0-.51.84c0 .33.1.58.31.75.2.17.53.3.98.41.25.06.53.12.83.17l.78.16c.63.14 1.11.39 1.45.74.34.36.51.83.51 1.42z" class="st21"/><path id="path479978" d="M296.98 307.79c0 .65-.09 1.25-.28 1.79a4 4 0 0 1-.79 1.37 3.37 3.37 0 0 1-2.48 1.12 4.45 4.45 0 0 1-2.17-.56v3.37h-1.35v-11h1.35v.84c.36-.3.76-.55 1.21-.76.45-.21.93-.31 1.44-.31.97 0 1.72.37 2.26 1.1.54.73.81 1.74.81 3.04zm-1.4.04c0-.97-.17-1.69-.5-2.17s-.84-.72-1.53-.72c-.39 0-.78.08-1.17.25-.39.17-.77.39-1.13.66v4.56a4.48 4.48 0 0 0 1.93.44c.75 0 1.34-.25 1.76-.76.43-.51.64-1.27.64-2.26z" class="st21"/><path id="path479980" d="M304.83 309.59c0 .73-.3 1.34-.91 1.81-.6.47-1.43.71-2.48.71a6.08 6.08 0 0 1-2.89-.68v-1.52h.07c.43.32.9.58 1.42.77.52.19 1.02.28 1.5.28.59 0 1.06-.1 1.4-.29.34-.19.5-.49.5-.91 0-.32-.09-.56-.27-.72-.18-.16-.53-.3-1.05-.42l-.76-.15c-.31-.06-.59-.12-.84-.19a2.8 2.8 0 0 1-1.5-.82 2.08 2.08 0 0 1-.44-1.34c0-.33.07-.64.2-.94.14-.29.35-.55.63-.78.27-.23.61-.4 1.02-.53.42-.13.88-.2 1.4-.2a6.26 6.26 0 0 1 2.68.6v1.45h-.07a4.96 4.96 0 0 0-2.71-.91c-.49 0-.91.1-1.25.29a.91.91 0 0 0-.51.84c0 .33.1.58.31.75.2.17.53.3.98.41.25.06.53.12.83.17l.78.16c.63.14 1.11.39 1.45.74.34.36.51.83.51 1.42z" class="st21"/></g><path id="path4064" d="m135.66 551.69 27.48 7.23 23.15-7.23 72.33 2.89 40.5 2.89 49.18-11.57 43.4-2.89" style="fill:none;stroke:#dabf44;stroke-width:5.7219;stroke-miterlimit:7.1524"/><path id="path4094" d="M402.55 352.08 404 405.6l5.79 26.76-33.99 1.45" style="fill:none;stroke:#fff;stroke-width:6.2583;stroke-miterlimit:7.1524"/><path id="path4184" d="m271.99 82.1 82.83 9.25 46.05-12.32" style="fill:none;stroke:#fff;stroke-width:7.1524;stroke-miterlimit:7.1524"/><path id="path4250" d="M21.56 50.43c4.34-.67 8.63-1.59 12.99-2.15 3.42-.15 6.75-.93 10.12-1.45a67.9 67.9 0 0 1 9.9-1.73c2.98-.25 5.96-.26 8.95-.27l8.68.01c3.22.44 6.42.92 9.59 1.64 3.73.66 7.28 2.07 10.85 3.32a46.62 46.62 0 0 0 11.07 3.32c3.17.96 6.47 1.2 9.7 1.82 3.09.72 6.23 1.12 9.39 1.33 2.5.58 5 1.09 7.55 1.35 2.79.22 5.59.23 8.38.24h10.2l11.17-.01H197.37c2.99.02 5.95.15 8.89-.44 2.54-.66 5.19-.62 7.75-1.11 2.7-.37 5.27-1.15 7.89-1.89l-.74 1.22a60 60 0 0 1-7.93 1.85c-2.57.42-5.2.48-7.74 1.12-2.97.55-5.96.37-8.97.38h-48.44l-10.21.01c-2.81-.02-5.62-.03-8.42-.27-2.55-.28-5.03-.83-7.54-1.34a61.26 61.26 0 0 1-9.43-1.38c-3.24-.59-6.52-.91-9.69-1.82a50.37 50.37 0 0 1-11.13-3.38c-3.56-1.23-7.09-2.64-10.81-3.28a92.63 92.63 0 0 0-9.5-1.56l-8.67-.01c-2.97.01-5.94.03-8.9.3-3.34.35-6.62.98-9.88 1.75-3.37.54-6.71 1.25-10.13 1.43-4.36.58-8.65 1.5-12.99 2.17l.78-1.17z" style="fill:none;stroke:#dabf44;stroke-width:7.1524;stroke-miterlimit:7.1524"/></g></svg>