<svg xmlns="http://www.w3.org/2000/svg" xml:space="preserve" id="svg2" x="0" y="0" style="enable-background:new 0 0 69.9 103.62" version="1.1" viewBox="0 0 69.9 103.62"><style>.st4{fill:#ff94aa}</style><g id="layer1" transform="translate(-403.4 81.1)"><ellipse id="path3691" cx="438.36" cy="-69.23" rx="34.16" ry="11.07" style="fill:#f4eed7;stroke:#000;stroke-width:1.582;stroke-linecap:round;stroke-miterlimit:3"/><path id="path3693" d="M472.12-68.21c-2.01 6.07-18.65 10.08-37.39 9.43-14.8-.51-26.35-3.84-29.79-8.39l11.85 82.63c2.24 3.49 10.05 5.96 20.04 6.34 12.67.48 24.05-2.78 25.26-6.96l10.03-83.05z" style="fill:#fffff2;stroke:#000;stroke-width:1.3567;stroke-linecap:round;stroke-linejoin:round;stroke-miterlimit:3"/><path id="path3695" d="m414.39 5.24-6.87-46.11c2.98 3.94 13.84 7.26 27.62 7.72 17.46.59 33.25-3.35 35.07-8.48L465.2 4.61c-1.4 4.17-14.15 7.42-28.35 6.94-11.2-.38-19.95-2.84-22.46-6.31h0z" style="fill:#e9cbaf;stroke:#000;stroke-width:1.3567;stroke-linecap:round;stroke-linejoin:round;stroke-miterlimit:3"/><ellipse id="ellipse4221-4" cx="427.57" cy="-16.58" rx="2.42" ry="2.31" transform="matrix(1 -.00826 .00826 1 .15 3.53)"/><ellipse id="ellipse4223-9" cx="450.81" cy="-16.77" rx="2.42" ry="2.31" transform="matrix(1 -.00826 .00826 1 .15 3.72)"/><path id="path4225-0" d="M444.74-12.78c-.42 4.75-10.43 5.02-11.07.09" style="fill:none;stroke:#000;stroke-width:.9686;stroke-linecap:round;stroke-linejoin:round;stroke-miterlimit:3"/><ellipse id="ellipse4227-9" cx="424.49" cy="-10.8" class="st4" rx="1.9" ry=".97" transform="matrix(1 -.00826 .00826 1 .1 3.5)"/><ellipse id="ellipse4229-1" cx="453.33" cy="-11.05" class="st4" rx="1.9" ry=".97" transform="matrix(1 -.00826 .00826 1 .1 3.74)"/></g></svg>