<svg xmlns="http://www.w3.org/2000/svg" xml:space="preserve" id="svg2" x="0" y="0" style="enable-background:new 0 0 280.61 248.45" version="1.1" viewBox="0 0 280.61 248.45"><style>.st6{fill:#fbe84a}.st7{fill:#f9e815}.st8{fill:#f6d830}.st14{fill:#fea}</style><g id="layer1"><g id="g4253" transform="translate(2.12 53.12)"><radialGradient id="path4237_00000141441575195519384440000006482713165567912335_" cx="157.2" cy="412.67" r="53.34" gradientTransform="matrix(-.1926 -.5348 -.4339 .1563 239.51 203)" gradientUnits="userSpaceOnUse"><stop offset="0" style="stop-color:#916f6f"/><stop offset="1" style="stop-color:#916f6f;stop-opacity:0"/></radialGradient><path id="path4237" d="M22.67 131.59 2.01 147.37l-4.13 28.55L9.52 193.2l22.54-2.63 72.5-21.04-2.25-45.45-79.64 7.51z" style="fill:url(#path4237_00000141441575195519384440000006482713165567912335_)"/><path id="path3788" d="m24.7 72.36 253.69-86.43-41.73-10.37-15.74-2.58-13.46-5.24-69.31-20.86-35.43 33.53-43.51 42.04-13.9 18.19-19.88 17.53-.73 14.19z" style="fill:#fd5"/><path id="path3856" d="m23.03 64.75 255.46-78.88-10.23 132.42-235.01 76.25L23.03 64.75z" style="fill:#f4e50f"/><path id="rect3785" d="M23.03 67.91 274.38-7.56l-10.06 126.68-231.23 72.95L23.03 67.91z" style="fill:#f4be0f"/><linearGradient id="path3796_00000051347350168693478090000001828995239409384098_" x1="25.02" x2="11.73" y1="356.07" y2="460.2" gradientTransform="matrix(1 0 0 -1 2.12 524.01)" gradientUnits="userSpaceOnUse"><stop offset="0" style="stop-color:#e5d10d"/><stop offset="1" style="stop-color:#e5d10d;stop-opacity:0"/></linearGradient><path id="path3796" d="m24.56 57.85 9.38 137.48-15.55-12.79-.6-2.18-.96-3.46 7.73-119.05z" style="fill:url(#path3796_00000051347350168693478090000001828995239409384098_)"/><g id="g3971"><g id="g3968"><path id="path3809" d="M205.35 50.97c0 9.09-7.92 16.45-17.69 16.45s-17.69-7.37-17.69-16.45 7.92-16.45 17.69-16.45 17.69 7.37 17.69 16.45z" style="fill:#f19b2b"/></g></g><g id="g4085" transform="translate(.1 7.39)"><g id="g4087" transform="translate(0 -1.54)"><path id="path4089" d="M241.42 3.39c1.64 7.32-3.4 14.67-11.25 16.43-7.85 1.76-15.54-2.75-17.17-10.07" class="st6"/><path id="path4091" d="M213.41 11.14c-2.25-5.68 2.13-12.09 9.79-14.33 7.66-2.24 15.69.55 17.94 6.23" class="st6"/></g></g><g id="g4077" transform="translate(-.29 -.96)"><g id="g4079" transform="translate(0 -1.54)"><path id="path4081" d="M241.42 3.39c1.64 7.32-3.4 14.67-11.25 16.43-7.85 1.76-15.54-2.75-17.17-10.07" class="st7"/><path id="path4083" d="M213.41 11.14c-2.25-5.68 2.13-12.09 9.79-14.33 7.66-2.24 15.69.55 17.94 6.23" class="st7"/></g></g><g id="g4072" transform="translate(-.29 -.96)"><g id="g4022" transform="translate(0 -1.54)"><path id="path4024" d="M241.42 3.39c1.64 7.32-3.4 14.67-11.25 16.43-7.85 1.76-15.54-2.75-17.17-10.07" class="st8"/><path id="path4026" d="M213.41 11.14c-2.25-5.68 2.13-12.09 9.79-14.33 7.66-2.24 15.69.55 17.94 6.23" class="st8"/></g></g><path id="path3815" d="M241.01 4.49c1.64 7.32-2.99 15.48-10.84 17.24-7.85 1.76-15.54-2.75-17.17-10.07" style="fill:#f8cc03"/><path id="path3854" d="M213.41 13.06c-2.25-5.68 2.13-12.09 9.79-14.33 7.66-2.24 15.69.55 17.94 6.23" style="fill:#f8ce05"/><g id="g3934"><path id="path3806" d="M165.12 76.32c2.22 7.4-3.57 15.67-12.93 18.47-9.36 2.8-18.74-.92-20.95-8.32-2.22-7.4 3.57-15.67 12.93-18.47 9.35-2.8 18.73.92 20.95 8.32z" style="fill:#bd4e03"/><linearGradient id="path3874_00000034784484261451812920000017213940058662626456_" x1="171.21" x2="131.15" y1="438.66" y2="440.81" gradientTransform="matrix(1 0 0 -1 2.12 524.01)" gradientUnits="userSpaceOnUse"><stop offset="0" style="stop-color:#f60"/><stop offset="1" style="stop-color:#f60;stop-opacity:0"/></linearGradient><path id="path3874" d="m131.01 79.65 2.33 3.05 3.99.9 4.99.72s4.56-2.55 5.22-2.37c.66.18 8.68.39 8.68.39l6.34-9.77 3.36 7.82-3.17 6.75-3.31 4.89-5.65 3.23-10.14.72s-7.98-2.51-8.81-3.41c-.83-.9-3.82-5.74-3.82-5.74l-.01-7.18z" style="fill:url(#path3874_00000034784484261451812920000017213940058662626456_)"/></g><linearGradient id="path3938_00000039103592466106132950000000561432882071148470_" x1="201.21" x2="175.17" y1="465.26" y2="475.45" gradientTransform="matrix(1 0 0 -1 2.12 524.01)" gradientUnits="userSpaceOnUse"><stop offset="0" style="stop-color:#fc0"/><stop offset="1" style="stop-color:#fc0;stop-opacity:0"/></linearGradient><path id="path3938" d="m171.13 55.72 5.49 3.59 9.45 1.96 8.84-3.92 3.96-9.79V36.79l7.45 4.65.21 5.37-.54 8.09-2.54 6.7-4.28 1.99-3.35 7.23-8.15-.54-15.29-3.43-1.12-8.2-.13-2.93z" style="fill:url(#path3938_00000039103592466106132950000000561432882071148470_)"/><path id="path3954" d="m187.49 59.26 4.17 6.58 4.17-1.61-3.69-7.14-4.65 2.17z" class="st14"/><radialGradient id="path4000_00000148634717280321309150000013216161968557292428_" cx="177.2" cy="335.77" r="7.19" gradientTransform="matrix(.2755 1.4739 1.4715 -.275 -361.05 -121.36)" gradientUnits="userSpaceOnUse"><stop offset="0" style="stop-color:#9c560a"/><stop offset="1" style="stop-color:#9c560a;stop-opacity:0"/></radialGradient><path id="path4000" d="m177.92 36.91 14.99.95s-.38 10.39-1.25 13.62c-.87 3.24-1.03 8.87-9.07 7.72s-10.54-.02-11.19-5.74c-.65-5.71-1.3-4.38.22-8.19 1.52-3.79 6.3-8.36 6.3-8.36z" style="fill:url(#path4000_00000148634717280321309150000013216161968557292428_)"/><path id="path4042" d="m228.12 9.14 1.3 6.08s6.51 2.74 6.07 1.15c-.44-1.6-2.51-7.94-2.51-7.94l-4.86.71z" class="st14"/><linearGradient id="path4093_00000088836584730746701660000002613947591932695484_" x1="-66.28" x2="-63.44" y1="485.68" y2="473.51" gradientTransform="matrix(1 0 0 -1 157.9 650.07)" gradientUnits="userSpaceOnUse"><stop offset="0" style="stop-color:#a40"/><stop offset="1" style="stop-color:#fff"/></linearGradient><path id="path4093" d="m85.14 177.66-1.94-4.31.43-3.56 2.05-2.69 2.8-2.69 3.34-1.62 3.34-.32 2.69.97 2.69 1.29 2.8 4.85.43 2.16-18.63 5.92z" style="fill:url(#path4093_00000088836584730746701660000002613947591932695484_)"/><linearGradient id="path4105_00000085248567751866695810000014320627179880942233_" x1="185.92" x2="183.23" y1="376.24" y2="384.48" gradientTransform="matrix(1 0 0 -1 2.12 523.74)" gradientUnits="userSpaceOnUse"><stop offset="0" style="stop-color:#a80"/><stop offset="1" style="stop-color:#a80;stop-opacity:0"/></linearGradient><path id="path4105" d="m104.64 171.63-3.25-6 167.29-54.73-.3 7.32-163.74 53.41z" style="fill:url(#path4105_00000085248567751866695810000014320627179880942233_)"/><linearGradient id="path4115_00000074426278495006457990000008818169197516786874_" x1="132.32" x2="129.63" y1="358.74" y2="366.98" gradientTransform="matrix(1 0 0 -1 -71.5 547.56)" gradientUnits="userSpaceOnUse"><stop offset="0" style="stop-color:#a80"/><stop offset="1" style="stop-color:#a80;stop-opacity:0"/></linearGradient><path id="path4115" d="m33.4 194.39-.27-9.52 50.94-14.42-.3 7.32-50.37 16.62z" style="fill:url(#path4115_00000074426278495006457990000008818169197516786874_)"/><path id="path4127" d="M141.11 17.41c0 2.96-4.46 5.36-9.95 5.36-5.5 0-9.95-2.4-9.95-5.36s4.46-5.36 9.95-5.36c5.49 0 9.95 2.4 9.95 5.36z" style="fill:#ffd42a"/><path id="path4129" d="m126.56 15.49 1.53 3.06 4.59-.38-3.83-4.21-2.29 1.53z" class="st14"/><linearGradient id="path4159_00000078032457718553700820000000409518272065363348_" x1="154.27" x2="136.24" y1="666.26" y2="684.29" gradientTransform="matrix(1 0 0 -1 23.16 669.75)" gradientUnits="userSpaceOnUse"><stop offset="0" style="stop-color:#ffa70a"/><stop offset="1" style="stop-color:#ffa70a;stop-opacity:0"/></linearGradient><path id="path4159" d="M188.32-5.14c0 4.56-8.75 8.26-19.53 8.26s-19.53-3.7-19.53-8.26 8.75-8.26 19.53-8.26 19.53 3.69 19.53 8.26z" style="fill:url(#path4159_00000078032457718553700820000000409518272065363348_)"/></g></g></svg>