<svg xmlns="http://www.w3.org/2000/svg" xml:space="preserve" id="svg2" x="0" y="0" style="enable-background:new 0 0 1813.98 1348.09" version="1.1" viewBox="0 0 1813.98 1348.09"><style>.st2{fill:none;stroke:#0066b4;stroke-width:9.9501}.st3{fill:#fff;stroke:#000;stroke-width:8.4023}.st4{fill:#0066b4;stroke:#0066b4;stroke-width:2.2111}.st6{fill:#f9f9f9;stroke:#fff;stroke-width:3.8;stroke-linecap:round;stroke-linejoin:round}.st8{fill:#fff}.st9{font-family:&quot;ArialMT&quot;}.st10{font-size:120.7401px}.st11{fill:none;stroke:#fff;stroke-width:5.0856}.st12{font-size:120.7409px}.st13{fill:#98a8b1;stroke:#98a8b1;stroke-width:2.2111}.st14{font-size:148.6515px}.st15{fill:none;stroke:#fff;stroke-width:6.1651}.st16{fill:#98a8b1}.st17{font-size:78.4741px}.st18{fill:none;stroke:#98a8b1;stroke-width:3.2535}.st19{font-size:78.475px}.st20{fill:red;stroke:red;stroke-width:2.2111}.st21,.st22{fill:none;stroke:red;stroke-width:10.613}.st22{stroke:#000;stroke-width:4.8645}.st23,.st24{fill:none;stroke:red;stroke-width:10.392}.st24{stroke:#0066b4;stroke-width:7.2967}.st25{font-size:85.0447px}.st26{fill:none;stroke:#fff;stroke-width:3.6383}.st27{font-size:24.535px}.st28{fill:none;stroke:#98a8b1;stroke-width:1.46}.st29{font-size:27.5973px}.st30,.st32{fill:none;stroke:red;stroke-width:7.0756}.st32{stroke-width:5.749}</style><path id="path3907" d="M68.06 736.11c-24.58 32.74-40.48 62.88-8.72 95.93l267.85 206.81 273.17 195.12c78.82 46.67 192.19 63.75 282.47 88.93l83.12 19.45c44.86 11.66 77.68.65 112.67-25.41l653.31-486.46c89.78-69.31-31.27-161.52-74.21-212.72l-1113.7 59.76L78.07 742.3l-10.01-6.19z" style="stroke:#000;stroke-width:2.2111"/><linearGradient id="path3608_00000057127760463078621200000006426217609479010192_" x1="741.47" x2="843.07" y1="199.17" y2="106.67" gradientTransform="matrix(2.2111 0 0 -2.2111 -880.63 1506.44)" gradientUnits="userSpaceOnUse"><stop offset="0" style="stop-color:#fff"/><stop offset="1" style="stop-color:#e6e6e6"/></linearGradient><path id="path3608" d="m582.59 1131.08 93.44 64.78 347.51 109.2 14.79-14.68-3.5-198.55-135.79-118.98-326.41-52.32-28.65 108.39 38.61 102.16z" style="fill:url(#path3608_00000057127760463078621200000006426217609479010192_);stroke:#000;stroke-width:8.4023"/><path id="path3869" d="m684.78 1036.98 1.25 86.58 353.19-8.72 1.87-84.72-356.31 6.86z" class="st2"/><path id="path3610" d="M4.67 552.03 6.35 706l566.26 433.76 46.1-28.65 4.98-122.09-175.66-227.99-443.36-209z" class="st3"/><path id="path3606" d="m1803.08 529.97 6.61 147.59-780.95 623.53-.56-576.76 774.9-194.36z" class="st3"/><path id="path2832" d="M414.19 311.19 83.84 508.52 30.98 519.1 6.32 545.52l614.89 445.75 406.99 109.24 773.46-576.13-170.9-221.99L959.49 4.64l-35.24 17.62-3.52 22.9-297.75 150.65-26.43-7.05-180.59 96.02-1.77 26.41z" class="st3"/><path id="path3612" d="m504.04 514.68-32.59 177.07c-2.12 18.96 10.94 19.34 23.78 18.5L750.7 698.8c15.02-1.55 27.4-5.95 27.31-23.78l15.86-171.78-289.83 11.44z" class="st4"/><path id="path3614" d="M583.82 650.48c0 14.97-16.31 27.1-36.44 27.1s-36.44-12.13-36.44-27.1 16.31-27.1 36.44-27.1 36.44 12.13 36.44 27.1z" style="fill-opacity:0"/><path id="path3622" d="M613.1 655.21c-13.26 17.1-39.69 24.66-59.04 16.88-19.34-7.78-24.27-27.95-11.01-45.05 13.26-17.1 39.69-24.66 59.04-16.88 19.34 7.78 24.27 27.95 11.01 45.05z" class="st6"/><path id="path3630" d="M730.55 584.81c-12.75 17.1-38.95 24.66-58.53 16.88-19.58-7.78-25.12-27.95-12.37-45.05 12.75-17.1 38.95-24.66 58.53-16.88 19.58 7.78 25.12 27.95 12.37 45.05z" class="st6"/><path id="path3638" d="m797.78 494.1 14.53-141.56c2.12-18.96-10.94-19.34-23.79-18.5l-226.19 8.34c-15.02 1.55-27.4 5.95-27.31 23.79l-27.07 139.39 289.83-11.46z" class="st4"/><path id="path3636" d="M698.15 429.71c-12.75 17.1-38.95 24.66-58.53 16.88-19.58-7.78-25.12-27.95-12.37-45.05 12.75-17.1 38.95-24.66 58.53-16.88 19.58 7.78 25.12 27.95 12.37 45.05z" class="st6"/><path id="path3640" d="m824.28 346.17-36.75 321.42c-3.99 36.26 6.83 31.78 15.57 33.01l270.34-4.36c14.77-1.96 26.01-8.16 24.29-29.9l8.1-315.82c-.21-15.52 2.28-30.71-17.44-29.9l-225.5 11.22c-18.77.2-34.67 2.62-38.61 14.33z" style="fill:#e30e0e;stroke:#e30e0e;stroke-width:2.2111"/><text class="st8 st9 st10" transform="matrix(.0125 -.9207 .9887 .1497 1058.33 674.84)">     </text><text class="st11 st9 st10" transform="matrix(.0125 -.9207 .9887 .1497 1058.33 674.84)">     </text><text class="st8 st9 st10" transform="matrix(.0125 -.9207 .9887 .1497 1058.33 674.84)">Haunt</text><text class="st11 st9 st10" transform="matrix(.0125 -.9207 .9887 .1497 1058.33 674.84)">Haunt</text><text class="st8 st9 st10" transform="matrix(.0125 -.9207 .9887 .1497 1062.36 378.2)">   </text><text class="st11 st9 st10" transform="matrix(.0125 -.9207 .9887 .1497 1062.36 378.2)">   </text><text class="st8 st9 st12" transform="matrix(.0022 -.9208 .9903 .1386 913.35 672.03)">     </text><text class="st11 st9 st12" transform="matrix(.0022 -.9208 .9903 .1386 913.35 672.03)">     </text><text class="st8 st9 st12" transform="matrix(.0022 -.9208 .9903 .1386 913.35 672.03)">Pizza</text><text class="st11 st9 st12" transform="matrix(.0022 -.9208 .9903 .1386 913.35 672.03)">Pizza</text><text class="st8 st9 st12" transform="matrix(.0022 -.9208 .9903 .1386 914 400.16)">   </text><text class="st11 st9 st12" transform="matrix(.0022 -.9208 .9903 .1386 914 400.16)">   </text><path id="path3668" d="m1117.08 508.75-.31 151.06c-1.34 12.31-.66 26.78 21.49 26.47h145.88c19.54 1.48 25.98-1.94 24.17-23.05l-3.11-148.88c-1.2-15.32-1.49-31.34-23.67-30.52l-147.01 5.61c-13.57-.45-18.83 6.48-17.44 19.31z" class="st13"/><text class="st8 st9 st14" transform="matrix(-.0968 -.8877 .9995 .0304 1268.52 661.17)">     </text><text class="st15 st9 st14" transform="matrix(-.0968 -.8877 .9995 .0304 1268.52 661.17)">     </text><text class="st8 st9 st14" transform="matrix(-.0968 -.8877 .9995 .0304 1268.52 661.17)">30</text><text class="st15 st9 st14" transform="matrix(-.0968 -.8877 .9995 .0304 1268.52 661.17)">30</text><text class="st8 st9 st14" transform="matrix(-.0968 -.8877 .9995 .0304 1252.52 514.4)">   </text><text class="st15 st9 st14" transform="matrix(-.0968 -.8877 .9995 .0304 1252.52 514.4)">   </text><text class="st16 st9 st17" transform="matrix(-.0325 -.8916 .9949 .1007 1195.08 481.52)">     </text><text class="st18 st9 st17" transform="matrix(-.0325 -.8916 .9949 .1007 1195.08 481.52)">     </text><text class="st16 st9 st17" transform="matrix(-.0325 -.8916 .9949 .1007 1195.08 481.52)">Large</text><text class="st18 st9 st17" transform="matrix(-.0325 -.8916 .9949 .1007 1195.08 481.52)">Large</text><text class="st16 st9 st17" transform="matrix(-.0325 -.8916 .9949 .1007 1188.54 302.57)">   </text><text class="st18 st9 st17" transform="matrix(-.0325 -.8916 .9949 .1007 1188.54 302.57)">   </text><text class="st16 st9 st19" transform="matrix(-.0479 -.8909 .9965 .0836 1294.1 477.48)">     </text><text class="st18 st9 st19" transform="matrix(-.0479 -.8909 .9965 .0836 1294.1 477.48)">     </text><text class="st16 st9 st19" transform="matrix(-.0479 -.8909 .9965 .0836 1294.1 477.48)">Box</text><text class="st18 st9 st19" transform="matrix(-.0479 -.8909 .9965 .0836 1294.1 477.48)">Box</text><text class="st16 st9 st19" transform="matrix(-.0479 -.8909 .9965 .0836 1287.62 357)">   </text><text class="st18 st9 st19" transform="matrix(-.0479 -.8909 .9965 .0836 1287.62 357)">   </text><path id="path3682" d="m974.98 16.65-24.29 13.08 640.98 299 34.26-22.74L974.98 16.65z" class="st20"/><path id="path3702" d="m619.01 901.38 25.11 17.18-1.76 53.3-24.67-14.98 1.32-55.5z" class="st20"/><path id="path3704" d="m573.8 868.35 24.37 18.21-3.98 53.18-24.02-15.99 3.63-55.4z" class="st20"/><path id="path3799" d="m529.75 837.52 24.37 18.21-3.98 53.18-24.02-15.99 3.63-55.4z" class="st20"/><path id="path3801" d="m485.7 805.8 24.37 18.21-3.98 53.18-24.02-15.99 3.63-55.4z" class="st20"/><path id="path3803" d="m442.54 776.73 24.37 18.21-3.98 53.18-24.02-15.99 3.63-55.4z" class="st20"/><path id="path3805" d="m404.66 749.42 24.37 18.21-3.98 53.18-24.02-15.99 3.63-55.4z" class="st20"/><path id="path3809" d="m365.9 722.12 24.37 18.21-3.98 53.18-24.02-15.99 3.63-55.4z" class="st20"/><path id="path3811" d="m326.25 693.93 24.37 18.21-3.98 53.18-24.02-15.99 3.63-55.4z" class="st20"/><path id="path3813" d="m289.26 668.38 24.37 18.21-3.98 53.18-24.02-15.99 3.63-55.4z" class="st20"/><path id="path3815" d="m249.61 640.19 24.37 18.21-3.98 53.18-24.02-15.99 3.63-55.4z" class="st20"/><path id="path3817" d="m213.5 613.76 24.37 18.21-3.98 53.18-24.02-15.99 3.63-55.4z" class="st20"/><path id="path3819" d="m175.62 587.33 24.37 18.21-3.98 53.18-24.02-15.99 3.63-55.4z" class="st20"/><path id="path3821" d="m138.62 560.91 24.37 18.21-3.98 53.18-24.02-15.99 3.63-55.4z" class="st20"/><path id="path3823" d="m106.9 539.76 24.37 18.21-3.98 53.18-24.02-15.99 3.63-55.4z" class="st20"/><path id="path3825" d="m74.31 516.86 24.37 18.21-3.98 53.18-24.02-15.99 3.63-55.4z" class="st20"/><path id="path3827" d="m117.76 521.29 23.79 22.02 340.04-195.13-50.65 2.2-313.18 170.91z" class="st20"/><path id="path3829" d="M958.78 49.5 985.92 64 694.38 229.92l2.54-32.37L958.78 49.5z" class="st20"/><path id="path3835" d="m438.41 313.83 54.62-.44-26.87-18.94-27.75 19.38z" class="st20"/><path id="path3837" d="m635.3 202.83-3.52 33.92-25.11-19.38 28.63-14.54z" class="st20"/><path id="path3839" d="m830.38 317.35-.44-18.06h26.87" class="st24"/><path id="path3841" d="m1332.08 292.69.44-18.06h-26.87" class="st24"/><path id="path3851" d="m258.78 787.52-.73 45.14L415.65 956l.62-52.95-157.49-115.53z" class="st20"/><path id="path3867" d="m40.96 602.5.62 105.27 96.55 70.08 2.49-105.9-99.66-69.45z" class="st13"/><text class="st8 st9 st25" transform="matrix(.8459 .4293 -.3365 .9417 41.73 702.66)">     </text><text class="st26 st9 st25" transform="matrix(.8459 .4293 -.3365 .9417 41.73 702.66)">     </text><text class="st8 st9 st25" transform="matrix(.8459 .4293 -.3365 .9417 41.73 702.66)">30</text><text class="st26 st9 st25" transform="matrix(.8459 .4293 -.3365 .9417 41.73 702.66)">30</text><text class="st8 st9 st25" transform="matrix(.8459 .4293 -.3365 .9417 121.75 743.28)">   </text><text class="st26 st9 st25" transform="matrix(.8459 .4293 -.3365 .9417 121.75 743.28)">   </text><text class="st16 st9 st27" transform="matrix(1.574 1.0265 -.3219 .9468 142.99 712.9)">     </text><text class="st28 st9 st27" transform="matrix(1.574 1.0265 -.3219 .9468 142.99 712.9)">     </text><text class="st16 st9 st27" transform="matrix(1.574 1.0265 -.3219 .9468 142.99 712.9)">Large</text><text class="st28 st9 st27" transform="matrix(1.574 1.0265 -.3219 .9468 142.99 712.9)">Large</text><text class="st16 st9 st27" transform="matrix(1.574 1.0265 -.3219 .9468 241.76 777.32)">   </text><text class="st28 st9 st27" transform="matrix(1.574 1.0265 -.3219 .9468 241.76 777.32)">   </text><text class="st16 st9 st29" transform="matrix(1.2438 .7604 -.3779 .9258 146.5 766.65)">     </text><text class="st28 st9 st29" transform="matrix(1.2438 .7604 -.3779 .9258 146.5 766.65)">     </text><text class="st16 st9 st29" transform="matrix(1.2438 .7604 -.3779 .9258 146.5 766.65)">Box</text><text class="st28 st9 st29" transform="matrix(1.2438 .7604 -.3779 .9258 146.5 766.65)">Box</text><text class="st16 st9 st29" transform="matrix(1.2438 .7604 -.3779 .9258 205.66 802.81)">   </text><text class="st28 st9 st29" transform="matrix(1.2438 .7604 -.3779 .9258 205.66 802.81)">   </text><path id="path3875" d="m1077.38 1095.18-29.94 18.57-.12 30.38" class="st30"/><path id="path3877" d="m1090.78 1219.88-38.08 24.54-.99-32.81" class="st30"/><path id="path3879" d="m1349.28 1010.28 29.94-18.57.12-30.38" class="st30"/><path id="path3881" d="m1346.48 887.58 32.78-20.81.99 32.81" class="st30"/><path id="path3885" d="M1025.18 1298.78c0-3.11-28.34-145.92-28.34-145.92l28.5-1.87-.16 147.79z" style="fill:#f2f2f2;stroke:#000;stroke-width:2.2111"/><path id="path3883" d="M1029.08 1150.68 821.12 1161" style="fill:none;stroke:#000;stroke-width:2.2111"/></svg>